<svg xmlns="http://www.w3.org/2000/svg" viewBox="0 0 100 100" enable-background="new 0 0 100 100"><g fill="#e72f37"><path d="m47.873 54.59l-23.09-13.33v8.729c0 1.414 1 3.151 2.228 3.857l20.859 12.05c1.225.709 3.23.709 4.455 0l20.859-12.04c1.225-.706 2.227-2.443 2.227-3.857v-8.729l-23.09 13.33c-1.225.703-3.231.703-4.456-.001"/><path d="m50.1 100c-1.617 0-3.162-.379-4.352-1.062l-35.853-20.704c-2.44-1.407-4.351-4.72-4.351-7.537v-41.4c0-2.817 1.911-6.127 4.351-7.537l35.853-20.7c1.19-.686 2.734-1.063 4.352-1.063s3.162.377 4.352 1.063l35.853 20.7c2.44 1.41 4.35 4.722 4.35 7.537v41.4c0 2.817-1.909 6.128-4.349 7.536l-35.855 20.705c-1.189.683-2.734 1.062-4.351 1.062m0-91.68c-.952 0-1.849.203-2.465.558l-31.919 18.428c-1.291.744-2.464 2.779-2.464 4.269v36.855c0 1.489 1.175 3.524 2.466 4.271l31.917 18.428c.616.355 1.513.559 2.465.559.951 0 1.849-.203 2.465-.559l31.919-18.429c1.288-.745 2.462-2.78 2.462-4.27v-36.855c0-1.49-1.174-3.526-2.462-4.269l-31.92-18.428c-.616-.355-1.513-.558-2.464-.558"/></g></svg>