<svg xmlns="http://www.w3.org/2000/svg" viewBox="0 0 100 100" enable-background="new 0 0 100 100"><path fill="#e72f37" d="m33.698 95v-70.26c0-1.644.994-3.365 2.417-4.186l11.973-6.913c.686-.396 1.544-.613 2.417-.613s1.732.218 2.417.613l11.975 6.914c1.422.821 2.415 2.542 2.415 4.186v70.26h-33.614"/><g fill="#fff"><path d="m51.634 15.974c-.621-.358-1.638-.358-2.259 0l-11.884 6.861c-.622.359-1.129 1.239-1.129 1.957v13.722c0 .717.508 1.598 1.129 1.957l11.884 6.861c.621.358 1.638.358 2.259 0l11.885-6.861c.62-.359 1.129-1.239 1.129-1.957v-13.722c0-.717-.509-1.598-1.129-1.957l-11.885-6.861m11.71 21.788c0 .716-.509 1.597-1.13 1.956l-10.58 6.109c-.621.358-1.638.358-2.259 0l-10.58-6.109c-.622-.359-1.13-1.24-1.13-1.956v-12.217c0-.717.508-1.598 1.13-1.957l10.58-6.107c.621-.359 1.638-.359 2.259 0l10.58 6.107c.621.358 1.13 1.24 1.13 1.957v12.217"/><path d="m55.816 32.52c-2.494-1.918-1.873-1.893-.604-2.81.72-.423.956-2.029-.254-1.542s-2.868 2.908-4.099 3.825c-1.229.917-2.771 2.205-2.224.507.546-1.698.722-1.979.722-1.979s.068-.588 4-2.431c4.602-2.156 5.644-1.438 5.527-2.677-.225-2.408-8.884 3.36-8.884 3.36s.332-.859 1.327-2.771c0 0-1.854-.723-2.79 3.571 0 0-.8.393-1.935 1.249 0 0 .369.932 1.291.391 0 0-.396 1.067-.369 2.09-.666.38-2.511 1.218-1.705-1.7.976-3.533-.02-4.04-1.561-3.513-1.542.527-1.991 2.849-1.991 2.849s.195-2.674-1.815-1.835c0 0 .868.232.898 2.518.039 2.986 1.152 2.794 1.502 2.928 0 0-.449-2.961 1.522-4.528.192-.151.463-.123.468.157.013.555-1.508 4.8 1.581 5.01.665.047 1.121-.318 1.292-.937.165.366.451.661.919.801 1.364.409 2.697-1.577 4.31-3.361.182.488.747.994 1.817 1.683 2.297 1.476 2.927 2.916 2.439 4.171-.521 1.342-2.22 2.266-3.229.918-.758-1.01.177-2.036.746-2.495.861-.695.356-1.928-.721-1.39-4.469 2.232-.837 7.792 2.766 5.615 2.784-1.681 2.792-4.804-.947-7.679"/></g></svg>