<svg xmlns="http://www.w3.org/2000/svg" viewBox="0 0 100 100" enable-background="new 0 0 100 100"><path fill="#e72f37" d="m87.9 71.66c0 1.795-1.273 3.998-2.828 4.896l-29.738 17.17c-1.555.897-4.098.897-5.654 0l-29.739-17.17c-1.557-.897-2.828-3.101-2.828-4.896v-34.34c0-1.797 1.271-3.999 2.828-4.896l29.738-17.17c1.557-.899 4.1-.899 5.654 0l29.738 17.17c1.555.896 2.828 3.099 2.828 4.896v34.34z"/><g fill="#fff"><path d="m82.4 43.4l-50.571 13.422-9.939-9.07z"/><path d="m82.4 43.4l-34.29 29.95-10.8-11.619z"/><path d="m32.595 70.74l-2.095-14.66 1.329 1.25.766 13.41"/><path d="m36.833 62.65l3.237 3.59-7.475 4.5z"/></g></svg>