<svg xmlns="http://www.w3.org/2000/svg" viewBox="0 0 100 100" enable-background="new 0 0 100 100"><path fill="#e72f37" d="m69.17 4v74.28c0 1.737-1.051 3.557-2.556 4.425l-12.659 7.31c-.725.418-1.632.648-2.556.648-.922 0-1.83-.23-2.555-.648l-12.659-7.31c-1.503-.868-2.555-2.688-2.555-4.425v-74.28h35.54"/><g fill="#fff"><path d="m52.54 54.33c-.659-.38-1.738-.38-2.398 0l-12.613 7.283c-.66.381-1.199 1.315-1.199 2.077v14.563c0 .763.539 1.696 1.199 2.078l12.613 7.282c.66.38 1.739.38 2.398 0l12.614-7.282c.658-.382 1.198-1.315 1.198-2.078v-14.563c0-.762-.54-1.696-1.198-2.077l-12.614-7.283m12.429 23.13c0 .762-.54 1.696-1.199 2.077l-11.23 6.484c-.659.38-1.738.38-2.398 0l-11.229-6.483c-.659-.381-1.198-1.315-1.198-2.077v-12.967c0-.762.539-1.696 1.198-2.076l11.229-6.484c.66-.381 1.739-.381 2.398 0l11.229 6.484c.659.38 1.199 1.314 1.199 2.076v12.966"/><path d="m56.979 71.896c-2.647-2.036-1.989-2.01-.643-2.982.765-.45 1.017-2.154-.269-1.636-1.285.517-3.046 3.085-4.351 4.06-1.305.974-2.941 2.341-2.361.538.58-1.802.767-2.102.767-2.102s.072-.624 4.247-2.58c4.885-2.289 5.989-1.525 5.867-2.841-.239-2.556-9.43 3.566-9.43 3.566s.352-.911 1.409-2.941c0 0-1.968-.767-2.962 3.79 0 0-.848.418-2.053 1.326 0 0 .39.989 1.37.414 0 0-.421 1.133-.393 2.218-.707.404-2.664 1.294-1.809-1.804 1.037-3.75-.02-4.288-1.657-3.729-1.636.559-2.113 3.02-2.113 3.02s.207-2.838-1.927-1.947c0 0 .921.245.954 2.672.041 3.17 1.223 2.965 1.594 3.106 0 0-.477-3.143 1.616-4.806.204-.16.491-.131.498.167.012.589-1.601 5.095 1.678 5.323.706.05 1.188-.338 1.37-.994.175.388.478.7.975.849 1.448.436 2.863-1.673 4.575-3.566.192.518.793 1.055 1.93 1.785 2.438 1.567 3.106 3.097 2.589 4.428-.553 1.425-2.355 2.405-3.429.976-.804-1.071.188-2.162.791-2.648.916-.737.38-2.046-.764-1.475-4.744 2.369-.888 8.271 2.935 5.96 2.955-1.785 2.964-5.101-1-8.151"/><path d="m38.596 4h1.162v39.19h-1.162z"/></g><circle fill="#e72f37" cx="39.18" cy="43.657" r="1.404"/><path fill="#fff" d="m39.18 45.641c-1.094 0-1.984-.89-1.984-1.984s.89-1.984 1.984-1.984c1.094 0 1.984.89 1.984 1.984s-.89 1.984-1.984 1.984m0-2.807c-.454 0-.823.369-.823.822s.369.823.823.823.823-.369.823-.822-.37-.823-.823-.823"/><circle fill="#e72f37" cx="39.18" cy="34.1" r="1.404"/><path fill="#fff" d="m39.18 36.09c-1.094 0-1.984-.89-1.984-1.984 0-1.094.89-1.984 1.984-1.984 1.094 0 1.984.89 1.984 1.984 0 1.094-.89 1.984-1.984 1.984m0-2.806c-.454 0-.823.369-.823.822 0 .454.369.823.823.823s.823-.369.823-.823c0-.454-.37-.822-.823-.822"/><circle fill="#e72f37" cx="39.18" cy="15" r="1.404"/><path fill="#fff" d="m39.18 16.986c-1.094 0-1.984-.89-1.984-1.984s.89-1.984 1.984-1.984c1.094 0 1.984.89 1.984 1.984s-.89 1.984-1.984 1.984m0-2.807c-.454 0-.823.369-.823.823s.369.823.823.823.823-.369.823-.823-.37-.823-.823-.823"/><circle fill="#e72f37" cx="39.18" cy="24.553" r="1.404"/><path fill="#fff" d="m39.18 26.538c-1.094 0-1.984-.89-1.984-1.984 0-1.094.89-1.984 1.984-1.984 1.094 0 1.984.89 1.984 1.984 0 1.094-.89 1.984-1.984 1.984m0-2.807c-.454 0-.823.369-.823.822 0 .454.369.823.823.823s.823-.369.823-.823c0-.453-.37-.822-.823-.822"/></svg>