<svg xmlns="http://www.w3.org/2000/svg" viewBox="0 0 100 100" enable-background="new 0 0 100 100"><g fill="#e72f37"><path d="m81.49 54.967c-.127 0-.25-.029-.342-.083l-3.094-1.785c-.191-.111-.342-.372-.342-.595v-3.57c0-.223.15-.483.342-.595l3.094-1.786c.092-.053.215-.082.342-.082.129 0 .25.029.344.082l3.092 1.786c.193.111.344.372.344.595v3.57c0 .223-.15.483-.342.595l-3.094 1.785c-.092.054-.215.083-.344.083m-3.242-2.658c0 .15.115.349.244.424l2.754 1.59c.062.036.152.057.244.057.094 0 .184-.021.246-.057l2.752-1.59c.131-.075.246-.273.246-.424v-.742l-2.9 1.675c-.092.054-.215.083-.344.083-.127 0-.25-.029-.342-.083l-2.9-1.675v.742m0-1.644c0 .151.115.35.244.425l2.754 1.59c.062.036.152.057.244.057.094 0 .184-.021.246-.057l2.752-1.59c.131-.075.246-.273.246-.425v-.741l-2.9 1.675c-.092.054-.215.083-.344.083-.127 0-.25-.029-.342-.083l-2.9-1.675v.741m.004-1.589c.023.144.127.305.24.371l2.754 1.589c.062.037.152.058.244.058.094 0 .184-.021.246-.058l2.752-1.589c.115-.066.219-.228.24-.371-.021-.145-.125-.306-.24-.371l-2.752-1.59c-.062-.036-.152-.057-.246-.057-.092 0-.182.021-.244.057l-2.754 1.59c-.113.066-.217.227-.24.371"/><path d="m17.564 55.12c-.132 0-.257-.03-.352-.085l-3.21-1.854c-.197-.113-.352-.382-.352-.609v-3.707c0-.228.155-.496.352-.609l3.21-1.854c.095-.055.22-.085.352-.085s.257.03.353.085l3.209 1.854c.197.114.352.382.352.609v3.707c0 .228-.155.495-.352.609l-3.209 1.854c-.096.055-.221.085-.353.085m-3.373-2.752c0 .162.118.366.258.447l2.848 1.645v-3.292c0-.146-.1-.334-.228-.427l-2.878-1.662v3.289m3.905-1.647c-.138.079-.258.288-.258.447v3.288l2.842-1.641c.137-.079.258-.288.258-.447v-3.288l-2.842 1.641m-.748-.447c.055.024.135.04.217.04.098 0 .192-.022.257-.061l2.842-1.641-2.842-1.641c-.065-.038-.16-.061-.258-.061s-.192.022-.258.061l-2.84 1.64 2.882 1.663"/><path d="m16.445 51.613c-.197-.438-.3-1.449.065-1.195.014.01-.049-.164-.045-.181l-.639-.313c.007.021-.139.01-.119.03.426.435.318 1.129.148 1.37-.032.037-.05.09-.05.155 0 .193.154.426.345.52.19.093.345.013.345-.181 0-.066-.018-.136-.05-.205"/><path d="m15.498 50.571c-.142-.282-.239-.834.058-.736.016.005-.043-.141-.041-.155l-.468-.214c.005.019-.105.043-.083.06.344.259.232.701.11.853-.023.023-.036.057-.036.1 0 .123.111.273.248.336.137.062.248.013.248-.11-.001-.044-.014-.09-.036-.134"/><path d="m49.22 47.26c.041-.01.083-.022.125-.04v-.114c-.044.023-.087.041-.126.053-.04.011-.078.017-.114.017-.005 0-.009-.001-.014-.001l-.128.074c.042.016.088.023.142.023.036 0 .075-.004.115-.012"/><path d="m49.781 47.05c-.036-.015-.075-.025-.115-.031v.24h.115v-.209"/><path d="m47.08 48.38c0-.013-.003-.025-.004-.038l-.163.094h.167v-.056"/><path d="m46.806 48.8c.038 0 .077-.005.117-.014.04-.009.082-.022.125-.04v-.113c-.045.023-.087.041-.127.053-.04.012-.078.018-.114.018-.072 0-.127-.021-.167-.062-.01-.01-.018-.022-.025-.035l-.094.054c.01.016.02.03.032.043.061.063.146.096.253.096"/><path d="m47.614 48.8c.034 0 .067-.005.1-.014.032-.009.064-.022.094-.04v-.118c-.027.025-.056.044-.087.057-.031.012-.067.019-.106.019-.071 0-.126-.023-.165-.07s-.058-.112-.058-.198.02-.151.058-.197c.038-.047.093-.07.165-.07.039 0 .073.006.103.019.03.012.061.031.091.058v-.119c-.032-.019-.064-.031-.096-.04-.032-.009-.064-.014-.098-.014-.032 0-.062.004-.089.01l-.171.1c-.054.062-.082.147-.082.255 0 .114.031.204.091.269.058.06.142.093.25.093"/><path d="m48.18 48.553c0 .084.018.143.053.177s.095.052.181.052h.14v-.092h-.128c-.049 0-.083-.01-.102-.03-.02-.021-.03-.057-.03-.107v-.377h.259v-.088h-.259v-.197h-.114v.197h-.185v.088h.185v.377"/><path d="m49.17 48.09h-.296v.09h.176v.512h-.224v.089h.564v-.089h-.22z"/><path d="m49.05 47.82h.114v.144h-.114z"/><path d="m49.824 48.8c.097 0 .17-.032.221-.094.051-.062.076-.152.076-.271 0-.118-.025-.208-.076-.271-.051-.062-.125-.094-.221-.094s-.169.031-.221.094c-.051.062-.076.152-.076.271 0 .119.025.209.076.271.051.062.125.094.221.094m-.131-.565c.029-.046.073-.068.131-.068.059 0 .102.022.132.068.03.045.044.112.044.2s-.014.155-.044.2c-.03.045-.073.068-.132.068-.058 0-.102-.023-.131-.068-.03-.045-.045-.112-.045-.2s.015-.155.045-.2"/><path d="m50.44 48.39c0-.07.014-.126.043-.163.028-.038.069-.057.123-.057.047 0 .08.015.102.044.023.029.033.075.033.138v.43h.115v-.43c0-.095-.018-.165-.053-.211-.035-.047-.088-.07-.158-.07-.047 0-.088.01-.123.031-.035.021-.062.05-.082.09v-.104h-.114v.693h.114v-.391"/><path d="m52.2 48.8c.033 0 .066-.005.1-.014s.064-.022.094-.04v-.118c-.025.025-.055.044-.086.057-.031.012-.068.019-.107.019-.07 0-.125-.023-.164-.07s-.059-.112-.059-.198c0-.044.006-.082.016-.115l-.102-.06c-.021.05-.033.107-.033.175 0 .114.029.204.09.269.06.062.144.095.251.095"/><path d="m46.15 49.699c-.019-.035-.043-.061-.075-.079-.031-.018-.067-.026-.108-.026v.098c.005 0 .009-.002.015-.002.055 0 .097.023.125.068.028.045.043.112.043.2s-.015.154-.043.199c-.029.045-.07.068-.125.068-.005 0-.01-.001-.015-.002v.099c.04-.001.076-.01.107-.027.032-.018.057-.044.076-.078v.087h.114v-.964h-.114v.359"/><path d="m46.874 49.612h-.291v.089h.177v.519h-.226v.08h.566v-.08h-.226z"/><path d="m46.76 49.34h.114v.144h-.114z"/><path d="m47.532 50.19l-.202-.58h-.12l.25.69h.145l.248-.69h-.119z"/><path d="m48.913 49.912c0-.071.014-.125.043-.163s.07-.057.123-.057c.047 0 .081.015.103.044.021.029.033.075.033.138v.43h.115v-.43c0-.094-.018-.164-.052-.211-.035-.047-.088-.07-.158-.07-.048 0-.089.011-.124.031s-.062.051-.083.09v-.104h-.114v.693h.114v-.391"/><path d="m49.785 50.31c.045 0 .083-.009.115-.028.031-.019.056-.048.074-.087v.078.005c0 .072-.014.126-.042.159s-.073.05-.135.05c-.027 0-.058-.004-.091-.014-.033-.009-.069-.022-.11-.042v.113c.035.011.069.02.103.025.035.005.067.009.098.009.096 0 .168-.027.217-.081s.074-.133.074-.236v-.647h-.114v.09c-.019-.037-.044-.064-.076-.082-.031-.018-.069-.027-.113-.027-.081 0-.146.033-.194.098-.048.065-.072.152-.072.261 0 .109.024.196.072.261s.113.095.194.095m-.102-.552c.029-.045.072-.067.127-.067.054 0 .094.022.122.067.028.044.042.109.042.194 0 .086-.014.15-.042.195-.027.045-.068.067-.12.067-.056 0-.099-.022-.129-.066-.029-.046-.044-.11-.044-.196 0-.085.014-.15.044-.194"/><path d="m50.27 49.855h.656v.104h-.656z"/><path d="m51.52 49.593c-.031 0-.057.008-.079.022-.021.014-.04.035-.054.065-.012-.029-.027-.051-.049-.065-.02-.015-.047-.022-.078-.022-.025 0-.049.008-.069.021s-.038.031-.052.057v-.06h-.104v.693h.104v-.396c0-.095.006-.155.018-.181s.033-.037.063-.037.052.011.063.034.018.084.018.184v.396h.104v-.396c0-.095.007-.155.019-.181.013-.025.035-.037.068-.037.028 0 .049.011.06.035.012.023.017.084.017.183v.396h.104v-.401c0-.12-.012-.201-.035-.244s-.063-.066-.118-.066"/><path d="m52.12 50.32c.098 0 .17-.031.221-.094.053-.062.078-.152.078-.271s-.027-.208-.078-.271c-.051-.062-.123-.094-.221-.094-.096 0-.17.032-.221.094-.051.063-.075.153-.075.271s.024.209.075.271c.051.063.126.094.221.094m-.131-.564c.029-.045.074-.068.131-.068.059 0 .102.023.133.068.029.045.045.111.045.2 0 .088-.016.154-.045.199-.031.046-.074.068-.133.068-.057 0-.102-.022-.131-.068-.029-.045-.045-.111-.045-.199 0-.089.016-.155.045-.2"/><path d="m53.03 49.34v.359c-.018-.035-.043-.061-.074-.079-.033-.018-.068-.027-.111-.027-.082 0-.148.033-.197.097-.049.064-.072.153-.072.266 0 .114.023.204.072.27s.115.098.197.098c.041 0 .078-.01.109-.027.033-.018.057-.044.076-.078v.087h.102v-.966h-.102m-.043.817c-.027.045-.07.068-.125.068s-.096-.022-.125-.067c-.027-.046-.041-.112-.041-.2 0-.089.014-.155.041-.2.029-.045.07-.068.125-.068s.098.023.125.068c.029.045.043.112.043.2s-.013.154-.043.199"/><path d="m46.689 51.48c.025.032.038.071.038.116v.124c0 .092.018.152.053.183.035.031.104.046.207.046h.04v-.089h-.043c-.058 0-.095-.009-.113-.027-.018-.018-.026-.056-.026-.115v-.129c0-.07-.015-.119-.045-.146s-.084-.045-.165-.055c.083-.012.139-.029.167-.055.028-.024.043-.074.043-.146v-.166c0-.059.008-.097.026-.115.018-.018.056-.026.113-.026h.043v-.089h-.04c-.103 0-.172.016-.207.046-.035.03-.053.091-.053.183v.161c0 .054-.011.094-.034.122-.023.027-.064.041-.122.041h-.076v.089h.076c.054-.002.093.014.118.047"/><path d="m47.607 51.19v-.166c0-.059.009-.097.026-.115.018-.018.056-.026.113-.026h.043v-.089h-.04c-.103 0-.171.016-.207.046s-.052.091-.052.183v.161c0 .054-.011.094-.034.122-.023.027-.064.041-.122.041h-.076v.089h.076c.053 0 .093.017.118.049.026.032.039.071.039.116v.124c0 .092.017.152.052.183.035.031.104.046.207.046h.04v-.089h-.043c-.057 0-.095-.009-.113-.027-.018-.018-.026-.056-.026-.115v-.129c0-.07-.015-.119-.044-.146-.03-.027-.085-.045-.165-.055.082-.012.138-.029.167-.055.027-.026.041-.076.041-.148"/><path d="m48.26 51.845c.041 0 .078-.009.109-.027.031-.018.057-.044.076-.078v.087h.114v-.964h-.114v.359c-.018-.034-.043-.061-.075-.079-.032-.018-.068-.026-.11-.026-.083 0-.149.032-.198.097-.048.063-.072.152-.072.266s.024.204.072.269c.048.063.114.096.198.096m-.108-.565c.028-.045.069-.067.125-.067.055 0 .097.022.125.067.029.046.043.112.043.2s-.014.154-.043.199c-.029.046-.071.068-.125.068-.055 0-.097-.022-.125-.067s-.042-.112-.042-.2c0-.088.014-.155.042-.2"/><path d="m48.993 51.845c.053 0 .098-.01.135-.029.037-.02.067-.051.092-.092v.103h.115v-.396c0-.061-.003-.106-.01-.137-.006-.03-.018-.056-.033-.076-.025-.034-.058-.06-.099-.076-.041-.017-.09-.025-.147-.025-.037 0-.074.004-.112.012-.039.009-.079.021-.121.036v.114c.038-.021.076-.038.116-.049s.079-.017.118-.017c.061 0 .105.013.133.037.028.025.042.065.042.121v.018h-.153c-.101 0-.177.02-.229.061-.052.04-.078.099-.078.176 0 .066.021.12.063.16.041.039.097.059.168.059m-.068-.332c.034-.023.083-.034.15-.034h.038.106v.025c0 .076-.019.137-.055.18-.036.044-.085.065-.148.065-.044 0-.08-.012-.104-.034-.025-.023-.038-.056-.038-.098.001-.046.018-.081.051-.104"/><path d="m49.708 51.598c0 .084.018.144.053.178s.096.051.181.051h.14v-.091h-.129c-.048 0-.082-.01-.102-.03-.019-.02-.029-.056-.029-.107v-.376h.259v-.089h-.259v-.197h-.114v.197h-.185v.089h.185v.375"/><path d="m50.818 51.22c-.024-.034-.058-.06-.098-.076-.041-.017-.09-.025-.148-.025-.035 0-.073.004-.111.012-.039.009-.079.021-.122.036v.114c.038-.021.077-.038.116-.049s.079-.017.117-.017c.062 0 .105.013.133.037.027.025.042.065.043.121v.018h-.153c-.101 0-.177.02-.229.061-.052.04-.078.099-.078.176 0 .066.021.12.063.16.043.04.099.06.169.06.054 0 .099-.01.136-.029.036-.02.066-.051.092-.092v.103h.114v-.396c0-.061-.003-.106-.01-.137s-.018-.057-.034-.077m-.07.286c-.001.076-.02.137-.055.18-.036.044-.086.065-.148.065-.045 0-.08-.012-.104-.034-.025-.023-.038-.056-.038-.098 0-.046.018-.081.051-.104s.084-.034.15-.034h.037.107v.025"/><path d="m51.21 51.576h.219v.25h-.219z"/><path d="m52.28 51.12c-.031 0-.057.007-.078.021-.023.014-.041.036-.055.065-.012-.029-.027-.051-.049-.065-.02-.015-.047-.021-.078-.021-.025 0-.049.006-.07.02-.02.013-.037.031-.051.057v-.06h-.104v.693h.104v-.396c0-.095.006-.155.018-.18.012-.025.033-.039.064-.039.029 0 .051.012.062.035s.018.085.018.184v.396h.104v-.396c0-.095.008-.155.02-.18.012-.025.035-.039.068-.039.027 0 .047.013.059.036s.018.085.018.183v.396h.104v-.401c0-.12-.012-.201-.035-.244-.023-.043-.064-.065-.119-.065"/><path d="m52.902 51.12c-.1 0-.18.033-.238.1-.061.065-.09.154-.09.265 0 .113.029.202.092.268.061.064.145.097.252.097.037 0 .076-.005.117-.014.031-.007.062-.017.096-.029v-.109c-.033.016-.066.029-.098.038-.039.012-.078.018-.113.018-.072 0-.129-.021-.168-.062-.039-.041-.057-.108-.055-.203v-.004h.434v-.244c-.006-.01-.014-.02-.02-.028-.052-.063-.121-.093-.209-.093m-.199.274c.004-.045.021-.086.059-.122.035-.036.08-.055.135-.055.057 0 .1.018.129.053.029.034.047.076.053.124h-.376"/><path d="m46 52.941c.019.055.045.107.078.156-.002-.063-.016-.109-.044-.135-.009-.007-.021-.014-.034-.021"/><path d="m46.02 52.36c-.022.02-.036.052-.044.097v.327c0 .033.005.066.013.102.021-.008.04-.018.052-.027.029-.025.043-.074.043-.147v-.166c0-.059.009-.097.026-.114.018-.019.055-.027.113-.027h.043v-.089h-.04c-.103-.001-.172.014-.206.044"/><path d="m46.804 52.639c-.042 0-.078.009-.109.027-.032.018-.057.044-.076.078v-.089h-.114v.763l.114.066v-.223c.019.034.043.061.075.078.032.019.069.027.111.027.083 0 .149-.032.197-.097.048-.063.072-.152.072-.265 0-.115-.024-.205-.071-.27-.049-.063-.115-.095-.199-.095m.108.564c-.028.045-.069.067-.125.067s-.097-.022-.126-.067c-.028-.046-.042-.112-.042-.2s.014-.154.042-.199c.029-.046.071-.068.126-.068s.096.022.125.067c.028.045.042.112.042.2-.001.089-.015.155-.042.2"/><path d="m47.763 52.74c-.025-.033-.058-.059-.099-.076-.041-.017-.09-.025-.147-.025-.036 0-.074.004-.112.012-.039.009-.079.021-.121.036v.114c.038-.021.076-.037.116-.049.04-.011.079-.017.118-.017.061 0 .105.013.133.038.027.024.042.064.042.12v.018h-.153c-.101 0-.177.021-.229.061-.052.04-.078.099-.078.176 0 .066.021.12.063.16.042.04.099.06.169.06.053 0 .098-.01.135-.029.037-.02.068-.05.092-.092v.104h.115v-.396c0-.062-.003-.107-.01-.138-.007-.03-.018-.055-.034-.077m-.071.285c0 .077-.019.138-.055.182-.036.043-.085.065-.148.065-.044 0-.08-.012-.104-.035-.025-.023-.038-.056-.038-.097 0-.047.017-.082.051-.104.033-.023.083-.035.15-.035h.038.106v.024"/><path d="m48.45 52.919v.431h.114v-.431c0-.094-.018-.164-.052-.211-.035-.046-.087-.069-.158-.069-.048 0-.089.011-.124.03-.035.021-.062.051-.083.091v-.104h-.114v.694h.114v-.393c0-.07.015-.125.043-.162.028-.038.07-.057.123-.057.046 0 .081.014.103.043.023.031.034.076.034.138"/><path d="m49.08 52.639c-.099 0-.178.033-.238.1-.06.065-.089.154-.089.265 0 .114.03.203.091.268.061.064.145.097.253.097.037 0 .076-.004.116-.013.041-.01.083-.022.125-.04v-.113c-.044.022-.087.041-.126.052-.04.012-.078.018-.114.018-.072 0-.127-.021-.167-.062s-.058-.109-.054-.204v-.004h.494v-.056c-.003-.085-.03-.156-.082-.217-.051-.061-.121-.091-.209-.091m-.199.274c.003-.046.022-.087.058-.123s.081-.055.136-.055c.056 0 .099.018.129.053.03.034.048.076.053.124h-.376"/><path d="m49.916 53.21c-.019-.025-.028-.064-.028-.115v-.717h-.297v.089h.183v.628c0 .08.019.142.056.186.037.044.09.065.158.065h.145v-.097h-.134c-.037 0-.064-.013-.083-.039"/><path d="m50.45 53.1h.218v.25h-.218z"/><path d="m51.35 52.46h-.113v.197h-.186v.089h.186v.377c0 .083.018.143.053.177s.096.052.181.052h.14v-.091h-.131c-.048 0-.082-.011-.101-.03-.02-.021-.03-.057-.03-.107v-.377h.26v-.089h-.26v-.198z"/><path d="m52.35 52.74c-.025-.033-.059-.059-.1-.076-.041-.017-.09-.025-.146-.025-.037 0-.074.004-.113.012-.039.009-.078.021-.121.036v.114c.037-.021.076-.037.115-.049.041-.011.08-.017.119-.017.061 0 .104.013.133.038.027.024.041.064.041.12v.018h-.152c-.102 0-.178.021-.229.061-.053.04-.078.099-.078.176 0 .066.021.12.062.16.043.04.1.06.17.06.053 0 .098-.01.135-.029s.068-.05.092-.092v.104h.115v-.396c0-.062-.004-.107-.01-.138-.008-.03-.018-.055-.033-.077m-.073.285c0 .077-.018.138-.055.182-.035.043-.086.065-.148.065-.043 0-.078-.012-.104-.035s-.039-.056-.039-.097c0-.047.018-.082.051-.104.033-.023.084-.035.15-.035h.037.107v.024z"/><path d="m52.918 52.639c-.043 0-.078.009-.111.027-.031.018-.057.044-.074.078v-.358h-.115v.964h.1l.016-.009.043-.025.068-.04c.006-.003.01-.007.016-.01-.035-.009-.064-.029-.086-.062-.027-.046-.041-.112-.041-.2s.014-.154.041-.199c.029-.046.072-.068.127-.068s.096.022.125.067c.027.045.041.112.041.2 0 .007 0 .014 0 .021.039-.08.064-.165.064-.243v-.02c-.006-.009-.01-.018-.016-.026-.05-.065-.114-.097-.198-.097"/><path d="m47.524 54.01l.083.04h.031v-.139h-.114z"/><path d="m48.38 54.5l.1.06.136-.38h-.116z"/><path d="m47.976 54.18l.044.11.14.09-.07-.2z"/><path d="m49.906 54.16c-.108 0-.191.033-.252.098-.061.063-.091.153-.091.268 0 .113.03.203.091.267.061.065.144.098.252.098.034 0 .067-.005.099-.014s.063-.022.095-.04v-.118c-.027.025-.057.044-.088.057-.031.012-.066.018-.106.018-.071 0-.126-.022-.165-.069s-.058-.112-.058-.197c0-.086.02-.152.058-.199.039-.046.093-.068.165-.068.038 0 .073.005.103.018.03.012.061.031.091.058v-.119c-.032-.019-.064-.032-.096-.041-.032-.012-.065-.017-.098-.017"/><path d="m50.35 53.994h.19v.613l.112-.067v-.636h-.302z"/><path d="m51.1 54.21v.07l.203-.117c-.026.002-.055.005-.082.011-.039.008-.079.02-.121.036"/><path d="m49.551 55.51c-.167 0-.328-.04-.454-.112l-3.088-1.783c-.259-.149-.455-.487-.455-.787v-3.565c0-.299.195-.637.455-.787l3.087-1.782c.253-.146.657-.146.91 0l3.088 1.782c.258.15.453.488.453.787v3.565c0 .3-.195.638-.453.787l-3.089 1.783c-.126.072-.287.112-.454.112m0-8.287c-.063 0-.111.015-.133.026l-3.088 1.783c-.062.036-.132.158-.132.229v3.565c0 .072.071.194.132.23l3.088 1.782c.021.013.069.027.133.027s.111-.015.132-.027l3.088-1.782c.062-.036.133-.158.133-.23v-3.565c0-.071-.07-.193-.133-.229l-3.088-1.783c-.021-.012-.069-.026-.132-.026"/><path d="m92.84 45.06l-10.365-5.985c-.543-.312-1.43-.312-1.971 0l-10.365 5.985c-.543.312-.986 1.081-.986 1.707v4.487c-.035.518-.467.93-.992.93h-5.311c-.525 0-.957-.411-.992-.928v-4.489c0-.626-.443-1.395-.986-1.707l-10.366-5.985c-.542-.312-1.428-.312-1.971 0l-10.366 5.985c-.542.312-.985 1.081-.985 1.707v4.486c-.034.518-.467.931-.993.931h-5.311c-.525 0-.957-.411-.993-.928v-4.489c0-.626-.443-1.395-.985-1.707l-10.367-5.985c-.542-.312-1.428-.312-1.97 0l-10.366 5.985c-.542.312-.985 1.081-.985 1.707v11.969c0 .626.443 1.395.985 1.707l10.366 5.985c.542.312 1.429.312 1.97 0l10.367-5.986c.542-.312.985-1.081.985-1.707v-4.489c.036-.516.468-.928.993-.928h5.311c.526 0 .959.413.993.931v4.486c0 .626.443 1.395.985 1.707l10.366 5.985c.542.312 1.429.312 1.97 0l10.366-5.985c.543-.312.986-1.081.986-1.707v-4.489c.035-.516.467-.928.992-.928h5.311c.525 0 .957.412.992.93v4.487c0 .626.443 1.395.986 1.707l10.365 5.985c.541.312 1.428.312 1.971 0l10.365-5.985c.543-.312.986-1.081.986-1.707v-11.968c.001-.626-.442-1.395-.985-1.707m-64.09 13.02c0 .626-.443 1.394-.985 1.707l-9.229 5.328c-.542.312-1.428.312-1.97 0l-9.229-5.328c-.542-.313-.985-1.081-.985-1.707v-10.656c0-.625.443-1.394.985-1.706l9.229-5.328c.542-.313 1.429-.313 1.97 0l9.229 5.328c.542.312.985 1.081.985 1.706v2.107 1.657 1.563 1.563 1.657 2.109m31.969 0c0 .626-.443 1.394-.984 1.707l-9.229 5.328c-.542.312-1.428.312-1.97 0l-9.229-5.328c-.542-.313-.985-1.081-.985-1.707v-2.107-1.657c0-.548 0-1.251 0-1.563 0-.312 0-1.016 0-1.563v-1.657-2.107c0-.625.443-1.394.985-1.706l9.228-5.328c.542-.313 1.429-.313 1.971 0l9.229 5.328c.541.312.984 1.081.984 1.706v2.107 1.657 1.563 1.563 1.657 2.107m31.969 0c0 .626-.443 1.394-.984 1.707l-9.229 5.328c-.543.312-1.43.312-1.971 0l-9.229-5.328c-.543-.313-.986-1.081-.986-1.707v-2.107-1.657-1.563-1.563-1.657-2.107c0-.625.443-1.394.986-1.706l9.229-5.328c.541-.313 1.428-.313 1.971 0l9.229 5.328c.541.312.984 1.081.984 1.706v10.654"/><path d="m78.6 50.561v.191l.64.368v-.189z"/><path d="m79.43 51.23l.64.372v-.192l-.64-.37z"/><path d="m80.26 51.52v.193l.64.367v-.19z"/><path d="m78.6 52.21v.19l.64.371v-.191z"/><path d="m79.43 52.882l.64.368v-.19l-.64-.37z"/><path d="m80.26 53.17v.19l.64.371v-.191z"/><path d="m84.28 50.609v.193l-.64.368v-.191z"/><path d="m83.45 51.28l-.64.371v-.191l.64-.37z"/><path d="m82.62 51.569v.193l-.643.368v-.191z"/><path d="m84.28 52.26v.19l-.64.371v-.192z"/><path d="m83.45 52.932l-.64.368v-.19l.64-.371z"/><path d="m82.62 53.22v.19l-.643.37v-.191z"/><path d="m18.882 69.69c.826-1.196 1.242-3.03-.326-4.04-.062-.04.337-.604.321-.665l2.864-1.274c-.029.063-.202.953-.263 1.016-1.621 1.671-.83 3.777-.113 4.846h-.001c.133.173.211.379.211.604.001.655-.647 1.217-1.449 1.254s-1.451-.463-1.452-1.118c0-.226.077-.438.209-.624z"/><path d="m22.264 66.5c.598-1.014.83-2.354.193-2.486-.054-.011-.217-.901-.229-.948l1.911-.598c-.021.052.488.055.438.105-1.646 1.646-1.023 2.85-.489 3.642h-.001c.099.127.158.284.16.462.006.521-.467 1.017-1.055 1.108-.588.093-1.07-.253-1.076-.773-.002-.179.053-.354.148-.512"/><ellipse cx="20.12" cy="76.45" rx="2.559" ry=".783"/><ellipse cx="23.14" cy="75.28" rx="1.28" ry=".391"/><ellipse cx="24.283" cy="76.45" rx=".431" ry=".132"/><ellipse cx="17.13" cy="77.37" rx=".431" ry=".132"/><ellipse cx="25.15" cy="75.67" rx=".431" ry=".133"/></g></svg>