<svg xmlns="http://www.w3.org/2000/svg" viewBox="0 0 71 80" enable-background="new 0 0 71 80"><g fill="#e72f37"><path d="m33.97 43.617l-17.97-10.506v6.88c0 1.115.564 2.484 1.531 3.041l16.328 9.492c.965.559 2.488.559 3.454 0l16.186-9.492c.965-.557 1.501-1.927 1.501-3.041v-6.88l-17.857 10.506c-.966.555-2.208.555-3.173 0"/><path d="m35.501 79.41c-1.274 0-2.493-.297-3.43-.836l-28.449-16.316c-1.924-1.109-3.622-3.721-3.622-5.942v-32.626c0-2.221 1.698-4.829 3.622-5.94l28.353-16.315c.938-.541 2.204-.838 3.478-.838 1.275 0 2.516.297 3.453.838l28.462 16.314c1.922 1.111 3.632 3.722 3.632 5.941v32.627c0 2.221-1.698 4.83-3.62 5.939l-28.355 16.318c-.935.539-2.25.836-3.524.836m0-72.26c-.75 0-1.458.161-1.943.441l-25.386 14.523c-1.017.587-2.172 2.19-2.172 3.365v29.05c0 1.174 1.156 2.777 2.173 3.365l25.27 14.523c.485.279 1.25.441 2 .441.749 0 1.485-.162 1.971-.441l25.4-14.525c1.015-.585 2.185-2.189 2.185-3.363v-29.05c0-1.175-1.156-2.779-2.172-3.365l-25.27-14.523c-.486-.28-1.308-.441-2.057-.441"/></g></svg>