<svg xmlns="http://www.w3.org/2000/svg" viewBox="0 0 160 430" enable-background="new 0 0 160 430"><path fill="#e72f37" d="M0.066,429.2V56.461c0-7.819,4.728-16.01,11.5-19.917L68.535,3.651c3.262-1.882,7.345-2.918,11.499-2.918
	c4.153,0,8.239,1.037,11.499,2.919l56.973,32.893C155.272,40.454,160,48.644,160,56.461V429.2H0.066z"/><g fill="#fff"><path d="m85.41 14.752c-2.955-1.707-7.794-1.707-10.749 0l-56.54 32.646c-2.957 1.707-5.375 5.896-5.375 9.31v65.29c0 3.414 2.417 7.602 5.375 9.309l56.54 32.647c2.955 1.706 7.794 1.706 10.749 0l56.55-32.647c2.953-1.707 5.372-5.895 5.372-9.309v-65.29c0-3.414-2.419-7.603-5.372-9.31l-56.55-32.646m55.713 103.67c0 3.411-2.418 7.6-5.373 9.308l-50.34 29.06c-2.955 1.707-7.794 1.707-10.749 0l-50.34-29.06c-2.955-1.708-5.375-5.897-5.375-9.308v-58.13c0-3.411 2.419-7.603 5.375-9.309l50.34-29.06c2.955-1.709 7.794-1.709 10.749 0l50.34 29.06c2.955 1.706 5.373 5.898 5.373 9.309v58.13"/><path d="m105.31 93.48c-11.869-9.128-8.914-9.01-2.88-13.372 3.426-2.02 4.552-9.656-1.207-7.334-5.758 2.32-13.648 13.834-19.501 18.2-5.85 4.364-13.184 10.493-10.584 2.415 2.598-8.08 3.435-9.419 3.435-9.419s.324-2.801 19.04-11.569c21.894-10.258 26.854-6.839 26.302-12.735-1.07-11.458-42.27 15.988-42.27 15.988s1.579-4.086 6.314-13.187c0 0-8.821-3.438-13.277 16.993 0 0-3.806 1.872-9.206 5.942 0 0 1.753 4.434 6.14 1.858 0 0-1.885 5.079-1.757 9.945-3.167 1.808-11.945 5.797-8.108-8.089 4.643-16.81-.093-19.223-7.427-16.714-7.338 2.507-9.474 13.557-9.474 13.557s.928-12.724-8.637-8.73c0 0 4.13 1.101 4.274 11.979.184 14.208 5.481 13.292 7.147 13.931 0 0-2.136-14.09 7.243-21.546.913-.721 2.202-.586 2.229.744.058 2.642-7.176 22.842 7.522 23.864 3.165.22 5.332-1.514 6.146-4.459.785 1.742 2.144 3.144 4.371 3.812 6.489 1.946 12.831-7.504 20.508-15.993.862 2.323 3.554 4.732 8.648 8.01 10.93 7.02 13.926 13.875 11.607 19.847-2.479 6.386-10.562 10.78-15.368 4.372-3.604-4.804.841-9.689 3.55-11.871 4.101-3.307 1.698-9.171-3.428-6.611-21.265 10.618-3.982 37.07 13.157 26.715 13.241-8 13.282-22.862-4.504-36.541"/></g></svg>