<svg xmlns="http://www.w3.org/2000/svg" viewBox="0 0 92 224" enable-background="new 0 0 92 224"><path fill="#e72f37" d="m92-3v193.74c0 4.536-2.596 9.289-6.525 11.556l-32.98 19.09c-1.892 1.092-4.224 1.692-6.634 1.692-2.409 0-4.762-.602-6.653-1.693l-32.798-19.09c-3.926-2.268-6.41-7.02-6.41-11.555v-193.74h92"/><g fill="#fff"><path d="m48.877 128.2c-1.722-.993-4.54-.993-6.261 0l-33.21 19.02c-1.724.994-3.406 3.433-3.406 5.423v38.03c0 1.99 1.682 4.429 3.405 5.424l33.07 19.02c1.722.992 4.608.992 6.33 0l33-19.02c1.72-.995 3.19-3.434 3.19-5.424v-38.03c0-1.989-1.436-4.429-3.156-5.423l-32.966-19.02m32.12 60.39c0 1.988-1.243 4.428-2.965 5.423l-29.24 16.929c-1.722.993-4.499.993-6.221 0l-29.383-16.929c-1.722-.995-3.191-3.435-3.191-5.423v-33.858c0-1.988 1.489-4.43 3.211-5.423l29.364-16.93c1.722-.995 4.56-.995 6.282 0l29.17 16.93c1.722.993 2.975 3.435 2.975 5.423v33.858"/><path d="m60.47 174.06c-6.913-5.317-5.195-5.248-1.679-7.789 1.997-1.175 2.654-5.624-.7-4.271-3.357 1.351-7.954 8.06-11.36 10.601-3.408 2.542-7.681 6.112-6.167 1.405 1.515-4.705 2-5.488 2-5.488s.188-1.628 11.09-6.736c12.754-5.977 15.641-3.983 15.321-7.419-.624-6.673-24.625 9.313-24.625 9.313s.92-2.38 3.679-7.68c0 0-5.138-2-7.735 9.896 0 0-2.215 1.09-5.361 3.461 0 0 1.019 2.583 3.576 1.083 0 0-1.098 2.957-1.025 5.792-1.844 1.056-6.956 3.379-4.723-4.71 2.708-9.794-.053-11.199-4.326-9.737-4.271 1.459-5.517 7.897-5.517 7.897s.541-7.411-5.03-5.087c0 0 2.405.643 2.49 6.979.106 8.277 3.193 7.741 4.162 8.113 0 0-1.244-8.208 4.22-12.549.531-.42 1.282-.342 1.299.435.032 1.539-4.18 13.304 4.382 13.899 1.842.13 3.104-.881 3.578-2.597.458 1.015 1.248 1.829 2.545 2.219 3.779 1.135 7.476-4.37 11.946-9.313.502 1.352 2.072 2.755 5.04 4.662 6.363 4.091 8.111 8.08 6.759 11.562-1.443 3.721-6.151 6.28-8.951 2.547-2.101-2.799.488-5.645 2.065-6.917 2.392-1.923.991-5.341-1.994-3.849-12.389 6.185-2.32 21.595 7.663 15.562 7.713-4.662 7.738-13.319-2.622-21.284"/><path d="m12-3h3v102h-3z"/></g><circle fill="#e72f37" cx="13.982" cy="100.32" r="3.665"/><path fill="#fff" d="m13.982 105.5c-2.857 0-5.181-2.324-5.181-5.182 0-2.857 2.324-5.181 5.181-5.181 2.857 0 5.182 2.324 5.182 5.181 0 2.858-2.325 5.182-5.182 5.182m0-7.33c-1.185 0-2.148.964-2.148 2.148 0 1.185.964 2.148 2.148 2.148 1.185 0 2.148-.963 2.148-2.148 0-1.184-.963-2.148-2.148-2.148"/><circle fill="#e72f37" cx="13.982" cy="75.38" r="3.665"/><path fill="#fff" d="m13.982 80.56c-2.857 0-5.181-2.324-5.181-5.181s2.324-5.181 5.181-5.181c2.857 0 5.182 2.324 5.182 5.181s-2.325 5.181-5.182 5.181m0-7.329c-1.185 0-2.148.964-2.148 2.148s.964 2.148 2.148 2.148c1.185 0 2.148-.964 2.148-2.148s-.963-2.148-2.148-2.148"/><circle fill="#e72f37" cx="13.982" cy="25.499" r="3.665"/><path fill="#fff" d="m13.982 30.68c-2.857 0-5.181-2.324-5.181-5.181 0-2.857 2.324-5.182 5.181-5.182 2.857 0 5.182 2.324 5.182 5.182 0 2.856-2.325 5.181-5.182 5.181m0-7.33c-1.185 0-2.148.963-2.148 2.148 0 1.185.964 2.148 2.148 2.148 1.185 0 2.148-.963 2.148-2.148 0-1.185-.963-2.148-2.148-2.148"/><circle fill="#e72f37" cx="13.982" cy="50.44" r="3.665"/><path fill="#fff" d="m13.982 55.621c-2.857 0-5.181-2.324-5.181-5.181 0-2.857 2.324-5.182 5.181-5.182 2.857 0 5.182 2.324 5.182 5.182 0 2.856-2.325 5.181-5.182 5.181m0-7.33c-1.185 0-2.148.963-2.148 2.148 0 1.185.964 2.148 2.148 2.148 1.185 0 2.148-.964 2.148-2.148 0-1.185-.963-2.148-2.148-2.148"/></svg>