<svg xmlns="http://www.w3.org/2000/svg" viewBox="0 0 160 430" enable-background="new 0 0 160 430"><path fill="#e72f37" d="M160,0v334.434c0,7.822-4.733,16.016-11.509,19.924l-56.989,32.906c-3.262,1.883-7.347,2.92-11.503,2.92
		c-4.153,0-8.243-1.039-11.504-2.922L11.5,354.355C4.732,350.445,0,342.254,0,334.434V0H160z"/><g fill="#fff"><path d="m85.14 226.61c-2.97-1.713-7.827-1.713-10.796 0l-56.786 32.785c-2.972 1.715-5.4 5.922-5.4 9.352v65.57c0 3.432 2.428 7.637 5.4 9.352l56.786 32.789c2.969 1.709 7.826 1.709 10.796 0l56.79-32.789c2.964-1.715 5.393-5.92 5.393-9.352v-65.57c0-3.43-2.429-7.637-5.393-9.352l-56.79-32.785m55.952 104.11c0 3.428-2.428 7.635-5.396 9.35l-50.556 29.19c-2.97 1.711-7.827 1.711-10.796 0l-50.556-29.19c-2.969-1.715-5.396-5.922-5.396-9.35v-58.38c0-3.428 2.427-7.637 5.396-9.348l50.556-29.19c2.969-1.715 7.826-1.715 10.796 0l50.556 29.19c2.969 1.711 5.396 5.92 5.396 9.348v58.38"/><path d="m105.12 305.67c-11.919-9.168-8.957-9.05-2.895-13.43 3.443-2.025 4.576-9.697-1.208-7.363-5.786 2.326-13.712 13.889-19.585 18.275-5.876 4.383-13.244 10.539-10.633 2.424 2.612-8.113 3.453-9.463 3.453-9.463s.323-2.807 19.12-11.615c21.99-10.305 26.969-6.869 26.416-12.791-1.076-11.504-42.46 16.06-42.46 16.06s1.586-4.104 6.341-13.242c0 0-8.857-3.453-13.333 17.06 0 0-3.82 1.877-9.244 5.967 0 0 1.757 4.455 6.166 1.865 0 0-1.894 5.102-1.768 9.986-3.18 1.82-11.994 5.826-8.143-8.119 4.667-16.887-.092-19.309-7.459-16.789-7.364 2.516-9.512 13.617-9.512 13.617s.933-12.779-8.675-8.77c0 0 4.147 1.105 4.293 12.03.185 14.271 5.506 13.346 7.177 13.99 0 0-2.145-14.15 7.276-21.639.916-.723 2.209-.588 2.24.748.054 2.656-7.208 22.938 7.555 23.967 3.175.223 5.351-1.52 6.168-4.477.79 1.748 2.151 3.15 4.388 3.824 6.517 1.955 12.891-7.535 20.597-16.06.864 2.328 3.571 4.748 8.689 8.04 10.973 7.05 13.984 13.936 11.654 19.932-2.49 6.416-10.606 10.828-15.435 4.391-3.622-4.824.842-9.734 3.562-11.924 4.124-3.316 1.71-9.209-3.438-6.639-21.359 10.666-4 37.23 13.213 26.832 13.298-8.04 13.342-22.959-4.522-36.693"/><path d="m22.357 0h5.229v176.42h-5.229z"/></g><circle fill="#e72f37" cx="24.972" cy="178.54" r="6.319"/><path fill="#fff" d="m24.972 187.47c-4.927 0-8.934-4.01-8.934-8.934 0-4.926 4.01-8.932 8.934-8.932 4.926 0 8.934 4.01 8.934 8.932-.001 4.928-4.01 8.934-8.934 8.934m0-12.638c-2.042 0-3.704 1.661-3.704 3.704 0 2.043 1.662 3.705 3.704 3.705s3.704-1.662 3.704-3.705c0-2.042-1.662-3.704-3.704-3.704"/><circle fill="#e72f37" cx="24.972" cy="135.54" r="6.319"/><path fill="#fff" d="m24.972 144.47c-4.927 0-8.934-4.01-8.934-8.934 0-4.926 4.01-8.934 8.934-8.934 4.926 0 8.934 4.01 8.934 8.934-.001 4.927-4.01 8.934-8.934 8.934m0-12.637c-2.042 0-3.704 1.661-3.704 3.704 0 2.043 1.662 3.705 3.704 3.705s3.704-1.662 3.704-3.705c0-2.043-1.662-3.704-3.704-3.704"/><circle fill="#e72f37" cx="24.972" cy="49.53" r="6.319"/><path fill="#fff" d="m24.972 58.47c-4.927 0-8.934-4.01-8.934-8.934 0-4.926 4.01-8.933 8.934-8.933 4.926 0 8.934 4.01 8.934 8.933-.001 4.926-4.01 8.934-8.934 8.934m0-12.637c-2.042 0-3.704 1.661-3.704 3.704s1.662 3.704 3.704 3.704 3.704-1.662 3.704-3.704-1.662-3.704-3.704-3.704"/><circle fill="#e72f37" cx="24.972" cy="92.53" r="6.319"/><path fill="#fff" d="m24.972 101.47c-4.927 0-8.934-4.01-8.934-8.933s4.01-8.933 8.934-8.933c4.926 0 8.934 4.01 8.934 8.933s-4.01 8.933-8.934 8.933m0-12.637c-2.042 0-3.704 1.662-3.704 3.704 0 2.043 1.662 3.705 3.704 3.705s3.704-1.662 3.704-3.705c0-2.042-1.662-3.704-3.704-3.704"/></svg>