<svg xmlns="http://www.w3.org/2000/svg" viewBox="0 0 250 280" enable-background="new 0 0 250 280"><g fill="#e72f37"><path d="m134.69 5.601c-5.323-3.072-14.04-3.072-19.363 0l-101.86 58.808c-5.331 3.074-9.685 10.619-9.685 16.771v117.61c0 6.155 4.354 13.696 9.685 16.775l101.86 58.81c5.324 3.067 14.04 3.067 19.363 0l101.86-58.81c5.317-3.079 9.673-10.62 9.673-16.775v-117.61c0-6.152-4.355-13.697-9.673-16.771l-101.86-58.808m100.36 186.74c0 6.149-4.354 13.693-9.679 16.771l-90.68 52.35c-5.323 3.072-14.04 3.072-19.363 0l-90.68-52.35c-5.325-3.078-9.679-10.622-9.679-16.771v-104.71c0-6.149 4.354-13.696 9.679-16.768l90.68-52.36c5.324-3.079 14.04-3.079 19.363 0l90.68 52.36c5.324 3.072 9.679 10.619 9.679 16.768v104.71"/><path d="m170.54 147.42c-21.379-16.445-16.07-16.229-5.19-24.09 6.173-3.633 8.206-17.395-2.169-13.211-10.381 4.177-24.597 24.914-35.13 32.782-10.54 7.862-23.753 18.903-19.07 4.349 4.684-14.552 6.192-16.974 6.192-16.974s.581-5.03 34.29-20.832c39.441-18.484 48.37-12.32 47.38-22.944-1.93-20.634-76.15 28.804-76.15 28.804s2.847-7.361 11.377-23.751c0 0-15.889-6.195-23.919 30.605 0 0-6.853 3.371-16.58 10.705 0 0 3.15 7.987 11.06 3.346 0 0-3.395 9.147-3.169 17.913-5.704 3.264-21.512 10.448-14.606-14.566 8.371-30.29-.165-34.633-13.38-30.11-13.207 4.513-17.06 24.423-17.06 24.423s1.673-22.92-15.56-15.729c0 0 7.438 1.984 7.7 21.579.331 25.599 9.875 23.941 12.873 25.09 0 0-3.847-25.385 13.05-38.81 1.643-1.298 3.963-1.057 4.02 1.343.098 4.76-12.927 41.14 13.551 42.986 5.696.4 9.598-2.727 11.06-8.03 1.416 3.136 3.859 5.654 7.871 6.859 11.688 3.509 23.12-13.515 36.943-28.8 1.551 4.178 6.406 8.519 15.584 14.417 19.681 12.649 25.09 25 20.902 35.753-4.465 11.508-19.02 19.422-27.681 7.879-6.496-8.656 1.509-17.46 6.389-21.393 7.394-5.947 3.064-16.519-6.169-11.903-38.31 19.13-7.175 66.782 23.7 48.12 23.853-14.415 23.932-41.18-8.107-65.818"/></g></svg>