<svg xmlns="http://www.w3.org/2000/svg" viewBox="0 0 250 280" enable-background="new 0 0 250 280"><path fill="#e72f37" d="m235.56 63.858l-99.89-57.674c-5.866-3.39-15.466-3.39-21.332 0l-99.89 57.674c-5.866 3.384-10.662 11.699-10.662 18.472v115.35c0 6.773 4.796 15.08 10.662 18.472l99.89 57.675c5.866 3.384 15.465 3.384 21.332 0l99.89-57.675c5.866-3.391 10.662-11.698 10.662-18.472v-115.34c-.001-6.773-4.797-15.09-10.663-18.472m-107.2 79.36c11.604-8.668 27.26-31.512 38.699-36.11 11.429-4.608 9.189 10.551 2.389 14.554-11.979 8.657-17.832 8.418 5.718 26.534 35.29 27.14 35.21 56.626 8.933 72.5-34.01 20.557-68.31-31.938-26.11-53.01 10.172-5.079 14.94 6.565 6.794 13.12-5.375 4.332-14.193 14.02-7.03 23.562 9.537 12.714 25.574 3.996 30.491-8.677 4.609-11.846-1.346-25.454-23.03-39.38-10.11-6.498-15.457-11.28-17.17-15.883-15.23 16.838-27.822 35.592-40.696 31.725-4.42-1.326-7.11-4.104-8.672-7.555-1.614 5.839-5.912 9.283-12.189 8.846-29.17-2.031-14.819-42.11-14.926-47.35-.061-2.644-2.617-2.91-4.426-1.48-18.613 14.789-14.375 42.753-14.375 42.753-3.303-1.271-13.817.559-14.181-27.642-.289-21.586-8.481-23.772-8.481-23.772 18.982-7.921 17.14 17.329 17.14 17.329s4.245-21.934 18.794-26.904c14.558-4.981 23.96-.196 14.739 33.17-7.608 27.559 9.808 19.64 16.09 16.05-.247-9.659 3.493-19.734 3.493-19.734-8.712 5.112-12.183-3.687-12.183-3.687 10.715-8.08 18.264-11.792 18.264-11.792 8.845-40.539 26.348-33.714 26.348-33.714-9.397 18.05-12.531 26.16-12.531 26.16s81.76-54.46 83.89-31.729c1.091 11.705-8.745 4.914-52.19 25.276-37.14 17.401-37.777 22.948-37.777 22.948s-1.66 2.667-6.819 18.695c-5.165 16.04 9.393 3.875 21-4.786"/></svg>