<svg xmlns="http://www.w3.org/2000/svg" viewBox="0 0 50 50" enable-background="new 0 0 50 50"><path fill="none" stroke="#e72f37" stroke-width="2" stroke-miterlimit="10" d="m45.843 35.04c0 1.034-.733 2.309-1.63 2.826l-17.17 9.913c-.897.52-2.365.52-3.265 0l-17.17-9.913c-.899-.518-1.632-1.792-1.632-2.826v-19.828c0-1.039.732-2.309 1.632-2.828l17.17-9.915c.899-.519 2.367-.519 3.265 0l17.17 9.915c.896.519 1.63 1.789 1.63 2.828v19.828z"/><path fill="#e72f37" d="m34.19 20.708c-.646.286-1.341.481-2.066.568.742-.446 1.313-1.151 1.58-1.993-.695.413-1.463.713-2.286.874-.654-.7-1.593-1.137-2.63-1.137-1.987 0-3.6 1.612-3.6 3.6 0 .285.032.558.093.822-2.993-.152-5.646-1.584-7.424-3.764-.311.533-.487 1.152-.487 1.811 0 1.25.634 2.353 1.603 3-.591-.018-1.147-.183-1.632-.451v.044c0 1.747 1.24 3.203 2.889 3.532-.304.085-.62.128-.948.128-.233 0-.459-.022-.679-.065.458 1.431 1.789 2.474 3.365 2.501-1.233.967-2.787 1.542-4.473 1.542-.292 0-.579-.016-.86-.05 1.593 1.02 3.487 1.618 5.521 1.618 6.627 0 10.247-5.489 10.247-10.249 0-.156-.003-.312-.011-.465.704-.509 1.316-1.143 1.798-1.866"/></svg>