<svg xmlns="http://www.w3.org/2000/svg" viewBox="0 0 690 300" enable-background="new 0 0 690 300"><g fill="#e72f37"><g font-family="&apos;Helvetica-Bold&apos;" font-size="22.944"><text transform="translate(63.784 156.77)">design</text><text transform="translate(308.32 156.77)">coding</text><text transform="translate(549.66 156.77)">hosting</text></g><path d="m591.08 125.17c-.982 0-1.918-.226-2.632-.638l-23.722-13.697c-1.476-.851-2.631-2.854-2.631-4.557v-27.391c0-1.704 1.155-3.707 2.631-4.557l23.722-13.697c.714-.412 1.649-.637 2.632-.637.985 0 1.919.226 2.632.637l23.722 13.695c1.477.852 2.632 2.855 2.632 4.559v27.392c0 1.704-1.155 3.706-2.631 4.557l-23.723 13.697c-.711.411-1.646.637-2.632.637m-24.875-20.395c0 1.155.878 2.674 1.878 3.254l21.12 12.192c.479.278 1.164.435 1.877.435.715 0 1.399-.157 1.88-.435l21.12-12.192c1-.581 1.878-2.1 1.878-3.254v-5.687l-22.244 12.845c-.711.41-1.646.636-2.632.636-.983 0-1.918-.227-2.632-.638l-22.243-12.843v5.687m0-12.601c0 1.157.878 2.676 1.878 3.253l21.12 12.193c.479.28 1.164.437 1.877.437.715 0 1.399-.157 1.88-.437l21.12-12.193c1-.577 1.878-2.096 1.878-3.253v-5.685l-22.244 12.843c-.711.413-1.646.638-2.632.638-.982 0-1.918-.226-2.632-.638l-22.243-12.843v5.685m.034-12.191c.171 1.102.967 2.339 1.844 2.847l21.12 12.19c.479.279 1.164.438 1.877.438.715 0 1.399-.159 1.88-.438l21.12-12.191c.878-.507 1.673-1.743 1.843-2.846-.17-1.105-.965-2.342-1.843-2.848l-21.12-12.191c-.482-.278-1.166-.437-1.88-.437-.713 0-1.397.159-1.877.437l-21.12 12.191c-.875.508-1.673 1.744-1.842 2.848"/><path d="m100.75 126.35c-1.012 0-1.973-.232-2.703-.653l-24.621-14.216c-1.515-.872-2.701-2.928-2.701-4.677v-28.43c0-1.75 1.186-3.807 2.701-4.678l24.621-14.215c.73-.421 1.69-.654 2.703-.654 1.01 0 1.97.233 2.701.654l24.62 14.215c1.515.875 2.701 2.929 2.701 4.678v28.43c0 1.748-1.186 3.804-2.701 4.677l-24.62 14.216c-.731.42-1.691.653-2.701.653m-25.877-21.11c0 1.24.907 2.808 1.979 3.428l21.847 12.613v-25.25c0-1.125-.766-2.562-1.746-3.272l-22.08-12.745v25.23m29.954-12.637c-1.054.609-1.979 2.211-1.979 3.429v25.22l21.8-12.585c1.055-.608 1.979-2.211 1.979-3.428v-25.22l-21.8 12.585m-5.741-3.423c.418.184 1.033.302 1.667.302.748 0 1.469-.168 1.974-.46l21.801-12.586-21.801-12.584c-.505-.293-1.228-.461-1.978-.461-.752 0-1.473.168-1.98.461l-21.781 12.574 22.1 12.754"/><path d="m92.17 99.45c-1.51-3.355-2.302-11.11.495-9.166.112.077-.373-1.263-.345-1.387l-4.902-2.405c.054.166-1.068.077-.914.235 3.268 3.328 2.442 8.654 1.139 10.503h.004c-.243.286-.383.691-.383 1.198-.002 1.48 1.182 3.262 2.643 3.978 1.46.717 2.643.097 2.643-1.383 0-.507-.142-1.051-.384-1.574h.004z"/><path d="m84.9 91.46c-1.086-2.166-1.837-6.397.445-5.653.122.039-.332-1.075-.315-1.187l-3.59-1.64c.035.14-.812.325-.642.454 2.635 1.983 1.781 5.379.844 6.54l.002.001c-.174.179-.276.435-.276.76 0 .945.852 2.1 1.903 2.58 1.051.478 1.903.101 1.903-.843 0-.326-.102-.675-.275-1.013l.001.001"/><path d="m343.53 66.08c.311-.069.631-.172.962-.307v-.87c-.343.182-.669.317-.973.403-.304.089-.597.134-.876.134-.037 0-.07-.007-.106-.008l-.986.568c.318.118.679.181 1.084.181.288.001.587-.033.895-.101"/><path d="m347.87 64.44c-.272-.111-.57-.189-.879-.24v1.844h.879v-1.604"/><path d="m327.16 74.63c-.005-.101-.021-.195-.035-.292l-1.249.72h1.284v-.428"/><path d="m325.06 77.864c.289 0 .588-.035.898-.102.307-.068.629-.172.962-.308v-.869c-.345.181-.67.315-.974.403-.306.089-.597.134-.875.134-.551 0-.979-.158-1.282-.475-.074-.079-.137-.171-.193-.272l-.721.415c.076.116.153.229.247.33.466.497 1.113.744 1.938.744"/><path d="m331.25 77.864c.26 0 .514-.035.762-.102.25-.068.491-.172.725-.308v-.907c-.205.198-.429.34-.67.436-.239.092-.513.14-.817.14-.545 0-.966-.179-1.263-.535-.296-.356-.444-.863-.444-1.519 0-.659.147-1.165.443-1.519.294-.357.714-.534 1.264-.534.295 0 .559.046.791.137.233.095.465.239.697.447v-.915c-.246-.141-.493-.241-.736-.31-.245-.066-.495-.101-.751-.101-.247 0-.472.031-.686.074l-1.315.761c-.414.485-.628 1.135-.628 1.959 0 .875.233 1.561.697 2.054.464.495 1.107.742 1.931.742"/><path d="m335.6 75.971c0 .645.135 1.098.405 1.36.268.264.731.395 1.387.395h1.069v-.699h-.982c-.372 0-.631-.077-.778-.231-.15-.157-.226-.433-.226-.825v-2.888h1.987v-.68h-1.987v-1.511h-.874v1.511h-1.42v.68h1.42v2.888"/><path d="m343.15 72.42h-2.23v.68h1.36v3.95h-1.73v.68h4.34v-.68h-1.74z"/><path d="m342.28 70.36h.874v1.103h-.874z"/><path d="m348.2 77.864c.741 0 1.308-.24 1.698-.715.392-.477.583-1.169.583-2.08 0-.905-.193-1.598-.587-2.076-.391-.478-.955-.719-1.694-.719-.738 0-1.301.241-1.691.719-.39.478-.583 1.17-.583 2.076 0 .911.194 1.603.583 2.08.39.475.953.715 1.691.715m-1-4.329c.228-.345.563-.519 1-.519.448 0 .784.174 1.013.519.229.344.343.854.343 1.534 0 .675-.114 1.187-.343 1.533-.229.348-.564.521-1.013.521-.441 0-.777-.174-1-.521-.23-.346-.345-.858-.345-1.533.001-.68.115-1.19.345-1.534"/><path d="m352.94 74.72c0-.541.108-.958.331-1.248.22-.29.534-.435.941-.435.36 0 .62.112.788.337.169.225.254.575.254 1.054v3.298h.88v-3.298c0-.722-.135-1.263-.4-1.617-.27-.358-.674-.536-1.215-.536-.364 0-.681.077-.945.236-.269.156-.48.387-.634.69v-.797h-.873v5.323h.873v-3.01"/><path d="m366.41 77.864c.26 0 .514-.035.762-.102.249-.068.492-.172.726-.308v-.907c-.207.198-.429.34-.67.436-.241.092-.513.14-.817.14-.545 0-.966-.179-1.262-.535-.297-.356-.443-.863-.443-1.519 0-.336.037-.632.116-.89l-.786-.456c-.162.387-.253.829-.253 1.346 0 .875.23 1.561.696 2.054.462.494 1.108.741 1.931.741"/><path d="m320.05 84.76c-.14-.263-.332-.463-.577-.603-.239-.133-.517-.201-.829-.204v.75c.039-.001.073-.011.113-.011.423 0 .741.175.963.521.218.346.33.858.33 1.531 0 .675-.112 1.184-.33 1.533-.222.347-.54.522-.963.522-.04 0-.074-.01-.113-.012v.751c.31-.005.585-.07.823-.206.241-.138.437-.337.583-.599v.669h.875v-7.396h-.875v2.754"/><path d="m325.57 84.1h-2.23v.68h1.36v3.95h-1.74v.68h4.35v-.68h-1.74z"/><path d="m324.7 82.03h.875v1.103h-.875z"/><path d="m330.62 88.55l-1.54-4.47h-.91l1.89 5.33h1.13l1.89-5.33h-.91z"/><path d="m341.21 86.4c0-.542.112-.957.332-1.246.22-.29.535-.435.943-.435.358 0 .621.111.79.338.167.224.251.576.251 1.053v3.3h.879v-3.3c0-.719-.133-1.26-.401-1.616-.268-.358-.672-.536-1.213-.536-.366 0-.68.079-.947.233-.265.159-.477.39-.633.695v-.799h-.874v5.323h.874v-3.01"/><path d="m347.9 89.44c.347 0 .64-.071.88-.216.239-.146.431-.367.57-.666v.596.035c0 .56-.108.966-.322 1.222-.219.258-.561.387-1.033.387-.211 0-.445-.036-.699-.105-.251-.069-.533-.176-.846-.323v.865c.265.087.526.15.789.195.266.044.515.067.756.067.734 0 1.287-.208 1.664-.62.376-.409.564-1.018.564-1.814v-4.961h-.873v.688c-.148-.285-.344-.495-.58-.631-.238-.136-.529-.205-.87-.205-.62 0-1.117.25-1.486.747-.371.496-.557 1.164-.557 2 0 .834.186 1.5.557 1.995.369.497.866.744 1.486.744m-.783-4.235c.223-.342.552-.512.978-.512.41 0 .721.17.934.512.214.34.322.838.322 1.494 0 .654-.108 1.152-.322 1.498-.213.345-.522.517-.925.517-.431 0-.758-.172-.985-.515-.224-.345-.34-.845-.34-1.5-.001-.656.112-1.154.338-1.494"/><path d="m351.62 85.965h5.04v.803h-5.04z"/><path d="m361.22 83.955c-.234 0-.435.054-.602.164-.166.11-.305.277-.41.506-.089-.225-.215-.393-.374-.503-.158-.11-.361-.167-.6-.167-.201 0-.381.052-.536.15-.158.1-.288.245-.393.436v-.457h-.794v5.323h.794v-3.046c0-.729.046-1.187.134-1.382.092-.194.253-.291.486-.291.23 0 .396.087.485.265.089.177.136.646.136 1.408v3.046h.798v-3.046c0-.729.046-1.187.139-1.382.094-.194.268-.291.522-.291.22 0 .374.09.457.273.085.181.127.646.127 1.4v3.046h.797v-3.083c0-.919-.086-1.542-.263-1.872-.176-.33-.477-.497-.903-.497"/><path d="m365.78 89.54c.741 0 1.305-.237 1.694-.714.391-.478.586-1.168.586-2.081 0-.906-.195-1.594-.588-2.076-.391-.477-.954-.717-1.692-.717-.741 0-1.306.24-1.693.717-.389.482-.584 1.17-.584 2.076 0 .913.195 1.604.584 2.081.388.478.952.714 1.693.714m-1.01-4.328c.227-.346.562-.519 1.01-.519.445 0 .78.173 1.01.519.229.345.346.859.346 1.533 0 .678-.116 1.188-.346 1.534-.229.349-.564.521-1.01.521-.446 0-.782-.173-1.01-.521-.229-.346-.344-.856-.344-1.534.001-.674.116-1.188.344-1.533"/><path d="m372.79 82.01v2.752c-.138-.263-.33-.463-.574-.603-.244-.137-.526-.206-.845-.206-.639 0-1.146.247-1.516.738-.371.494-.556 1.172-.556 2.038 0 .876.183 1.564.553 2.064.37.499.878.748 1.519.748.314 0 .597-.068.838-.206.244-.138.437-.337.581-.599v.669h.775v-7.396h-.775zm-.328 6.269c-.219.347-.542.522-.963.522-.422 0-.74-.173-.954-.519-.219-.346-.324-.857-.324-1.537 0-.674.105-1.188.324-1.533.214-.346.532-.519.954-.519.421 0 .744.175.963.521.22.346.328.858.328 1.531 0 .676-.108 1.185-.328 1.534"/><path d="m324.15 98.42c.196.25.293.547.293.894v.95c0 .702.133 1.168.402 1.4.268.236.794.354 1.585.354h.305v-.684h-.335c-.441 0-.729-.067-.866-.206-.135-.136-.202-.43-.202-.884v-.993c0-.542-.115-.914-.341-1.123-.229-.208-.651-.348-1.267-.419.635-.089 1.062-.226 1.28-.417.218-.193.328-.569.328-1.125v-1.272c0-.451.067-.746.202-.885.136-.135.424-.205.866-.205h.335v-.679h-.305c-.791 0-1.318.114-1.585.349-.269.232-.402.699-.402 1.399v1.237c0 .413-.087.723-.263.935-.176.214-.489.32-.934.32h-.581v.681h.581c.408-.001.71.124.904.373"/><path d="m331.2 96.16v-1.272c0-.451.065-.746.201-.885.136-.135.425-.205.866-.205h.334v-.679h-.305c-.789 0-1.316.114-1.585.349-.269.232-.403.699-.403 1.399v1.237c0 .413-.086.723-.262.935-.177.214-.488.32-.933.32h-.581v.681h.581c.408 0 .709.125.903.374.196.25.292.547.292.894v.95c0 .702.134 1.168.403 1.4.269.236.796.354 1.585.354h.305v-.684h-.334c-.44 0-.73-.067-.866-.206-.136-.136-.201-.43-.201-.884v-.993c0-.542-.116-.914-.344-1.123-.228-.208-.649-.348-1.262-.419.633-.089 1.058-.226 1.278-.417.218-.194.328-.57.328-1.126"/><path d="m336.21 101.22c.316 0 .595-.071.837-.208.242-.136.437-.337.581-.6v.669h.877v-7.393h-.877v2.75c-.139-.262-.33-.464-.574-.601-.243-.138-.524-.206-.844-.206-.642 0-1.145.244-1.517.739-.371.492-.556 1.17-.556 2.037 0 .876.185 1.565.556 2.066.367.498.873.747 1.517.747m-.827-4.329c.214-.346.532-.519.955-.519.419 0 .741.175.961.521.222.346.33.858.33 1.532 0 .672-.108 1.181-.33 1.53-.22.349-.542.523-.961.523-.423 0-.741-.172-.955-.518-.216-.345-.324-.858-.324-1.535.001-.678.108-1.191.324-1.534"/><path d="m341.83 101.22c.406 0 .749-.075 1.033-.226.282-.15.518-.386.707-.703v.79h.879v-3.036c0-.466-.025-.815-.076-1.049-.051-.232-.137-.427-.256-.586-.194-.259-.446-.453-.759-.585-.312-.128-.688-.193-1.129-.193-.279 0-.565.03-.862.094-.295.061-.605.152-.929.276v.874c.287-.166.585-.29.889-.375.305-.085.605-.128.902-.128.468 0 .804.097 1.02.288.211.19.318.5.322.923v.138h-1.174c-.77 0-1.354.152-1.75.462-.398.307-.598.757-.598 1.352 0 .512.162.919.486 1.225.32.306.753.459 1.295.459m-.52-2.545c.257-.18.64-.268 1.15-.268h.29.819v.196c-.004.587-.143 1.049-.418 1.383-.275.333-.655.5-1.135.5-.344 0-.61-.087-.804-.265-.192-.178-.289-.428-.289-.746-.001-.354.128-.622.387-.8"/><path d="m347.32 99.33c0 .644.134 1.096.402 1.358.27.266.732.395 1.386.395h1.073v-.698h-.986c-.371 0-.629-.077-.779-.233-.148-.154-.223-.428-.223-.822v-2.889h1.988v-.68h-1.988v-1.511h-.873v1.511h-1.422v.68h1.422v2.889"/><path d="m355.83 96.42c-.192-.259-.446-.453-.758-.585-.313-.128-.688-.193-1.129-.193-.278 0-.565.03-.861.094-.299.061-.605.152-.933.276v.874c.292-.166.587-.29.89-.375.305-.085.605-.128.904-.128.466 0 .805.097 1.016.288.212.19.32.5.323.923v.138h-1.174c-.769 0-1.353.152-1.75.462-.399.307-.599.757-.599 1.352 0 .512.164.919.486 1.225.322.308.756.46 1.296.46.406 0 .75-.075 1.034-.226s.521-.386.706-.703v.79h.882v-3.036c0-.466-.028-.815-.078-1.049-.048-.233-.134-.429-.255-.587m-.548 2.192c-.003.587-.144 1.049-.419 1.383-.274.333-.652.5-1.134.5-.344 0-.612-.087-.803-.265-.194-.178-.29-.428-.29-.746 0-.355.129-.623.387-.801.256-.18.644-.268 1.153-.268h.289.816v.197z"/><path d="m358.84 99.17h1.674v1.919h-1.674z"/><path d="m367.08 95.64c-.234 0-.435.054-.603.161-.167.111-.302.279-.41.508-.089-.225-.212-.392-.371-.506-.161-.109-.362-.163-.603-.163-.201 0-.377.048-.536.149-.155.099-.287.243-.393.435v-.458h-.793v5.322h.793v-3.044c0-.728.046-1.188.136-1.381.092-.195.252-.294.484-.294s.396.09.486.266c.09.178.137.648.137 1.409v3.044h.798v-3.044c0-.728.046-1.188.139-1.381.095-.195.267-.294.521-.294.22 0 .373.092.459.275.083.181.128.647.128 1.4v3.044h.797v-3.084c0-.916-.09-1.538-.267-1.87-.172-.331-.475-.494-.902-.494"/><path d="m371.81 95.64c-.763 0-1.371.253-1.828.761-.456.505-.682 1.184-.682 2.032 0 .873.23 1.555.697 2.053.466.495 1.112.742 1.938.742.29 0 .588-.035.898-.104.234-.052.482-.13.732-.224v-.843c-.258.125-.512.228-.745.296-.304.089-.596.132-.873.132-.553 0-.98-.158-1.283-.476-.303-.316-.441-.836-.416-1.565v-.026h3.317v-1.874c-.049-.075-.097-.148-.152-.218-.392-.457-.928-.686-1.603-.686m-1.528 2.101c.027-.349.173-.663.448-.942.271-.278.618-.418 1.04-.418.43 0 .76.133.988.402.23.267.365.583.404.953l-2.88.005"/><path d="m318.88 109.64c.142.415.346.821.594 1.197-.013-.49-.123-.839-.337-1.033-.068-.061-.156-.114-.257-.164"/><path d="m318.99 105.15c-.171.148-.28.4-.343.739v2.512c0 .252.042.513.102.779.168-.062.309-.133.399-.213.22-.192.327-.567.327-1.125v-1.275c0-.448.07-.743.203-.88.135-.139.424-.208.868-.208h.332v-.68h-.303c-.791 0-1.319.117-1.585.351"/><path d="m325.04 107.32c-.317 0-.595.066-.839.207-.242.138-.437.339-.581.598v-.679h-.879v5.851l.879.508v-1.704c.139.262.33.461.572.6.243.14.526.207.848.207.641 0 1.144-.245 1.512-.74.367-.49.552-1.172.552-2.035 0-.883-.185-1.572-.55-2.067-.366-.499-.872-.746-1.514-.746m.826 4.329c-.216.343-.532.518-.955.518-.424 0-.745-.175-.965-.522-.218-.35-.326-.859-.326-1.53 0-.676.108-1.186.326-1.534.221-.346.542-.52.965-.52.422 0 .739.172.955.517.213.348.32.86.32 1.537 0 .676-.107 1.188-.32 1.534"/><path d="m332.39 108.09c-.194-.259-.446-.454-.759-.587-.312-.127-.687-.191-1.129-.191-.278 0-.567.031-.862.09-.297.063-.606.156-.929.277v.875c.289-.165.584-.289.889-.374.304-.086.604-.129.902-.129.466 0 .806.096 1.018.287.212.192.319.5.322.923v.141h-1.172c-.77 0-1.354.151-1.753.461-.398.306-.596.755-.596 1.349 0 .512.162.922.486 1.228.323.305.756.458 1.295.458.409 0 .751-.075 1.035-.225.286-.15.521-.385.706-.702v.789h.881v-3.036c0-.468-.026-.817-.077-1.05-.051-.229-.138-.424-.257-.584m-.549 2.19c-.002.59-.143 1.051-.418 1.387-.275.333-.653.501-1.135.501-.342 0-.611-.089-.803-.265-.193-.18-.291-.429-.291-.746 0-.357.13-.623.389-.802.257-.178.643-.269 1.152-.269h.29.816v.194"/><path d="m337.67 109.47v3.298h.88v-3.298c0-.723-.135-1.262-.403-1.619-.267-.356-.671-.533-1.215-.533-.364 0-.678.077-.945.233-.266.156-.476.39-.631.692v-.8h-.874v5.324h.874v-3.01c0-.542.11-.956.33-1.245.22-.292.536-.436.944-.436.357 0 .619.111.789.335.167.227.251.579.251 1.058"/><path d="m342.51 107.32c-.76 0-1.369.253-1.826.759-.455.506-.684 1.184-.684 2.034 0 .873.233 1.554.7 2.051.467.496 1.11.743 1.939.743.287 0 .586-.033.894-.102.311-.068.631-.171.962-.306v-.87c-.343.179-.669.314-.973.401-.304.09-.597.135-.876.135-.55 0-.978-.158-1.28-.475-.303-.317-.441-.837-.415-1.566v-.027h3.787v-.427c-.025-.652-.234-1.204-.625-1.664-.39-.459-.924-.686-1.603-.686m-1.525 2.1c.025-.349.174-.661.445-.941.274-.277.619-.418 1.041-.418.432 0 .762.134.991.402.23.265.364.585.403.953l-2.88.004"/><path d="m348.91 111.73c-.143-.198-.218-.496-.218-.889v-5.497h-2.275v.683h1.401v4.814c0 .615.142 1.088.432 1.425.285.334.69.5 1.213.5h1.106v-.738h-1.021c-.282.001-.493-.099-.638-.298"/><path d="m352.98 110.85h1.673v1.92h-1.673z"/><path d="m359.91 105.93h-.874v1.51h-1.421v.679h1.421v2.892c0 .642.134 1.096.405 1.36.268.262.731.393 1.387.393h1.07v-.697h-.985c-.371 0-.63-.08-.777-.233-.151-.156-.226-.43-.226-.822v-2.892h1.988v-.679h-1.988v-1.511"/><path d="m367.56 108.09c-.196-.259-.449-.454-.762-.587-.312-.127-.687-.191-1.128-.191-.277 0-.565.031-.861.09-.295.063-.607.156-.93.277v.875c.288-.165.584-.289.887-.374.307-.086.606-.129.904-.129.467 0 .804.096 1.019.287.209.192.32.5.323.923v.141h-1.176c-.769 0-1.354.151-1.751.461-.396.306-.596.755-.596 1.349 0 .512.16.922.486 1.228.32.305.752.458 1.296.458.406 0 .749-.075 1.032-.225.283-.15.52-.385.708-.702v.789h.879v-3.036c0-.468-.025-.817-.077-1.05-.049-.229-.135-.424-.253-.584m-.548 2.19c-.003.59-.144 1.051-.42 1.387-.274.333-.653.501-1.136.501-.341 0-.606-.089-.802-.265-.194-.18-.289-.429-.289-.746 0-.357.127-.623.387-.802.257-.178.643-.269 1.151-.269h.289.819v.194z"/><path d="m371.93 107.32c-.322 0-.605.066-.852.209-.245.136-.438.338-.577.596v-2.75h-.875v7.395h.761l.114-.067.336-.192.529-.307c.039-.023.074-.054.111-.077-.271-.068-.487-.226-.648-.482-.221-.35-.328-.859-.328-1.53 0-.676.107-1.186.328-1.534.217-.346.539-.52.964-.52.423 0 .741.172.955.517.215.348.324.86.324 1.537 0 .055-.008.106-.008.158.305-.612.496-1.266.496-1.866v-.15c-.041-.065-.073-.139-.117-.198-.369-.493-.869-.739-1.513-.739"/><path d="m330.56 117.81l.63.37h.25v-1.1h-.88z"/><path d="m337.16 121.63l.74.42 1.04-2.93h-.91z"/><path d="m334.03 119.12l.31.87 1.12.65-.52-1.52z"/><path d="m348.83 119c-.824 0-1.467.249-1.933.742-.463.494-.696 1.179-.696 2.055 0 .873.233 1.559.696 2.049.466.498 1.108.746 1.933.746.259 0 .515-.036.762-.103.247-.069.491-.173.727-.309v-.908c-.206.197-.432.342-.672.435-.241.095-.512.139-.816.139-.547 0-.965-.175-1.262-.533-.295-.357-.443-.863-.443-1.516 0-.66.148-1.167.441-1.523.295-.354.715-.532 1.264-.532.294 0 .558.045.793.139.231.088.464.239.695.443v-.916c-.246-.141-.493-.243-.736-.311-.247-.064-.495-.097-.753-.097"/><path d="m352.27 117.71h1.41v4.71l.87-.51v-4.89h-2.28z"/><path d="m358.01 119.37v.544l1.563-.904c-.206.014-.419.037-.633.082-.298.06-.606.155-.93.278"/><path d="m346.11 129.35c-1.278 0-2.516-.308-3.484-.868l-23.687-13.674c-1.987-1.147-3.485-3.742-3.485-6.04v-27.35c0-2.293 1.498-4.888 3.485-6.03l23.686-13.676c1.941-1.119 5.04-1.118 6.971.001l23.685 13.675c1.987 1.147 3.485 3.742 3.485 6.03v27.351c0 2.294-1.498 4.889-3.485 6.04l-23.687 13.673c-.965.56-2.203.868-3.484.868m0-63.57c-.488 0-.854.11-1.019.205l-23.684 13.676c-.475.275-1.018 1.212-1.018 1.761v27.351c0 .549.543 1.487 1.018 1.763l23.685 13.674c.164.094.53.206 1.018.206.486 0 .852-.111 1.015-.205l23.688-13.675c.476-.275 1.018-1.214 1.018-1.763v-27.351c0-.549-.542-1.486-1.018-1.761l-23.686-13.676c-.165-.096-.53-.205-1.017-.205"/><path d="m678.15 49.16l-79.52-45.909c-4.156-2.4-10.957-2.4-15.12 0l-79.51 45.909c-4.158 2.399-7.557 8.289-7.557 13.09v34.421c-.264 3.968-3.584 7.133-7.615 7.133h-40.736c-4.02 0-7.342-3.158-7.613-7.117v-34.437c0-4.802-3.4-10.691-7.557-13.09l-79.51-45.909c-4.157-2.4-10.958-2.4-15.12 0l-79.51 45.909c-4.156 2.399-7.557 8.289-7.557 13.09v34.415c-.26 3.97-3.581 7.141-7.615 7.141h-40.734c-4.03 0-7.342-3.157-7.613-7.117v-34.439c0-4.802-3.4-10.691-7.557-13.09l-79.52-45.909c-4.156-2.4-10.958-2.4-15.11 0l-79.51 45.909c-4.156 2.399-7.557 8.289-7.557 13.09v91.81c0 4.8 3.401 10.692 7.557 13.09l79.52 45.91c4.156 2.398 10.958 2.398 15.11 0l79.52-45.91c4.156-2.398 7.557-8.291 7.557-13.09v-34.438c.271-3.958 3.588-7.117 7.613-7.117h40.734c4.03 0 7.355 3.17 7.615 7.141v34.414c0 4.8 3.4 10.692 7.557 13.09l79.52 45.91c4.156 2.398 10.957 2.398 15.11 0l79.51-45.91c4.156-2.398 7.557-8.291 7.557-13.09v-34.438c.271-3.958 3.588-7.117 7.613-7.117h40.736c4.03 0 7.352 3.166 7.615 7.133v34.421c0 4.8 3.398 10.692 7.557 13.09l79.52 45.91c4.156 2.398 10.957 2.398 15.11 0l79.52-45.91c4.155-2.398 7.556-8.291 7.556-13.09v-91.81c-.002-4.801-3.402-10.691-7.558-13.09m-491.61 99.87c0 4.799-3.4 10.689-7.557 13.09l-70.789 40.871c-4.156 2.398-10.958 2.398-15.11 0l-70.789-40.871c-4.156-2.401-7.558-8.292-7.558-13.09v-81.74c0-4.797 3.402-10.69 7.558-13.09l70.788-40.866c4.157-2.402 10.958-2.402 15.11 0l70.789 40.866c4.156 2.4 7.557 8.293 7.557 13.09v16.17 12.712 11.989 11.991 12.713 16.17m245.22 0c0 4.799-3.401 10.689-7.559 13.09l-70.787 40.871c-4.157 2.398-10.958 2.398-15.11 0l-70.788-40.871c-4.156-2.401-7.559-8.292-7.559-13.09v-16.16-12.713c0-4.201 0-9.597 0-11.991 0-2.394 0-7.788 0-11.989v-12.713-16.17c0-4.797 3.403-10.69 7.559-13.09l70.786-40.866c4.158-2.402 10.959-2.402 15.12 0l70.787 40.866c4.157 2.4 7.559 8.293 7.559 13.09v16.17 12.714 11.988 11.991 12.712 16.17m245.22 0c0 4.799-3.4 10.689-7.556 13.09l-70.79 40.871c-4.156 2.398-10.957 2.398-15.11 0l-70.79-40.871c-4.156-2.401-7.557-8.292-7.557-13.09v-16.17-12.712-11.991-11.989-12.713-16.17c0-4.797 3.4-10.69 7.557-13.09l70.788-40.866c4.158-2.402 10.959-2.402 15.12 0l70.79 40.866c4.155 2.4 7.556 8.293 7.556 13.09v81.74"/><path d="m568.91 91.37v1.48l4.91 2.83v-1.47z"/><path d="m575.29 96.53l4.91 2.83v-1.47l-4.91-2.83z"/><path d="m581.66 98.73v1.48l4.91 2.83v-1.47z"/><path d="m568.91 104.03v1.47l4.91 2.83v-1.47z"/><path d="m575.29 109.18l4.91 2.83v-1.47l-4.91-2.83z"/><path d="m581.66 111.39v1.47l4.91 2.84v-1.48z"/><path d="m612.5 91.75v1.47l-4.91 2.84v-1.47z"/><path d="m606.12 96.9l-4.91 2.84v-1.47l4.91-2.84z"/><path d="m599.74 99.11v1.48l-4.9 2.83-.01-1.47z"/><path d="m612.5 104.4v1.48l-4.91 2.83v-1.47z"/><path d="m606.12 109.56l-4.91 2.83v-1.47l4.91-2.84z"/><path d="m599.74 111.77v1.47l-4.9 2.83-.01-1.47z"/><path d="m110.86 238.08c6.336-9.175 9.524-23.22-2.5-30.971-.474-.306 2.583-4.638 2.464-5.099l21.968-9.772c-.224.481-1.548 7.306-2.01 7.787-12.433 12.82-6.365 28.979-.871 37.17l-.011-.001c1.018 1.328 1.618 2.906 1.62 4.63.009 5.03-4.968 9.33-11.11 9.615-6.144.291-11.127-3.55-11.135-8.574-.002-1.728.594-3.359 1.608-4.782l-.014-.003"/><path d="m136.8 213.63c4.588-7.777 6.364-18.07 1.479-19.07-.417-.084-1.668-6.92-1.757-7.277l14.66-4.584c-.162.4 3.742.423 3.36.806-12.629 12.626-7.849 21.862-3.748 27.934h-.008c.758.975 1.211 2.181 1.225 3.548.046 3.99-3.58 7.797-8.096 8.504-4.514.712-8.206-1.946-8.25-5.934-.015-1.372.41-2.716 1.145-3.924l-.01-.002"/><ellipse cx="120.39" cy="289.97" rx="19.63" ry="6.01"/><ellipse cx="143.56" cy="280.95" rx="9.815" ry="3"/><ellipse cx="152.29" cy="289.97" rx="3.309" ry="1.012"/><ellipse cx="97.44" cy="296.99" rx="3.309" ry="1.013"/><ellipse cx="158.91" cy="283.96" rx="3.309" ry="1.014"/></g></svg>