<svg xmlns="http://www.w3.org/2000/svg" viewBox="0.395 85.308 44.33 19.348" enable-background="new 0.395 85.308 44.33 19.348"><g fill="#e72f37"><g enable-background="new    "><path d="m5.67 94.79c.035.02.064.048.086.083v-.359h.199v1.017h-.191v-.104c-.028.044-.06.078-.096.098-.036.021-.081.03-.134.03-.088 0-.162-.036-.222-.107-.061-.07-.091-.164-.091-.274 0-.128.03-.229.089-.303.059-.073.138-.11.237-.11.047-.001.088.009.123.029m.048.536c.028-.042.043-.096.043-.161 0-.092-.022-.158-.069-.197-.029-.023-.061-.036-.1-.036-.057 0-.099.021-.126.065-.026.043-.041.097-.041.161 0 .07.014.126.041.167.028.042.069.062.125.062.056.001.099-.019.127-.061"/><path d="m6.625 94.79c.053.023.096.061.131.111.03.045.051.098.06.156.004.035.007.084.006.149h-.549c.003.076.029.129.078.159.031.019.067.028.109.028.045 0 .081-.011.109-.034.015-.013.029-.03.041-.053h.201c-.005.045-.03.09-.073.137-.067.073-.161.109-.282.109-.101 0-.189-.031-.266-.092-.076-.062-.115-.163-.115-.302 0-.13.035-.23.104-.299.069-.069.159-.104.27-.104.064 0 .123.011.176.035m-.295.17c-.027.029-.045.068-.053.117h.339c-.004-.052-.021-.091-.053-.119-.031-.026-.07-.041-.117-.041-.048 0-.088.015-.116.043"/><path d="m7.07 95.29c.003.035.013.06.026.075.024.026.07.039.137.039.039 0 .07-.005.092-.017.022-.01.034-.028.034-.051 0-.022-.009-.04-.027-.052-.018-.011-.086-.031-.206-.058-.085-.021-.146-.048-.18-.079-.035-.031-.052-.076-.052-.136 0-.069.027-.13.081-.179.055-.05.132-.075.231-.075.094 0 .171.019.23.057.059.038.094.103.102.195h-.197c-.003-.025-.01-.045-.022-.06-.021-.026-.058-.04-.11-.04-.042 0-.074.007-.092.02-.018.014-.027.029-.027.047 0 .023.009.039.029.049.021.01.089.029.206.055.078.019.138.046.176.083.039.038.059.085.059.142 0 .076-.027.137-.083.182-.056.048-.141.072-.257.072-.119 0-.206-.024-.263-.075-.057-.05-.084-.114-.084-.191h.198v-.003z"/><path d="m7.91 94.69h-.2v-.182h.2v.182m-.2.09h.2v.752h-.2v-.752"/><path d="m8.472 94.77c.047.02.085.057.116.109v-.108h.192v.713c0 .099-.017.171-.049.22-.057.085-.164.128-.323.128-.096 0-.175-.021-.235-.059-.06-.036-.094-.095-.1-.169h.214c.006.023.014.039.026.051.021.019.057.025.106.025.071 0 .118-.023.142-.07.016-.03.023-.081.023-.153v-.049c-.019.033-.04.056-.06.073-.04.031-.09.045-.152.045-.098 0-.174-.035-.231-.102-.059-.068-.087-.16-.087-.276 0-.111.027-.206.083-.282s.134-.114.236-.114c.038.001.07.007.099.018m.067.539c.032-.035.047-.089.047-.166 0-.072-.015-.126-.045-.163-.03-.037-.07-.056-.12-.056-.069 0-.116.032-.143.098-.014.034-.02.077-.02.127 0 .043.007.083.022.117.027.064.075.097.143.097.046 0 .084-.018.116-.054"/><path d="m9.569 94.82c.049.041.073.108.073.202v.507h-.2v-.458c0-.04-.005-.07-.017-.092-.019-.039-.055-.057-.109-.057-.066 0-.112.028-.137.084-.014.03-.02.068-.02.114v.408h-.195v-.751h.191v.109c.025-.038.048-.065.071-.083.04-.03.092-.045.153-.045.078.001.141.021.19.062"/><path d="m20.785 95.05c-.004-.028-.014-.054-.029-.076-.021-.03-.056-.045-.103-.045-.066 0-.112.033-.137.098-.013.035-.02.082-.02.139 0 .056.007.1.02.133.023.062.068.094.133.094.046 0 .078-.012.098-.037.02-.026.031-.058.036-.098h.201c-.005.06-.027.117-.065.171-.062.085-.154.128-.274.128-.122 0-.211-.036-.268-.107-.057-.073-.086-.165-.086-.279 0-.129.032-.229.094-.301.064-.072.151-.107.262-.107.095 0 .172.021.232.063.06.042.096.117.107.225h-.201"/><path d="m21.749 95.44c-.063.079-.16.118-.289.118s-.225-.039-.29-.118c-.063-.079-.095-.173-.095-.283 0-.108.032-.202.095-.283.064-.079.16-.119.29-.119s.226.04.289.119c.063.08.095.174.095.283 0 .11-.032.203-.095.283m-.158-.109c.031-.04.046-.1.046-.175s-.015-.133-.046-.174c-.031-.041-.076-.061-.132-.061-.058 0-.102.02-.133.061s-.046.098-.046.174c0 .076.015.133.046.175.031.041.075.061.133.061s.101-.02.132-.061"/><path d="m22.384 94.79c.036.02.064.048.086.083v-.359h.199v1.017h-.19v-.104c-.028.044-.06.078-.096.098-.037.021-.081.03-.134.03-.088 0-.161-.036-.222-.107-.061-.07-.091-.164-.091-.274 0-.128.029-.229.089-.303.059-.073.138-.11.237-.11.045-.001.085.009.122.029m.047.536c.029-.042.044-.096.044-.161 0-.092-.023-.158-.07-.197-.028-.023-.062-.036-.1-.036-.057 0-.099.021-.126.065-.028.043-.041.097-.041.161 0 .07.014.126.041.167.027.042.069.062.125.062.057.001.099-.019.127-.061"/><path d="m23.05 94.69h-.199v-.182h.199v.182m-.199.09h.199v.752h-.199v-.752"/><path d="m23.848 94.82c.049.041.073.108.073.202v.507h-.201v-.458c0-.04-.005-.07-.017-.092-.02-.039-.057-.057-.11-.057-.064 0-.11.028-.136.084-.013.03-.021.068-.021.114v.408h-.195v-.751h.189v.109c.025-.038.049-.065.072-.083.039-.03.09-.045.153-.045.081.001.144.021.193.062"/><path d="m24.477 94.77c.047.02.086.057.115.109v-.108h.192v.713c0 .099-.017.171-.048.22-.059.085-.164.128-.325.128-.097 0-.175-.021-.234-.059-.062-.036-.095-.095-.101-.169h.215c.006.023.013.039.025.051.021.019.058.025.106.025.072 0 .12-.023.144-.07.016-.03.022-.081.022-.153v-.049c-.019.033-.039.056-.06.073-.04.031-.092.045-.153.045-.098 0-.175-.035-.231-.102-.059-.068-.086-.16-.086-.276 0-.111.026-.206.083-.282.055-.075.134-.114.236-.114.037.001.07.007.1.018m.067.539c.032-.035.047-.089.047-.166 0-.072-.015-.126-.045-.163-.029-.037-.07-.056-.121-.056-.068 0-.116.032-.143.098-.014.034-.02.077-.02.127 0 .043.008.083.021.117.027.064.074.097.144.097.047 0 .086-.018.117-.054"/><path d="m35.744 94.78c.036.016.067.041.093.073.02.028.032.058.038.087.005.03.007.078.007.145v.443h-.201v-.458c0-.041-.007-.074-.02-.098-.019-.035-.053-.053-.102-.053-.052 0-.09.018-.116.052-.027.035-.04.084-.04.149v.409h-.198v-1.014h.198v.359c.027-.043.061-.075.097-.091.038-.019.078-.026.118-.026.045-.001.087.006.126.023"/><path d="m36.692 95.44c-.063.079-.159.118-.288.118-.13 0-.227-.039-.29-.118s-.095-.173-.095-.283c0-.108.03-.202.095-.283.063-.079.16-.119.29-.119.129 0 .224.04.288.119.064.08.097.174.097.283 0 .11-.031.203-.097.283m-.157-.109c.031-.04.046-.1.046-.175s-.015-.133-.046-.174c-.03-.041-.075-.061-.132-.061-.06 0-.103.02-.134.061-.03.041-.048.098-.048.174 0 .076.018.133.048.175.029.041.074.061.134.061.057 0 .102-.02.132-.061"/><path d="m37.08 95.29c.006.035.013.06.027.075.023.026.069.039.137.039.038 0 .067-.005.092-.017.022-.01.033-.028.033-.051 0-.022-.009-.04-.027-.052-.017-.011-.087-.031-.204-.058-.086-.021-.146-.048-.18-.079s-.054-.076-.054-.136c0-.069.025-.13.082-.179.055-.05.132-.075.23-.075.095 0 .171.019.23.057.058.038.093.103.102.195h-.198c-.002-.025-.01-.045-.021-.06-.021-.026-.059-.04-.11-.04-.044 0-.073.007-.093.02-.018.014-.026.029-.026.047 0 .023.01.039.028.049.02.01.089.029.206.055.079.019.139.046.177.083.039.038.059.085.059.142 0 .076-.027.137-.083.182-.055.047-.143.072-.259.072-.117 0-.205-.024-.262-.075-.057-.05-.084-.114-.084-.191h.197v-.003z"/><path d="m37.638 94.92v-.14h.104v-.21h.194v.209h.121v.14h-.12v.397c0 .03.004.049.011.058.01.007.033.01.072.01.007 0 .013 0 .021 0 .007 0 .013 0 .02-.001v.148l-.092.003c-.096.003-.158-.013-.191-.049-.022-.023-.033-.057-.033-.104v-.463h-.107"/><path d="m38.39 94.69h-.199v-.182h.199v.182m-.2.09h.199v.752h-.199v-.752"/><path d="m39.19 94.82c.05.041.074.108.074.202v.507h-.201v-.458c0-.04-.005-.07-.017-.092-.021-.039-.056-.057-.109-.057-.066 0-.111.028-.138.084-.014.03-.02.068-.02.114v.408h-.195v-.751h.192v.109c.023-.038.048-.065.07-.083.04-.03.092-.045.153-.045.078.001.141.021.191.062"/><path d="m39.813 94.77c.049.02.087.057.117.109v-.108h.191v.713c0 .099-.018.171-.05.22-.057.085-.163.128-.323.128-.098 0-.175-.021-.235-.059-.061-.036-.094-.095-.101-.169h.214c.006.023.016.039.027.051.021.019.058.025.108.025.07 0 .118-.023.141-.07.016-.03.023-.081.023-.153v-.049c-.021.033-.04.056-.062.073-.039.031-.089.045-.15.045-.099 0-.176-.035-.233-.102-.057-.066-.086-.16-.086-.276 0-.111.027-.206.084-.282.055-.076.134-.114.237-.114.039.001.071.007.098.018m.068.539c.033-.035.048-.089.048-.166 0-.072-.015-.126-.044-.163-.03-.038-.071-.056-.122-.056-.069 0-.117.032-.144.098-.012.034-.02.077-.02.127 0 .043.008.083.021.117.026.064.074.097.144.097.048 0 .087-.018.117-.054"/></g><path d="m37.663 93.58c-.061 0-.118-.014-.162-.04l-1.461-.843c-.091-.053-.163-.177-.163-.281v-1.687c0-.105.072-.229.163-.281l1.461-.843c.044-.025.102-.04.162-.04s.117.015.162.04l1.462.843c.089.053.162.176.162.281v1.687c0 .104-.073.229-.162.281l-1.462.843c-.045.026-.101.04-.162.04m-1.533-1.256c0 .071.056.165.116.2l1.301.751c.029.017.071.026.116.026.044 0 .087-.009.115-.026l1.302-.751c.061-.036.116-.129.116-.2v-.35l-1.371.792c-.045.024-.102.04-.162.04s-.118-.014-.162-.04l-1.37-.791-.001.349m.001-.777c0 .072.056.165.116.2l1.301.751c.029.017.071.026.116.026s.087-.009.115-.026l1.302-.751c.062-.036.116-.13.116-.2v-.35l-1.37.792c-.046.026-.102.04-.163.04s-.118-.014-.162-.04l-1.371-.792v.35m.002-.751c.012.068.061.145.114.176l1.302.751c.029.017.07.026.115.026s.087-.01.115-.026l1.302-.751c.054-.031.103-.107.113-.176-.011-.068-.06-.145-.113-.176l-1.302-.75c-.028-.018-.07-.028-.115-.028s-.086.01-.115.028l-1.302.75c-.054.032-.104.108-.114.176"/><path d="m7.457 93.66c-.062 0-.122-.015-.166-.04l-1.517-.876c-.094-.054-.167-.181-.167-.288v-1.751c0-.107.074-.234.167-.288l1.517-.876c.044-.025.104-.04.166-.04s.122.016.166.041l1.518.876c.093.054.166.18.166.288v1.751c0 .107-.073.234-.166.288l-1.518.876c-.044.024-.103.039-.166.039m-1.595-1.301c0 .077.057.173.122.211l1.346.776v-1.555c0-.07-.047-.158-.107-.201l-1.361-.786v1.555m1.845-.778c-.065.038-.122.137-.122.211v1.554l1.343-.775c.066-.038.122-.136.122-.211v-1.554l-1.343.775m-.353-.211c.026.011.063.019.103.019.046 0 .091-.01.123-.029l1.343-.775-1.343-.776c-.032-.017-.077-.028-.123-.028-.046 0-.091.011-.122.028l-1.341.775 1.36.786"/><path d="m6.927 92c-.093-.208-.141-.685.031-.565.006.005-.022-.078-.021-.085l-.302-.148c.002.01-.067.004-.057.014.201.205.149.532.069.647-.015.018-.024.042-.024.073 0 .092.073.202.163.245.09.043.163.005.163-.085.002-.031-.008-.065-.022-.096"/><path d="m6.48 91.5c-.067-.134-.114-.394.027-.349.008.002-.02-.066-.02-.074l-.221-.101c.002.008-.05.02-.04.029.163.122.109.331.052.403-.01.011-.017.026-.017.046 0 .06.053.13.117.159.064.029.118.006.118-.052.002-.018-.005-.04-.016-.061"/><path d="m22.413 89.95c.019-.004.039-.01.058-.019v-.054c-.021.011-.041.02-.059.024-.019.005-.037.008-.054.008-.002 0-.004 0-.007 0l-.06.035c.02.007.042.012.067.012.018.001.036-.002.055-.006"/><path d="m22.68 89.84c-.017-.006-.035-.011-.054-.015v.113h.054v-.098"/><path d="m21.404 90.47c0-.005-.001-.012-.002-.018l-.077.044h.078l.001-.026"/><path d="m21.276 90.67c.017 0 .035-.002.055-.005.019-.005.039-.011.058-.02v-.054c-.021.011-.041.02-.059.024-.019.005-.037.009-.053.009-.034 0-.061-.01-.079-.029-.005-.005-.009-.011-.012-.017l-.044.025c.005.007.009.014.015.02.028.032.067.047.119.047"/><path d="m21.656 90.67c.016 0 .032-.002.047-.005.016-.005.03-.011.045-.02v-.056c-.013.012-.027.021-.041.027-.016.006-.033.009-.051.009-.033 0-.06-.011-.078-.033-.019-.022-.028-.053-.028-.093s.01-.072.028-.093c.018-.022.043-.033.078-.033.019 0 .035.002.049.008s.028.015.043.027v-.057c-.016-.008-.031-.015-.046-.019-.014-.004-.03-.006-.046-.006-.015 0-.029.002-.042.004l-.082.047c-.025.03-.039.069-.039.121 0 .054.015.096.043.126.029.031.069.046.12.046"/><path d="m21.924 90.55c0 .04.008.068.025.084s.045.024.085.024h.066v-.043h-.061c-.022 0-.039-.005-.047-.015-.009-.009-.015-.026-.015-.051v-.177h.124v-.042h-.124v-.094h-.053v.094h-.088v.042h.088v.178"/><path d="m22.389 90.33h-.138v.042h.083v.242h-.105v.042h.268v-.042h-.107l-.001-.284"/><path d="m22.336 90.21h.054v.067h-.054v-.067"/><path d="m22.7 90.67c.045 0 .081-.015.105-.043.025-.029.036-.071.036-.128 0-.056-.013-.098-.036-.127-.024-.029-.059-.045-.105-.045-.045 0-.079.016-.104.045s-.036.072-.036.127c0 .057.012.098.036.128.025.029.059.043.104.043m-.061-.265c.014-.021.035-.032.062-.032.027 0 .048.01.062.032.014.021.021.053.021.094s-.008.072-.021.094c-.015.021-.035.032-.062.032s-.047-.011-.062-.032c-.014-.022-.021-.053-.021-.094 0-.042.006-.073.021-.094"/><path d="m22.994 90.48c0-.033.008-.059.021-.077.015-.017.033-.027.059-.027.022 0 .037.006.049.021.011.014.017.036.017.064v.203h.055v-.203c0-.044-.01-.077-.024-.099-.019-.021-.042-.033-.074-.033-.023 0-.043.004-.06.014-.016.01-.028.024-.04.042v-.049h-.053v.327h.053v-.185"/><path d="m23.822 90.67c.016 0 .032-.002.046-.005.018-.005.032-.011.046-.02v-.056c-.012.012-.026.021-.042.027-.014.006-.031.009-.05.009-.033 0-.059-.011-.077-.033s-.027-.053-.027-.093c0-.021.002-.04.008-.055l-.05-.029c-.011.024-.016.051-.016.083 0 .054.014.096.041.126.03.031.071.046.121.046"/><path d="m20.967 91.1c-.009-.017-.021-.028-.036-.037-.014-.008-.032-.012-.051-.013v.046c.002 0 .005 0 .007 0 .025 0 .045.01.059.031.014.021.021.053.021.094s-.006.073-.021.095c-.014.021-.034.032-.059.032-.002 0-.005-.001-.007-.001v.046c.019 0 .036-.004.051-.013.016-.008.026-.021.036-.037v.041h.054v-.455h-.054v.171"/><path d="m21.307 91.05h-.139v.042h.084v.242h-.107v.042h.269v-.042h-.107v-.284"/><path d="m21.257 90.93h.053v.068h-.053v-.068"/><path d="m21.618 91.33l-.095-.276h-.057l.117.328h.069l.117-.328h-.057l-.094.276"/><path d="m22.27 91.19c0-.033.007-.058.02-.076.015-.019.033-.027.059-.027.022 0 .04.006.05.021.01.014.015.036.015.065v.202h.055v-.202c0-.044-.009-.079-.024-.1-.017-.022-.042-.034-.075-.034-.022 0-.042.005-.059.015-.016.01-.029.023-.039.042v-.049h-.054v.327h.054l-.002-.184"/><path d="m22.682 91.38c.022 0 .04-.003.055-.013.016-.009.027-.023.036-.041v.037.002c0 .034-.007.059-.02.075-.014.016-.035.023-.063.023-.013 0-.027-.001-.042-.007-.016-.004-.033-.011-.052-.02v.054c.016.005.032.009.048.012.017.002.032.003.046.003.045 0 .08-.013.102-.039.023-.024.035-.062.035-.111v-.306h-.054v.042c-.01-.018-.021-.03-.037-.039-.015-.009-.033-.013-.054-.013-.038 0-.069.015-.092.046-.022.031-.035.072-.035.124 0 .05.012.092.035.123.023.033.054.048.092.048m-.048-.26c.014-.021.034-.032.059-.032s.044.01.058.032c.013.021.02.052.02.092 0 .041-.007.07-.02.092-.014.021-.033.033-.057.033-.026 0-.047-.01-.06-.031-.014-.021-.021-.052-.021-.092s.008-.074.021-.094"/><path d="m22.911 91.17h.311v.05h-.311v-.05"/><path d="m23.503 91.04c-.015 0-.027.003-.037.011-.011.006-.02.016-.024.03-.007-.014-.015-.023-.023-.03-.01-.007-.021-.011-.036-.011-.013 0-.024.003-.034.01-.009.005-.017.015-.023.026v-.028h-.048v.328h.048v-.187c0-.045.004-.073.01-.085.006-.012.014-.019.029-.019.014 0 .023.005.029.017.005.012.009.04.009.087v.188h.047v-.188c0-.045.004-.073.009-.085.005-.012.017-.018.032-.018.014 0 .022.006.028.017.005.012.008.04.008.086v.188h.049v-.189c0-.057-.005-.095-.016-.116-.013-.02-.031-.032-.057-.032"/><path d="m23.783 91.39c.045 0 .08-.015.104-.044.023-.029.035-.072.035-.128 0-.056-.012-.098-.036-.127-.023-.03-.059-.045-.104-.045s-.082.015-.105.045c-.023.029-.034.072-.034.127 0 .057.011.099.034.128.024.029.061.044.106.044m-.061-.267c.015-.021.034-.031.062-.031s.049.01.062.031c.016.021.02.053.02.094 0 .042-.006.074-.02.095-.015.021-.034.032-.062.032s-.047-.01-.062-.032c-.016-.021-.021-.054-.021-.095-.001-.041.005-.073.021-.094"/><path d="m24.22 90.93v.169c-.011-.017-.021-.029-.035-.037-.016-.008-.034-.013-.054-.013-.04 0-.07.015-.094.046-.022.029-.033.072-.033.125 0 .054.011.096.033.127s.054.046.094.046c.02 0 .037-.004.052-.014.016-.008.026-.021.037-.037v.042h.047v-.455h-.047m-.022.387c-.012.022-.032.032-.058.032-.026 0-.047-.01-.059-.032-.015-.021-.02-.053-.02-.096 0-.041.007-.072.02-.094.014-.021.032-.031.059-.031.025 0 .046.011.058.031.014.021.021.053.021.094.001.043-.007.074-.021.096"/><path d="m21.22 91.94c.012.015.018.034.018.055v.058c0 .044.009.071.025.086.017.015.048.021.098.021h.019v-.041h-.02c-.028 0-.045-.004-.054-.014-.008-.008-.013-.026-.013-.055v-.06c0-.033-.006-.057-.021-.069-.014-.013-.04-.021-.079-.025.04-.005.066-.014.079-.025.014-.011.02-.035.02-.069v-.078c0-.027.004-.046.013-.055.008-.009.026-.013.054-.013h.02v-.042h-.019c-.05 0-.082.006-.098.021-.017.014-.025.043-.025.086v.077c0 .025-.005.044-.016.057-.011.014-.031.021-.058.021h-.036v.042h.036c.026-.001.045.006.057.022"/><path d="m21.653 91.8v-.079c0-.027.004-.046.012-.055.009-.008.025-.013.053-.013h.021v-.041h-.019c-.048 0-.081.007-.097.021-.017.014-.025.043-.025.086v.077c0 .026-.006.044-.016.057-.011.014-.03.021-.058.021h-.036v.042h.036c.026 0 .043.008.056.022.012.015.018.034.018.055v.059c0 .043.008.072.025.086.016.015.049.021.097.021h.019v-.042h-.021c-.026 0-.044-.004-.053-.013-.008-.008-.012-.026-.012-.055v-.06c0-.032-.007-.056-.021-.068-.014-.014-.041-.021-.079-.026.04-.005.066-.014.079-.025.014-.012.021-.036.021-.07"/><path d="m21.962 92.11c.02 0 .037-.005.052-.013.015-.009.026-.021.036-.037v.041h.054v-.456h-.054v.169c-.008-.016-.02-.028-.035-.037-.015-.009-.032-.013-.052-.013-.04 0-.071.016-.094.045-.022.031-.034.072-.034.126s.012.096.034.127.053.048.093.048m-.051-.267c.014-.021.034-.032.059-.032.026 0 .046.012.06.032.014.021.02.053.02.095 0 .042-.006.072-.02.094-.014.021-.034.032-.06.032-.025 0-.045-.01-.059-.032-.013-.021-.02-.052-.02-.094 0-.042.006-.073.02-.095"/><path d="m22.308 92.11c.024 0 .046-.005.063-.014.018-.01.032-.024.044-.044v.049h.054v-.187c0-.029-.001-.05-.005-.064-.004-.014-.008-.027-.016-.037-.012-.016-.027-.027-.046-.036-.02-.008-.043-.012-.071-.012-.017 0-.035.002-.053.005-.019.004-.038.01-.057.017v.054c.018-.01.035-.018.054-.022.019-.005.038-.008.056-.008.029 0 .05.006.062.018.014.012.02.032.02.057v.008h-.071c-.048 0-.083.01-.108.028-.025.019-.037.046-.037.083 0 .032.01.057.031.076.02.02.046.029.08.029m-.033-.156c.016-.011.04-.017.071-.017h.018.051v.012c0 .037-.008.064-.026.085-.017.02-.04.031-.07.031-.021 0-.038-.005-.049-.017-.012-.01-.018-.026-.018-.045-.001-.022.009-.038.023-.049"/><path d="m22.646 91.99c0 .04.008.068.024.083.017.016.045.024.086.024h.066v-.043h-.061c-.023 0-.039-.005-.048-.014-.009-.01-.014-.027-.014-.051v-.178h.123v-.042h-.123v-.093h-.054v.093h-.088v.042h.088v.179"/><path d="m23.18 91.82c-.013-.016-.027-.028-.048-.036-.019-.009-.042-.013-.068-.013-.019 0-.035.002-.053.006-.019.004-.039.009-.058.017v.054c.017-.01.035-.018.054-.023.02-.005.038-.007.057-.007.028 0 .05.006.062.018.013.012.021.031.021.057v.009h-.073c-.046 0-.083.009-.107.028s-.037.046-.037.083c0 .032.011.057.03.075.02.019.046.029.08.029.026 0 .046-.005.064-.014.017-.01.031-.023.043-.043v.049h.055v-.186c0-.029-.002-.051-.006-.065-.003-.016-.009-.028-.016-.038m-.034.135c0 .037-.009.064-.026.085-.017.021-.039.031-.068.031-.021 0-.037-.006-.05-.017-.013-.01-.018-.026-.018-.045 0-.021.007-.039.024-.048.016-.012.038-.017.069-.017h.02.05v.011z"/><path d="m23.355 91.99h.104v.118h-.104v-.118"/><path d="m23.863 91.76c-.015 0-.026.004-.037.01-.011.007-.019.017-.024.031-.006-.014-.015-.024-.022-.031-.01-.006-.022-.01-.037-.01-.014 0-.023.003-.034.009-.01.007-.018.015-.023.026v-.028h-.049v.329h.049v-.188c0-.044.003-.073.009-.085.005-.012.017-.018.03-.018.013 0 .023.005.03.016.005.011.008.04.008.087v.188h.049v-.188c0-.044.003-.073.011-.085.005-.012.015-.018.03-.018.013 0 .022.005.028.017.005.011.009.04.009.086v.188h.049v-.19c0-.057-.006-.095-.018-.115-.012-.022-.03-.031-.058-.031"/><path d="m24.16 91.76c-.046 0-.084.016-.112.047-.027.031-.042.073-.042.125 0 .054.015.096.044.126.027.03.067.045.119.045.018 0 .035-.002.056-.006.014-.002.029-.008.045-.014v-.052c-.018.008-.031.014-.046.019-.02.006-.037.009-.055.009-.034 0-.061-.011-.079-.03-.019-.019-.027-.051-.025-.096v-.001h.205v-.116c-.004-.005-.006-.009-.01-.013-.025-.029-.058-.043-.1-.043m-.094.13c.001-.022.011-.041.027-.059.017-.017.039-.025.063-.025.025 0 .046.008.061.024.014.017.021.036.023.059l-.174.001"/><path d="m20.894 92.63c.009.025.022.051.037.073-.001-.03-.007-.052-.021-.063-.003-.003-.009-.007-.016-.01"/><path d="m20.902 92.36c-.011.008-.017.024-.021.045v.155c0 .016.003.031.006.048.01-.003.02-.008.024-.013.014-.012.02-.035.02-.069v-.079c0-.027.003-.044.013-.054.008-.008.025-.012.054-.012h.019v-.042h-.018c-.05-.001-.082.007-.097.021"/><path d="m21.276 92.49c-.02 0-.037.004-.053.012s-.026.021-.036.037v-.042h-.054v.361l.054.031v-.104c.009.016.02.028.036.037.016.008.033.013.053.013.04 0 .07-.015.093-.045.023-.03.034-.072.034-.125 0-.055-.011-.098-.034-.127-.023-.034-.054-.049-.093-.048m.051.267c-.013.021-.034.032-.059.032-.026 0-.046-.01-.06-.032-.013-.022-.02-.053-.02-.094 0-.042.007-.074.02-.096.014-.021.034-.031.06-.031.025 0 .046.01.059.031s.02.054.02.096c-.001.041-.007.072-.02.094"/><path d="m21.728 92.53c-.013-.016-.028-.027-.048-.036-.019-.007-.042-.013-.069-.013-.019 0-.035.002-.054.006-.018.003-.037.009-.058.017v.054c.018-.01.036-.018.055-.022.019-.004.038-.007.056-.007.029 0 .05.005.063.018s.02.031.02.058v.009h-.073c-.048 0-.083.009-.108.028-.024.019-.037.046-.037.083 0 .032.01.057.03.076.02.019.046.028.079.028.025 0 .047-.005.063-.014.018-.009.032-.023.043-.042v.048h.054v-.187c0-.03-.001-.051-.004-.065-.001-.018-.006-.031-.012-.039m-.035.135c0 .037-.008.064-.025.085-.018.021-.041.031-.071.031-.021 0-.038-.005-.049-.016-.012-.011-.018-.026-.018-.046 0-.021.007-.039.023-.049.016-.012.04-.017.071-.017h.018.05v.012"/><path d="m22.05 92.62v.204h.054v-.204c0-.044-.009-.078-.025-.1-.017-.022-.042-.034-.075-.034-.022 0-.042.005-.059.015s-.03.023-.039.042v-.048h-.054v.328h.054v-.185c0-.034.006-.059.02-.077.013-.019.033-.027.059-.027.022 0 .039.006.048.021.012.014.017.035.017.065"/><path d="m22.349 92.49c-.046 0-.084.015-.112.046-.028.03-.042.072-.042.125 0 .054.015.096.043.126.029.031.068.046.12.046.018 0 .036-.002.055-.007.02-.003.039-.01.059-.019v-.054c-.021.011-.041.02-.059.024-.019.006-.037.008-.054.008-.034 0-.061-.009-.079-.029-.019-.02-.028-.052-.026-.096v-.002h.234v-.025c-.001-.041-.015-.074-.039-.103-.024-.027-.057-.04-.1-.04m-.094.13c.001-.022.011-.041.028-.059.017-.017.039-.025.064-.025.027 0 .047.008.062.024.014.017.021.036.024.059l-.178.001"/><path d="m22.744 92.75c-.009-.012-.013-.03-.013-.055v-.338h-.14v.041h.086v.297c0 .038.009.067.027.087.018.021.042.031.075.031h.068v-.045h-.063c-.018 0-.03-.006-.04-.018"/><path d="m22.994 92.7h.103v.118h-.103v-.118"/><path d="m23.422 92.4h-.053v.094h-.089v.042h.089v.178c0 .04.007.068.023.084.016.016.044.025.086.025h.064v-.042h-.061c-.021 0-.038-.005-.048-.016-.01-.01-.013-.026-.013-.05v-.179h.121v-.042h-.121v-.094"/><path d="m23.893 92.53c-.011-.016-.028-.027-.046-.036-.021-.007-.042-.013-.069-.013-.018 0-.035.002-.053.006-.021.003-.039.009-.06.017v.054c.019-.01.036-.018.057-.022.019-.004.036-.007.056-.007.029 0 .049.005.062.018.014.012.021.031.021.058v.009h-.073c-.047 0-.086.009-.109.028-.023.019-.035.046-.035.083 0 .032.01.057.028.076.02.019.049.028.082.028.024 0 .046-.005.062-.014.019-.009.032-.023.045-.042v.048h.053v-.187c0-.03-.001-.051-.004-.065-.005-.018-.01-.031-.017-.039m-.033.135c0 .037-.01.064-.025.085-.016.021-.041.031-.07.031-.02 0-.037-.005-.05-.016-.014-.011-.018-.026-.018-.046 0-.021.006-.039.023-.049.016-.01.039-.017.07-.017h.018.052v.012z"/><path d="m24.16 92.49c-.021 0-.036.004-.052.012s-.027.021-.035.037v-.169h-.055v.456h.048l.007-.004.021-.011.031-.019c.004-.001.006-.003.007-.005-.018-.004-.029-.014-.04-.03-.015-.022-.02-.053-.02-.094 0-.042.006-.074.02-.096.013-.02.033-.031.06-.031.025 0 .045.01.059.031s.02.054.02.096c0 .002 0 .006 0 .009.019-.038.031-.079.031-.116v-.009c-.004-.004-.005-.008-.007-.012-.024-.031-.054-.045-.095-.045"/><path d="m21.614 93.13l.039.023h.016v-.068h-.055v.045"/><path d="m22.02 93.36l.046.026.063-.181h-.057l-.052.155"/><path d="m21.828 93.22l.019.053.068.04-.032-.093h-.055"/><path d="m22.739 93.2c-.051 0-.09.016-.119.045-.029.031-.042.073-.042.127 0 .054.015.097.042.126.029.031.068.045.119.045.017 0 .032-.002.047-.006.015-.004.03-.01.044-.02v-.056c-.013.013-.027.021-.041.027-.016.005-.032.008-.051.008-.034 0-.06-.011-.078-.034-.018-.021-.027-.053-.027-.093 0-.041.009-.072.027-.093.018-.021.043-.033.078-.033.019 0 .034.002.049.009.014.005.028.015.042.027v-.057c-.015-.008-.03-.015-.045-.02-.013-.001-.028-.002-.045-.002"/><path d="m22.951 93.12h.088v.29l.054-.031v-.301h-.142v.042"/><path d="m23.306 93.22v.035l.096-.056c-.013 0-.025.001-.038.004-.02.003-.04.01-.058.017"/><path d="m22.571 93.84c-.078 0-.154-.019-.214-.054l-1.459-.842c-.122-.071-.214-.23-.214-.372v-1.685c0-.141.092-.301.214-.372l1.459-.843c.119-.069.311-.069.43 0l1.458.843c.123.071.217.23.217.372v1.685c0 .141-.094.301-.217.372l-1.458.842c-.06.035-.137.054-.216.054m0-3.917c-.03 0-.052.007-.062.014l-1.459.843c-.029.017-.062.075-.062.108v1.685c0 .034.033.092.062.109l1.459.843c.01.005.033.013.062.013.03 0 .053-.007.063-.013l1.46-.842c.028-.017.062-.075.062-.109v-1.685c0-.034-.033-.091-.062-.108l-1.46-.843c-.01-.007-.032-.015-.063-.015"/><path d="m43.03 88.9l-4.899-2.829c-.255-.147-.675-.147-.93 0l-4.899 2.829c-.257.148-.465.511-.465.807v2.12c-.018.245-.221.439-.47.439h-2.509c-.248 0-.452-.195-.468-.438v-2.121c0-.296-.211-.658-.466-.807l-4.899-2.829c-.255-.147-.675-.147-.931 0l-4.898 2.829c-.256.148-.465.511-.465.807v2.119c-.016.245-.221.44-.47.44h-2.51c-.249 0-.453-.195-.47-.438v-2.121c0-.296-.209-.658-.466-.807l-4.896-2.828c-.256-.148-.676-.148-.931 0l-4.898 2.829c-.256.148-.466.511-.466.807v5.656c0 .296.209.657.466.806l4.898 2.828c.256.147.675.147.931 0l4.898-2.828c.256-.148.466-.51.466-.806v-2.122c.017-.244.221-.438.469-.438h2.509c.249 0 .454.195.47.44v2.12c0 .296.209.657.465.806l4.898 2.828c.255.147.675.147.93 0l4.899-2.828c.255-.148.466-.51.466-.806v-2.122c.017-.244.22-.438.469-.438h2.509c.248 0 .453.195.469.439v2.121c0 .296.21.657.466.806l4.9 2.828c.255.147.675.147.928 0l4.901-2.828c.256-.148.465-.51.465-.806v-5.656c.001-.297-.21-.66-.466-.808m-30.28 6.153c0 .296-.209.659-.466.807l-4.36 2.517c-.256.149-.676.149-.931 0l-4.361-2.517c-.257-.147-.467-.511-.467-.807v-5.03c0-.296.21-.659.467-.807l4.361-2.518c.256-.148.674-.148.931 0l4.36 2.518c.256.148.466.511.466.807v.996.783.739.738.783.996m15.11 0c0 .296-.208.66-.465.807l-4.361 2.517c-.255.149-.675.149-.93 0l-4.361-2.517c-.256-.146-.466-.51-.466-.807v-.996-.783c0-.258 0-.591 0-.738 0-.148 0-.479 0-.739v-.783-.997c0-.296.21-.659.466-.807l4.36-2.519c.255-.148.676-.148.931 0l4.36 2.519c.256.147.466.511.466.807v.997.783.739.738.783.996m15.11.001c0 .296-.211.659-.466.807l-4.361 2.518c-.256.148-.675.148-.931 0l-4.362-2.518c-.255-.146-.464-.511-.464-.807v-.997-.783-.738-.739-.783-.997c0-.296.21-.659.464-.807l4.362-2.519c.256-.148.675-.148.931 0l4.362 2.519c.256.147.465.511.465.807v5.04"/><path d="m36.29 91.5v.091l.302.174v-.09l-.302-.175"/><path d="m36.69 91.82l.303.175v-.09l-.303-.175v.09"/><path d="m37.08 91.96v.091l.3.174v-.09l-.3-.175"/><path d="m36.29 92.28v.091l.302.174v-.091l-.302-.174"/><path d="m36.69 92.6l.303.175v-.09l-.303-.176v.091"/><path d="m37.08 92.73v.091l.3.176v-.093l-.3-.174"/><path d="m38.982 91.52v.091l-.302.175v-.091l.302-.175"/><path d="m38.589 91.84l-.302.175v-.091l.302-.176v.092"/><path d="m38.19 91.98v.091l-.302.175v-.091l.304-.175"/><path d="m38.982 92.31v.092l-.303.175v-.091l.303-.176"/><path d="m38.589 92.62l-.302.175v-.091l.302-.175v.091"/><path d="m38.19 92.76v.09l-.302.175v-.091l.304-.174"/><path d="m8.08 100.53c.39-.565.586-1.43-.154-1.907-.029-.02.159-.287.152-.313l1.354-.604c-.015.029-.096.45-.125.479-.766.789-.392 1.785-.053 2.29.061.083.098.178.098.285.001.311-.306.574-.684.593-.378.018-.686-.218-.687-.528 0-.106.038-.207.099-.295"/><path d="m9.678 99.03c.283-.479.392-1.113.09-1.175-.025-.005-.103-.426-.107-.448l.903-.283c-.01.024.23.026.207.051-.777.777-.484 1.347-.23 1.719.046.06.075.136.076.219.003.247-.22.48-.499.524-.279.045-.505-.119-.508-.366-.003-.084.023-.167.068-.241"/><ellipse cx="8.667" cy="103.74" rx="1.209" ry=".37"/><ellipse cx="10.09" cy="103.18" rx=".605" ry=".186"/><ellipse cx="10.632" cy="103.74" rx=".204" ry=".062"/><ellipse cx="7.253" cy="104.17" rx=".204" ry=".062"/><ellipse cx="11.04" cy="103.37" rx=".204" ry=".062"/></g></svg>