<svg xmlns="http://www.w3.org/2000/svg" viewBox="0 0 50 50" enable-background="new 0 0 50 50"><path fill="none" stroke="#e72f37" stroke-width="2" stroke-miterlimit="10" d="m45.843 35.04c0 1.034-.733 2.309-1.63 2.826l-17.17 9.913c-.897.52-2.365.52-3.265 0l-17.17-9.913c-.899-.518-1.632-1.792-1.632-2.826v-19.828c0-1.039.732-2.309 1.632-2.828l17.17-9.915c.899-.519 2.367-.519 3.265 0l17.17 9.915c.896.519 1.63 1.789 1.63 2.828v19.828z"/><path fill="#e72f37" d="m15.704 25.2c0 3.84 2.233 7.161 5.47 8.732l-4.629-12.682c-.539 1.207-.841 2.542-.841 3.95m16.255-.49c0-1.2-.432-2.031-.8-2.677-.492-.799-.952-1.475-.952-2.276 0-.892.674-1.722 1.63-1.722.04 0 .082.006.125.008-1.728-1.582-4.03-2.548-6.552-2.548-3.392 0-6.374 1.741-8.108 4.375.227.006.441.012.624.012 1.015 0 2.585-.125 2.585-.125.523-.029.584.737.062.801 0 0-.525.061-1.11.092l3.535 10.51 2.123-6.368-1.512-4.142c-.522-.031-1.017-.092-1.017-.092-.524-.032-.461-.83.062-.801 0 0 1.601.125 2.555.125 1.014 0 2.587-.125 2.587-.125.521-.029.583.737.061.801 0 0-.525.061-1.11.092l3.507 10.43.97-3.232c.488-1.262.735-2.308.735-3.138m-6.38 1.339l-2.912 8.461c.868.255 1.788.395 2.743.395 1.128 0 2.212-.195 3.221-.552-.025-.041-.05-.085-.069-.131l-2.983-8.173m8.344-5.506c.042.311.066.641.066 1 0 .983-.185 2.09-.738 3.475l-2.963 8.569c2.884-1.681 4.822-4.806 4.822-8.386 0-1.689-.429-3.275-1.187-4.658"/></svg>