<svg xmlns="http://www.w3.org/2000/svg" viewBox="0 0 45 190" enable-background="new 0 0 45 190"><g fill="#e72f37"><g enable-background="new    "><path d="m15.766 150.88c.132.074.239.178.321.31v-1.336h.742v3.78h-.711v-.388c-.104.166-.224.287-.357.362-.134.075-.3.112-.499.112-.327 0-.602-.132-.825-.396-.224-.265-.335-.604-.335-1.018 0-.479.11-.854.33-1.128.22-.273.514-.411.882-.411.17.001.32.039.452.113m.18 1.994c.108-.154.162-.354.162-.599 0-.343-.086-.587-.26-.734-.106-.089-.229-.134-.37-.134-.214 0-.371.081-.471.243-.1.161-.15.362-.15.602 0 .259.051.466.153.62.102.155.256.232.464.232.207.001.364-.077.472-.23"/><path d="m19.318 150.89c.195.087.356.226.483.414.115.166.189.359.223.578.02.129.028.314.024.556h-2.038c.011.281.109.478.292.591.112.07.246.105.403.105.167 0 .302-.043.407-.129.057-.046.107-.11.15-.192h.747c-.02.166-.11.335-.271.506-.251.272-.602.408-1.053.408-.373 0-.701-.114-.986-.344s-.427-.604-.427-1.121c0-.484.128-.856.386-1.115.257-.259.591-.388 1-.388.245 0 .464.043.659.131m-1.094.632c-.104.106-.168.251-.195.434h1.261c-.013-.194-.078-.342-.195-.442s-.261-.15-.434-.15c-.188-.002-.334.051-.437.158"/><path d="m20.987 152.74c.015.13.049.223.101.277.091.098.26.146.505.146.145 0 .26-.021.345-.064s.127-.106.127-.192c0-.082-.034-.145-.103-.188-.069-.043-.324-.116-.766-.221-.318-.079-.542-.178-.672-.296-.13-.116-.195-.284-.195-.503 0-.259.102-.48.305-.666.203-.187.489-.279.858-.279.35 0 .635.07.855.21.22.14.347.38.379.723h-.732c-.01-.095-.037-.169-.08-.224-.081-.1-.218-.148-.412-.148-.16 0-.273.024-.341.074-.068.05-.102.107-.102.175 0 .084.036.145.108.182.072.04.327.107.764.203.292.068.51.172.655.311.144.141.216.316.216.526 0 .277-.104.504-.31.68-.207.175-.526.263-.958.263-.441 0-.766-.093-.977-.278-.21-.186-.315-.423-.315-.71h.745z"/><path d="m24.1 150.5h-.742v-.676h.742v.676m-.742.334h.742v2.799h-.742v-2.799"/><path d="m26.19 150.83c.178.074.321.209.432.406v-.403h.713v2.655c0 .361-.061.633-.182.816-.209.314-.609.473-1.202.473-.358 0-.649-.07-.876-.211-.226-.141-.351-.35-.375-.629h.797c.02.086.054.147.1.185.078.067.211.101.398.101.264 0 .439-.089.529-.265.058-.113.087-.303.087-.57v-.18c-.07.12-.146.21-.226.27-.146.111-.336.167-.568.167-.359 0-.646-.126-.861-.379-.215-.252-.322-.594-.322-1.025 0-.416.104-.766.311-1.049s.5-.426.879-.426c.14 0 .263.021.366.064m.25 2.01c.117-.129.176-.335.176-.617 0-.266-.056-.468-.168-.606-.111-.139-.261-.208-.448-.208-.256 0-.433.121-.529.362-.052.128-.077.287-.077.475 0 .163.027.308.082.435.1.236.276.354.532.354.171-.001.314-.065.432-.195"/><path d="m30.27 150.99c.183.151.274.403.274.754v1.885h-.75v-1.702c0-.147-.02-.261-.059-.339-.07-.145-.207-.216-.407-.216-.247 0-.415.104-.507.315-.048.111-.072.254-.072.427v1.515h-.731v-2.794h.708v.408c.094-.144.184-.247.267-.311.149-.113.341-.17.57-.17.288.001.524.077.707.228"/></g><path d="m22.415 146.65c-.232 0-.453-.055-.62-.149l-5.644-3.259c-.347-.2-.619-.672-.619-1.072v-6.518c0-.399.272-.871.619-1.071l5.644-3.259c.167-.096.387-.149.62-.149.231 0 .451.054.618.149l5.645 3.259c.348.2.618.672.618 1.071v6.518c0 .4-.271.872-.618 1.072l-5.645 3.259c-.167.097-.387.149-.618.149m-5.932-4.838c0 .283.208.644.454.785l5.01 2.892v-5.788c0-.258-.176-.587-.4-.75l-5.062-2.922v5.783m6.867-2.897c-.242.142-.454.507-.454.787v5.78l4.997-2.885c.242-.14.453-.508.453-.785v-5.783l-4.996 2.886m-1.317-.783c.096.041.237.068.382.068.171 0 .337-.039.453-.105l4.997-2.885-4.997-2.885c-.116-.067-.281-.104-.453-.104-.173 0-.338.037-.454.104l-4.993 2.883 5.065 2.924"/><path d="m20.447 140.49c-.346-.768-.528-2.547.114-2.1.026.018-.086-.291-.08-.318l-1.124-.551c.013.037-.245.018-.209.054.749.763.561 1.983.262 2.407-.055.064-.088.158-.088.274 0 .339.271.747.605.911.335.164.606.021.606-.316.001-.117-.032-.24-.086-.361"/><path d="m18.78 138.66c-.249-.497-.421-1.467.102-1.296.028.009-.076-.247-.072-.272l-.823-.375c.008.032-.186.074-.147.104.604.455.408 1.232.193 1.5-.041.041-.063.1-.063.174 0 .217.196.48.436.593.241.108.437.022.437-.192 0-.08-.023-.16-.063-.236"/><path d="m24.73 172.27c1.453-2.104 2.184-5.32-.573-7.099-.108-.069.593-1.063.565-1.169l5.04-2.24c-.051.11-.354 1.676-.462 1.785-2.85 2.938-1.459 6.643-.198 8.52h-.004c.233.306.371.666.371 1.062.004 1.152-1.139 2.139-2.547 2.204s-2.551-.813-2.553-1.966c-.001-.396.136-.77.367-1.098h-.002"/><path d="m30.678 166.66c1.051-1.783 1.459-4.143.34-4.371-.097-.02-.384-1.587-.404-1.669l3.361-1.052c-.037.093.857.098.771.186-2.896 2.895-1.8 5.01-.858 6.403h-.003c.175.224.278.5.281.813.011.913-.819 1.785-1.854 1.947-1.035.164-1.883-.445-1.893-1.359-.003-.313.094-.621.264-.898h-.005"/><ellipse cx="26.914" cy="184.16" rx="4.499" ry="1.377"/><ellipse cx="32.23" cy="182.09" rx="2.25" ry=".688"/><ellipse cx="34.23" cy="184.16" rx=".758" ry=".23"/><ellipse cx="21.656" cy="185.77" rx=".759" ry=".232"/><ellipse cx="35.744" cy="182.78" rx=".758" ry=".232"/><path d="m24.15 118.42c-.953-.55-2.512-.55-3.465 0l-18.231 10.525c-.954.55-1.732 1.899-1.732 3v21.05c0 1.101.779 2.452 1.732 3l18.231 10.524c.953.551 2.512.551 3.465 0l18.23-10.524c.953-.55 1.732-1.901 1.732-3v-21.05c0-1.103-.779-2.452-1.732-3l-18.23-10.525m17.963 33.423c0 1.101-.779 2.451-1.732 3l-16.23 9.37c-.952.551-2.511.551-3.464 0l-16.23-9.37c-.953-.551-1.732-1.901-1.732-3v-18.741c0-1.1.78-2.451 1.732-3l16.23-9.369c.953-.551 2.512-.551 3.464 0l16.23 9.369c.953.551 1.732 1.901 1.732 3v18.741"/><g enable-background="new    "><path d="m15.826 95.08c-.014-.104-.049-.198-.105-.282-.083-.113-.21-.17-.383-.17-.247 0-.417.123-.507.367-.048.13-.072.303-.072.518 0 .205.024.37.072.494.087.233.252.35.494.35.172 0 .293-.046.366-.139s.116-.212.131-.359h.747c-.017.223-.098.433-.242.632-.229.319-.57.479-1.021.479s-.782-.133-.995-.4c-.212-.267-.319-.613-.319-1.039 0-.479.118-.854.353-1.12.234-.268.559-.401.971-.401.352 0 .639.079.863.236.224.158.356.437.397.835h-.75z"/><path d="m19.411 96.54c-.236.292-.595.438-1.076.438-.481 0-.839-.146-1.076-.438-.236-.291-.354-.643-.354-1.053 0-.403.118-.754.354-1.05s.595-.443 1.076-.443c.481 0 .84.147 1.076.443s.354.646.354 1.05c.001.411-.118.762-.354 1.053m-.585-.404c.115-.152.172-.368.172-.648s-.057-.496-.172-.647-.279-.227-.493-.227-.379.075-.494.227c-.116.151-.173.367-.173.647s.058.496.173.648c.115.152.28.229.494.229s.378-.077.493-.229"/><path d="m21.773 94.13c.132.074.239.178.321.31v-1.336h.742v3.78h-.711v-.388c-.104.166-.224.287-.357.362-.134.075-.3.112-.499.112-.327 0-.602-.132-.825-.396-.224-.265-.335-.604-.335-1.018 0-.479.11-.854.33-1.128.22-.273.514-.411.882-.411.17.001.321.039.452.113m.18 1.994c.108-.154.162-.354.162-.599 0-.343-.086-.587-.26-.734-.106-.089-.229-.134-.37-.134-.214 0-.371.081-.471.243-.1.161-.15.362-.15.602 0 .259.051.466.153.62.102.155.256.232.464.232.207.001.364-.077.472-.23"/><path d="m24.25 93.75h-.742v-.676h.742v.676m-.742.334h.742v2.799h-.742v-2.799"/><path d="m27.22 94.24c.183.151.274.403.274.754v1.885h-.75v-1.702c0-.147-.02-.261-.059-.339-.07-.145-.207-.216-.407-.216-.247 0-.415.104-.507.315-.048.111-.072.254-.072.427v1.515h-.731v-2.794h.708v.408c.094-.144.184-.247.267-.311.149-.113.341-.17.57-.17.288.001.523.077.707.228"/><path d="m29.56 94.08c.178.074.321.209.431.406v-.403h.715v2.655c0 .361-.062.633-.184.816-.209.314-.609.473-1.201.473-.357 0-.65-.07-.875-.211-.227-.141-.352-.35-.375-.629h.795c.021.086.055.147.101.185.079.067.212.101.397.101.264 0 .44-.089.529-.265.059-.113.088-.303.088-.57v-.18c-.07.12-.146.21-.227.27-.145.111-.334.167-.567.167-.359 0-.646-.126-.861-.379-.215-.252-.322-.594-.322-1.025 0-.416.104-.766.311-1.049.206-.283.5-.426.88-.426.138 0 .26.021.365.064m.249 2.01c.118-.129.177-.335.177-.617 0-.266-.056-.468-.167-.606-.112-.139-.262-.208-.449-.208-.256 0-.432.121-.529.362-.051.128-.076.287-.076.475 0 .163.027.308.081.435.099.236.276.354.532.354.169-.001.313-.065.431-.195"/></g><path d="m21.882 76.1c.071-.016.145-.04.221-.07v-.199c-.079.042-.153.073-.223.093-.07.02-.137.03-.201.03-.008 0-.017-.001-.024-.001l-.227.13c.073.027.156.042.249.042.066-.001.134-.009.205-.025"/><path d="m22.877 75.72c-.062-.025-.131-.043-.201-.054v.422h.201v-.368"/><path d="m18.13 78.06c-.001-.023-.005-.044-.008-.067l-.287.165h.294v-.098"/><path d="m17.646 78.8c.067 0 .135-.008.206-.024.071-.015.145-.039.221-.07v-.199c-.08.042-.154.072-.223.093-.07.021-.137.03-.201.03-.126 0-.225-.037-.293-.109-.018-.019-.032-.039-.044-.062l-.166.096c.018.026.035.052.057.076.107.112.255.169.443.169"/><path d="m19.07 78.8c.06 0 .118-.008.175-.024.057-.015.112-.039.166-.07v-.208c-.046.045-.098.078-.153.1-.055.021-.118.032-.188.032-.125 0-.221-.041-.289-.123-.068-.082-.102-.198-.102-.349 0-.15.034-.267.102-.347.067-.083.164-.123.289-.123.068 0 .128.011.182.032.053.021.107.055.159.102v-.209c-.056-.032-.113-.055-.168-.071-.056-.015-.113-.023-.172-.023-.057 0-.108.007-.157.017l-.302.175c-.095.111-.144.26-.144.449 0 .201.054.358.16.471.106.112.254.169.442.169"/><path d="m20.06 78.36c0 .148.032.251.093.311.061.061.167.091.317.091h.245v-.16h-.225c-.085 0-.145-.018-.178-.053-.034-.036-.052-.099-.052-.189v-.663h.456v-.155h-.456v-.348h-.2v.348h-.325v.155h.325v.663"/><path d="m21.795 77.55h-.512v.16h.312v.9h-.395v.16h.99v-.16h-.395v-1.06"/><path d="m21.595 77.08h.2v.252h-.2v-.252"/><path d="m22.952 78.8c.17 0 .3-.056.389-.165.091-.109.134-.268.134-.477 0-.208-.043-.366-.134-.476-.09-.11-.22-.165-.389-.165s-.298.055-.388.165c-.089.109-.133.268-.133.476s.044.368.133.477c.09.109.219.165.388.165m-.23-.992c.052-.079.129-.119.23-.119.103 0 .18.04.231.119.053.079.078.196.078.351 0 .155-.025.272-.078.352-.053.08-.129.119-.231.119-.101 0-.179-.04-.23-.119-.053-.08-.079-.197-.079-.352 0-.156.025-.273.079-.351"/><path d="m24.04 78.08c0-.124.024-.219.076-.286.05-.066.122-.1.216-.1.082 0 .143.026.182.078.038.051.059.131.059.242v.756h.201v-.757c0-.166-.031-.29-.092-.371-.062-.082-.154-.123-.279-.123-.082 0-.155.018-.217.054-.062.035-.109.088-.146.158v-.182h-.2v1.22h.2v-.689"/><path d="m27.13 78.8c.06 0 .118-.008.175-.024.057-.015.112-.039.166-.07v-.208c-.047.045-.099.078-.152.1-.057.021-.118.032-.188.032-.126 0-.222-.041-.29-.123s-.102-.198-.102-.349c0-.077.009-.145.027-.204l-.182-.104c-.037.089-.059.19-.059.308 0 .201.054.358.16.471.108.114.256.171.445.171"/><path d="m16.5 80.38c-.033-.061-.077-.106-.133-.138-.055-.031-.119-.046-.19-.047v.172c.009 0 .017-.002.026-.002.097 0 .169.04.22.119.05.08.076.197.076.352 0 .155-.026.271-.076.352-.051.079-.124.119-.22.119-.009 0-.017-.002-.026-.002v.172c.071-.001.134-.016.188-.047.056-.032.101-.077.134-.138v.154h.2v-1.696h-.2l.001.63"/><path d="m17.766 80.23h-.513v.15h.312v.91h-.395v.15h.99v-.15h-.394v-1.06"/><path d="m17.565 79.75h.201v.253h-.201v-.253"/><path d="m18.922 81.25l-.353-1.03h-.209l.434 1.22h.256l.436-1.22h-.208l-.356 1.03"/><path d="m21.351 80.75c0-.124.026-.219.076-.285.05-.067.123-.1.216-.1.083 0 .143.026.181.078.038.051.058.132.058.241v.756h.201v-.756c0-.165-.03-.289-.092-.371s-.154-.123-.278-.123c-.084 0-.156.018-.217.054-.061.036-.109.089-.145.159v-.183h-.2v1.22h.2v-.69"/><path d="m22.883 81.45c.08 0 .146-.016.202-.049.056-.034.099-.085.131-.153v.136.007c0 .129-.024.222-.073.28-.05.059-.129.089-.236.089-.049 0-.102-.009-.16-.024-.058-.016-.122-.04-.194-.074v.198c.061.02.121.035.181.044.061.011.118.016.173.016.169 0 .295-.047.382-.142.086-.093.129-.233.129-.416v-1.137h-.2v.157c-.033-.065-.078-.113-.134-.145-.054-.031-.12-.047-.199-.047-.142 0-.255.058-.34.171-.084.113-.127.267-.127.458s.042.344.127.457c.082.117.196.174.338.174m-.179-.971c.05-.079.127-.117.225-.117.092 0 .165.038.213.117.049.078.073.192.073.342 0 .15-.024.264-.073.343s-.119.118-.211.118c-.099 0-.174-.04-.227-.118-.051-.079-.078-.193-.078-.344 0-.151.026-.263.078-.341"/><path d="m23.736 80.65h1.154v.184h-1.154v-.184"/><path d="m25.938 80.19c-.055 0-.101.013-.14.038-.038.025-.069.063-.093.116-.021-.051-.051-.09-.086-.115-.037-.025-.083-.038-.139-.038-.047 0-.088.012-.123.035s-.065.056-.09.099v-.104h-.183v1.22h.183v-.698c0-.167.01-.272.03-.317.021-.045.058-.066.111-.066.053 0 .091.02.11.061.021.041.031.148.031.323v.698h.184v-.698c0-.167.011-.272.031-.317.021-.045.062-.066.121-.066.049 0 .084.021.104.062s.027.148.027.321v.698h.184v-.707c0-.211-.02-.354-.061-.429-.035-.078-.105-.116-.201-.116"/><path d="m26.98 81.47c.17 0 .301-.054.391-.164.09-.11.134-.268.134-.477 0-.208-.045-.366-.135-.476-.091-.109-.22-.165-.39-.165-.168 0-.299.055-.388.165s-.134.268-.134.476.045.367.134.477c.09.11.22.164.388.164m-.228-.992c.051-.08.128-.119.229-.119.104 0 .181.039.232.119.053.079.079.197.079.352 0 .155-.026.272-.079.352s-.13.119-.232.119c-.102 0-.179-.04-.229-.119-.054-.079-.079-.197-.079-.352 0-.155.025-.273.079-.352"/><path d="m28.588 79.75v.631c-.031-.061-.074-.106-.131-.138-.057-.031-.121-.047-.193-.047-.146 0-.263.057-.348.169-.086.112-.128.269-.128.467 0 .201.042.359.127.473.085.115.201.171.349.171.072 0 .137-.016.191-.047.057-.032.1-.077.133-.138v.154h.18v-1.696l-.18.001m-.074 1.438c-.051.079-.125.119-.221.119-.098 0-.17-.04-.22-.119s-.073-.196-.073-.352c0-.155.023-.273.073-.352.05-.08.122-.119.22-.119.096 0 .17.04.221.119.051.08.074.197.074.352 0 .155-.026.271-.074.352"/><path d="m17.44 83.51c.045.057.067.125.067.205v.218c0 .161.031.268.092.321.061.054.182.081.363.081h.07v-.157h-.076c-.102 0-.167-.015-.199-.047-.031-.031-.047-.099-.047-.203v-.228c0-.124-.026-.209-.078-.257-.053-.048-.149-.08-.291-.097.146-.02.243-.051.293-.095.05-.044.075-.13.075-.258v-.292c0-.104.016-.171.047-.202.031-.031.097-.047.199-.047h.076v-.156h-.07c-.181 0-.302.027-.363.081-.062.053-.092.16-.092.32v.283c0 .096-.021.166-.061.215-.04.049-.112.074-.214.074h-.133v.156h.133c.096-.001.165.027.209.085"/><path d="m19.05 82.992v-.292c0-.104.015-.171.046-.202.031-.031.097-.047.198-.047h.077v-.156h-.07c-.181 0-.302.027-.363.081-.062.053-.093.16-.093.32v.283c0 .096-.019.166-.06.215-.041.049-.112.074-.214.074h-.133v.156h.133c.094 0 .163.028.208.086.044.057.066.125.066.205v.218c0 .161.031.268.093.321.062.053.183.081.363.081h.07v-.157h-.077c-.101 0-.167-.015-.198-.047-.032-.031-.046-.099-.046-.203v-.228c0-.124-.027-.209-.079-.257-.052-.048-.149-.08-.29-.097.145-.02.243-.051.293-.095.05-.045.076-.131.076-.259"/><path d="m20.2 84.15c.072 0 .137-.016.192-.048.056-.031.1-.077.133-.138v.154h.201v-1.695h-.201v.631c-.032-.061-.076-.106-.132-.139-.056-.031-.12-.046-.193-.046-.147 0-.263.056-.348.169-.084.112-.127.268-.127.467 0 .2.042.359.127.474.084.114.201.171.348.171m-.19-.991c.049-.08.123-.12.219-.12s.17.04.22.12c.051.08.076.196.076.351 0 .154-.025.271-.076.351-.049.08-.124.12-.22.12-.097 0-.17-.04-.219-.118-.049-.08-.074-.197-.074-.352 0-.157.025-.275.074-.352"/><path d="m21.492 84.15c.093 0 .171-.017.237-.052.064-.035.118-.088.162-.161v.181h.201v-.696c0-.107-.005-.188-.017-.241-.012-.053-.031-.098-.059-.134-.044-.06-.102-.103-.174-.134-.072-.03-.158-.044-.259-.044-.064 0-.129.007-.198.021-.067.014-.139.035-.212.063v.201c.066-.038.134-.066.204-.086s.138-.03.207-.03c.108 0 .185.022.234.066.049.043.073.115.074.211v.032h-.269c-.177 0-.31.035-.401.106-.091.07-.137.173-.137.31 0 .117.038.21.112.28.071.073.171.107.295.107m-.119-.583c.059-.041.146-.062.264-.062h.066.188v.044c-.001.135-.033.241-.096.317-.063.077-.15.114-.261.114-.078 0-.14-.02-.184-.061s-.066-.098-.066-.171c0-.079.029-.14.089-.181"/><path d="m22.75 83.72c0 .147.031.251.092.312.062.061.168.09.318.09h.244v-.16h-.224c-.084 0-.144-.019-.179-.054-.034-.035-.051-.097-.051-.188v-.662h.454v-.156h-.454v-.347h-.2v.347h-.326v.156h.326v.662"/><path d="m24.702 83.05c-.044-.06-.103-.103-.175-.134-.071-.03-.157-.044-.258-.044-.064 0-.131.007-.199.021-.067.014-.139.035-.213.063v.201c.066-.038.136-.066.205-.086.068-.02.139-.03.207-.03.105 0 .185.022.231.066.049.043.074.115.075.211v.032h-.27c-.178 0-.312.035-.402.106-.092.07-.137.173-.137.31 0 .117.037.21.11.28.074.071.174.105.298.105.094 0 .172-.017.236-.052.064-.035.12-.088.163-.161v.181h.2v-.696c0-.107-.006-.188-.018-.241-.006-.051-.026-.096-.053-.132m-.125.502c-.001.135-.033.241-.097.317-.062.077-.149.114-.262.114-.078 0-.14-.02-.184-.061s-.066-.098-.066-.171c0-.081.029-.142.09-.183.059-.041.146-.062.265-.062h.065.188l.001.046z"/><path d="m25.393 83.68h.383v.44h-.383v-.44"/><path d="m27.28 82.87c-.053 0-.1.013-.137.037-.039.025-.069.063-.096.116-.021-.051-.049-.09-.085-.116-.036-.024-.082-.037-.138-.037-.047 0-.088.011-.124.034-.034.022-.063.056-.089.1v-.104h-.18v1.22h.182v-.698c0-.167.011-.272.029-.317.021-.045.06-.067.111-.067.055 0 .092.021.111.061.021.041.031.149.031.323v.698h.184v-.698c0-.167.01-.272.031-.317s.062-.067.119-.067c.051 0 .086.021.104.063.021.041.028.148.028.321v.698h.184v-.707c0-.21-.02-.354-.061-.429-.035-.077-.105-.114-.204-.114"/><path d="m28.363 82.87c-.174 0-.314.058-.42.174-.104.116-.155.271-.155.466 0 .2.053.356.16.47.106.114.255.17.444.17.065 0 .135-.008.205-.023.055-.012.109-.03.168-.051v-.194c-.06.029-.117.052-.17.068-.07.021-.138.03-.201.03-.127 0-.225-.035-.293-.108-.07-.073-.103-.191-.098-.359v-.006h.762v-.43c-.012-.018-.021-.035-.035-.05-.089-.105-.21-.157-.367-.157m-.349.481c.008-.08.039-.152.104-.216.062-.064.142-.096.238-.096.099 0 .174.031.227.092s.084.134.093.219l-.662.001"/><path d="m16.231 86.08c.032.096.079.188.136.274-.003-.112-.028-.192-.078-.237-.014-.014-.035-.025-.058-.037"/><path d="m16.256 85.05c-.039.035-.064.092-.079.17v.576c0 .058.01.118.023.179.039-.014.071-.03.092-.049.049-.044.074-.13.074-.258v-.292c0-.103.017-.17.047-.201.031-.033.097-.048.198-.048h.077v-.156h-.068c-.182-.001-.303.026-.364.079"/><path d="m17.643 85.55c-.073 0-.137.015-.192.047-.056.032-.101.078-.134.137v-.155h-.201v1.341l.201.116v-.391c.032.06.076.106.131.137.056.032.121.047.195.047.146 0 .262-.056.346-.169.084-.112.126-.268.126-.466 0-.203-.042-.36-.126-.474-.083-.114-.199-.17-.346-.17m.189.992c-.049.079-.122.119-.219.119-.097 0-.17-.041-.222-.12-.05-.08-.075-.197-.075-.351 0-.155.025-.271.075-.352.051-.079.125-.119.222-.119.097 0 .169.04.219.118.048.081.073.197.073.353 0 .156-.025.273-.073.352"/><path d="m19.329 85.73c-.044-.06-.102-.104-.174-.135-.071-.029-.158-.043-.258-.043-.064 0-.13.007-.198.021-.068.015-.14.036-.213.063v.201c.066-.038.134-.067.204-.086.069-.02.138-.03.207-.03.106 0 .184.022.233.066.048.044.073.115.074.211v.033h-.269c-.176 0-.31.034-.401.105-.091.07-.137.173-.137.309 0 .118.037.211.111.282.074.069.174.104.297.104.094 0 .173-.018.237-.051.066-.034.12-.088.162-.161v.181h.202v-.696c0-.107-.005-.187-.018-.24-.012-.053-.031-.099-.059-.134m-.125.501c0 .135-.033.241-.096.318-.063.077-.149.115-.26.115-.079 0-.141-.021-.185-.061-.044-.042-.067-.099-.067-.171 0-.082.03-.143.089-.184s.147-.062.264-.062h.066.187v.045h.002z"/><path d="m20.538 86.04v.756h.202v-.756c0-.166-.031-.29-.092-.371-.061-.082-.154-.122-.278-.122-.084 0-.156.018-.217.053-.061.037-.109.089-.145.159v-.183h-.2v1.22h.2v-.689c0-.124.025-.22.075-.286.051-.067.123-.1.217-.1.082 0 .142.026.181.077.038.052.057.132.057.242"/><path d="m21.647 85.55c-.174 0-.313.058-.418.174-.104.116-.157.271-.157.466 0 .2.054.356.161.47.107.113.254.17.444.17.066 0 .134-.007.205-.023.071-.016.145-.039.221-.07v-.199c-.079.041-.153.072-.223.092-.07.021-.137.031-.201.031-.126 0-.224-.036-.294-.108-.069-.073-.101-.192-.095-.359v-.006h.868v-.098c-.006-.149-.053-.276-.144-.381-.089-.107-.211-.159-.367-.159m-.35.481c.006-.081.04-.152.102-.216.063-.064.142-.096.239-.096.1 0 .175.031.228.092.052.061.083.134.092.218l-.661.002"/><path d="m23.11 86.56c-.032-.045-.049-.114-.049-.204v-1.26h-.522v.157h.322v1.104c0 .141.032.25.099.327.066.077.158.115.277.115h.254v-.169h-.233c-.066-.002-.114-.025-.148-.07"/><path d="m24.05 86.36h.384v.44h-.384v-.44"/><path d="m25.637 85.23h-.201v.346h-.326v.155h.326v.663c0 .148.03.252.092.312.062.06.168.09.318.09h.245v-.16h-.226c-.086 0-.145-.018-.178-.053-.035-.036-.053-.099-.053-.189v-.663h.455v-.155h-.455v-.346h.003"/><path d="m27.389 85.73c-.045-.06-.103-.104-.175-.135-.071-.029-.157-.043-.259-.043-.062 0-.129.007-.197.021-.066.015-.139.036-.213.063v.201c.066-.038.135-.067.203-.086.07-.02.141-.03.207-.03.107 0 .186.022.234.066.047.044.072.115.072.211v.033h-.27c-.176 0-.311.034-.401.105-.091.07-.136.173-.136.309 0 .118.037.211.111.282.072.069.172.104.297.104.093 0 .172-.018.236-.051.064-.034.118-.088.162-.161v.181h.201v-.696c0-.107-.006-.187-.018-.24-.007-.053-.027-.099-.054-.134m-.125.501c-.002.135-.033.241-.097.318-.062.077-.149.115-.26.115-.079 0-.14-.021-.185-.061-.045-.042-.066-.099-.066-.171 0-.082.029-.143.089-.184s.147-.062.265-.062h.065.188v.045"/><path d="m28.393 85.55c-.074 0-.139.015-.194.048-.058.031-.101.077-.134.136v-.629h-.199v1.694h.174l.025-.016.078-.044.121-.07c.01-.005.018-.013.024-.018-.062-.016-.111-.052-.147-.11-.052-.08-.076-.197-.076-.351 0-.155.024-.271.076-.352.049-.079.123-.119.221-.119s.171.04.22.118c.049.081.073.197.073.353 0 .013-.002.024-.002.036.07-.14.115-.29.115-.428v-.034c-.011-.015-.019-.032-.029-.045-.085-.113-.2-.169-.346-.169"/><path d="m18.908 87.95l.142.09h.06v-.25h-.202v.16"/><path d="m20.422 88.83l.169.09.238-.66h-.208l-.199.57"/><path d="m19.704 88.26l.07.19.256.15-.118-.34h-.208"/><path d="m23.1 88.23c-.188 0-.336.057-.442.17-.106.113-.16.271-.16.471 0 .201.054.357.16.469.106.115.254.171.442.171.06 0 .117-.008.174-.023.058-.015.113-.039.168-.071v-.208c-.049.045-.101.078-.154.1-.058.021-.118.031-.188.031-.125 0-.222-.04-.29-.121-.067-.083-.102-.198-.102-.348 0-.151.034-.268.101-.349.068-.081.164-.122.291-.122.066 0 .127.01.183.032.053.021.104.054.159.102v-.21c-.058-.033-.113-.056-.17-.072-.057-.015-.114-.022-.172-.022"/><path d="m23.887 87.93h.323v1.08l.197-.12v-1.12h-.521v.16z"/><path d="m25.2 88.31v.125l.356-.207c-.047.003-.096.008-.145.018-.065.014-.138.036-.211.064"/><path d="m22.473 90.6c-.293 0-.577-.07-.799-.199l-5.429-3.134c-.456-.263-.799-.857-.799-1.384v-6.269c0-.525.343-1.12.799-1.383l5.429-3.134c.445-.257 1.155-.257 1.598 0l5.43 3.134c.455.263.799.858.799 1.383v6.269c0 .526-.344 1.121-.799 1.384l-5.43 3.134c-.222.128-.506.199-.799.199m0-14.572c-.112 0-.196.025-.234.047l-5.429 3.134c-.109.063-.233.278-.233.404v6.269c0 .126.124.341.233.404l5.429 3.134c.037.021.121.047.233.047.111 0 .194-.026.231-.047l5.43-3.134c.109-.063.233-.278.233-.404v-6.269c0-.126-.124-.34-.233-.404l-5.429-3.134c-.037-.021-.121-.047-.231-.047"/><path d="m24.15 61.68c-.953-.549-2.512-.549-3.466 0l-18.23 10.527c-.954.55-1.732 1.9-1.732 3v21.05c0 1.101.779 2.452 1.732 3l18.231 10.526c.953.55 2.512.55 3.465 0l18.231-10.526c.953-.549 1.733-1.899 1.733-3v-21.05c0-1.101-.78-2.452-1.733-3l-18.231-10.527m17.964 33.424c0 1.101-.78 2.451-1.733 3l-16.23 9.371c-.952.551-2.511.551-3.464 0l-16.23-9.371c-.953-.551-1.732-1.9-1.732-3v-18.742c0-1.1.779-2.451 1.732-3l16.23-9.37c.954-.55 2.513-.55 3.466 0l16.229 9.37c.953.55 1.733 1.901 1.733 3l-.001 18.742"/><g enable-background="new    "><path d="m15.276 37.25c.141.06.256.151.347.274.077.104.124.212.141.323.017.11.025.29.025.541v1.645h-.747v-1.704c0-.151-.026-.272-.077-.365-.066-.13-.192-.195-.377-.195-.192 0-.337.064-.437.194-.099.129-.149.313-.149.554v1.517h-.732v-3.772h.732v1.336c.105-.163.228-.276.367-.341.139-.064.285-.096.438-.096.172-.001.328.029.469.089"/><path d="m18.811 39.688c-.236.292-.595.438-1.076.438-.481 0-.839-.146-1.076-.438-.236-.291-.354-.643-.354-1.053 0-.403.118-.754.354-1.05s.595-.443 1.076-.443c.481 0 .84.147 1.076.443s.354.646.354 1.05c.001.41-.118.761-.354 1.053m-.585-.405c.115-.152.172-.368.172-.648s-.057-.496-.172-.647-.279-.227-.493-.227-.379.075-.494.227c-.116.151-.173.367-.173.647s.058.496.173.648c.115.152.28.229.494.229s.378-.076.493-.229"/><path d="m20.257 39.14c.015.13.049.223.101.277.091.098.26.146.505.146.145 0 .26-.021.345-.064s.127-.106.127-.192c0-.082-.034-.145-.103-.188-.069-.043-.324-.116-.766-.221-.318-.079-.542-.178-.672-.296-.13-.116-.195-.284-.195-.503 0-.259.102-.48.305-.666.203-.187.489-.279.858-.279.35 0 .635.07.855.21.22.14.347.38.379.723h-.732c-.01-.095-.037-.169-.08-.224-.081-.1-.218-.148-.412-.148-.16 0-.273.024-.341.074-.068.05-.102.107-.102.175 0 .084.036.145.108.182.072.04.327.107.764.203.292.068.51.172.655.311.144.141.216.316.216.526 0 .277-.104.504-.31.68-.207.175-.526.263-.958.263-.441 0-.766-.093-.977-.278-.21-.186-.315-.423-.315-.71h.745z"/><path d="m22.326 37.778v-.521h.391v-.78h.725v.78h.454v.521h-.454v1.479c0 .114.014.186.043.214s.118.042.268.042c.021 0 .045 0 .07-.001s.049-.002.073-.004v.547l-.347.013c-.346.013-.582-.048-.709-.18-.082-.083-.123-.213-.123-.388v-1.723h-.391"/><path d="m25.12 36.897h-.742v-.676h.742v.676m-.742.334h.742v2.799h-.742v-2.799"/><path d="m28.08 37.39c.183.151.274.403.274.754v1.885h-.75v-1.702c0-.147-.02-.261-.059-.339-.071-.145-.208-.216-.407-.216-.247 0-.416.104-.508.315-.047.111-.071.254-.071.427v1.515h-.731v-2.794h.708v.408c.094-.144.183-.247.267-.311.149-.113.34-.17.57-.17.287 0 .523.076.707.228"/><path d="m30.424 37.23c.178.074.32.209.431.406v-.403h.714v2.655c0 .361-.061.633-.183.816-.209.314-.609.473-1.202.473-.357 0-.649-.07-.875-.211-.227-.141-.352-.35-.375-.629h.796c.021.086.054.147.101.185.078.067.211.101.397.101.264 0 .44-.089.529-.265.058-.113.087-.303.087-.57v-.18c-.07.12-.146.21-.226.27-.146.111-.335.167-.567.167-.359 0-.646-.126-.861-.379-.215-.252-.322-.594-.322-1.025 0-.416.104-.766.311-1.049.206-.283.5-.426.879-.426.139-.001.261.021.366.064m.249 2.01c.118-.129.177-.335.177-.617 0-.266-.057-.468-.168-.606s-.262-.208-.449-.208c-.256 0-.432.121-.529.362-.051.128-.076.287-.076.475 0 .163.027.308.082.435.099.236.275.354.531.354.17 0 .314-.065.432-.195"/></g><path d="m22.415 32.785c-.226 0-.44-.052-.604-.146l-5.438-3.14c-.338-.195-.603-.654-.603-1.044v-6.279c0-.391.265-.85.603-1.045l5.438-3.139c.164-.095.377-.146.604-.146.226 0 .439.051.603.146l5.438 3.139c.339.195.603.654.603 1.045v6.279c0 .39-.264.849-.603 1.044l-5.438 3.14c-.163.094-.377.146-.603.146m-5.702-4.675c0 .265.201.613.431.746l4.84 2.794c.11.063.267.1.431.1s.32-.036.43-.1l4.84-2.794c.229-.133.431-.481.431-.746v-1.304l-5.099 2.945c-.164.093-.377.146-.604.146s-.44-.052-.604-.146l-5.099-2.944v1.303h.003zm0-2.888c0 .265.201.613.431.745l4.84 2.794c.11.064.267.101.431.101s.32-.036.43-.101l4.84-2.794c.229-.132.431-.48.431-.745v-1.303l-5.099 2.943c-.164.095-.377.147-.604.147s-.44-.052-.604-.147l-5.099-2.943v1.303h.003m.008-2.795c.039.252.222.536.423.652l4.84 2.794c.11.064.267.1.431.1s.32-.036.43-.1l4.84-2.794c.201-.117.383-.399.422-.652-.039-.253-.221-.537-.422-.652l-4.84-2.795c-.11-.064-.267-.1-.43-.1s-.321.036-.431.1l-4.841 2.795c-.201.116-.384.399-.422.652"/><path d="m17.334 25.04v.335l1.126.645v-.333l-1.126-.647"/><path d="m18.795 26.22l1.126.648v-.337l-1.126-.65v.339"/><path d="m20.257 26.724v.336l1.126.652v-.337l-1.126-.651"/><path d="m17.334 27.938v.332l1.126.655v-.338l-1.126-.649"/><path d="m18.795 29.12l1.126.648v-.337l-1.126-.65v.339"/><path d="m20.257 29.625v.337l1.126.65v-.342l-1.126-.645"/><path d="m27.324 25.12v.341l-1.124.649v-.337l1.124-.653"/><path d="m25.863 26.305l-1.127.65v-.338l1.127-.65v.338"/><path d="m24.4 26.811v.339l-1.125.648v-.337l1.125-.65"/><path d="m27.324 28.02v.341l-1.124.649v-.336l1.124-.654"/><path d="m25.863 29.2l-1.127.654v-.336l1.127-.65v.332"/><path d="m24.4 29.711v.339l-1.125.649v-.337l1.125-.651"/><path d="m24.15 4.872c-.955-.55-2.513-.55-3.466 0l-18.23 10.526c-.954.55-1.733 1.901-1.733 3v21.05c0 1.101.779 2.451 1.733 3l18.231 10.526c.953.549 2.512.549 3.465 0l18.231-10.526c.953-.55 1.731-1.9 1.731-3v-21.05c0-1.101-.778-2.452-1.731-3l-18.231-10.526m17.963 33.423c0 1.1-.779 2.451-1.733 3l-16.23 9.371c-.953.55-2.512.55-3.465 0l-16.23-9.371c-.953-.551-1.732-1.901-1.732-3v-18.741c0-1.099.779-2.451 1.732-3l16.23-9.37c.953-.551 2.512-.551 3.465 0l16.229 9.37c.954.55 1.733 1.902 1.733 3v18.741"/><path d="m23.412 55.39c0-1.104.781-2.458 1.736-3.01l2.812-1.625c.955-.551 1.514-1.391 1.238-1.867-.274-.475-1.281-.413-2.235.139l-2.813 1.624c-.955.551-2.519.551-3.474 0l-2.812-1.624c-.956-.552-1.961-.614-2.236-.139-.274.476.282 1.316 1.238 1.867l2.813 1.625c.954.551 1.737 1.905 1.737 3.01v3.847c0 1.104-.783 2.457-1.737 3.01l-2.813 1.624c-.956.552-1.512 1.392-1.238 1.867.274.475 1.28.413 2.236-.139l2.812-1.624c.955-.552 2.519-.552 3.474 0l2.813 1.624c.954.552 1.961.614 2.235.139.273-.476-.283-1.315-1.238-1.867l-2.812-1.624c-.955-.552-1.736-1.906-1.736-3.01v-3.847"/><path d="m23.412 112.19c0-1.104.781-2.457 1.736-3.01l2.812-1.625c.955-.551 1.514-1.391 1.238-1.865-.275-.476-1.281-.414-2.235.139l-2.813 1.624c-.955.551-2.519.551-3.474 0l-2.812-1.624c-.956-.553-1.961-.614-2.236-.139-.274.476.282 1.314 1.238 1.865l2.813 1.625c.954.551 1.737 1.905 1.737 3.01v3.849c0 1.103-.783 2.457-1.737 3.01l-2.813 1.624c-.956.553-1.512 1.393-1.238 1.867.274.477 1.28.414 2.236-.139l2.812-1.625c.955-.551 2.519-.551 3.474 0l2.813 1.625c.954.553 1.961.613 2.235.139.273-.475-.283-1.314-1.238-1.867l-2.812-1.624c-.955-.552-1.736-1.905-1.736-3.01v-3.849"/></g></svg>