<svg xmlns="http://www.w3.org/2000/svg" viewBox="0 0 45 190" enable-background="new 0 0 45 190"><g fill="#e72f37"><text transform="translate(13.94 153.63)" font-family="&apos;Helvetica-Bold&apos;" font-size="5.259">design</text><path d="m22.415 146.65c-.232 0-.453-.054-.62-.149l-5.644-3.259c-.347-.2-.619-.671-.619-1.072v-6.517c0-.4.272-.872.619-1.072l5.644-3.259c.167-.096.387-.149.62-.149.231 0 .451.054.618.149l5.645 3.259c.347.2.618.672.618 1.072v6.517c0 .401-.271.872-.618 1.072l-5.645 3.259c-.167.096-.387.149-.618.149m-5.932-4.838c0 .284.208.644.454.785l5.01 2.892v-5.788c0-.258-.176-.587-.4-.75l-5.062-2.921v5.782m6.866-2.897c-.241.141-.453.507-.453.787v5.78l4.997-2.885c.241-.139.453-.507.453-.785v-5.782l-4.997 2.885m-1.316-.783c.096.041.237.068.382.068.171 0 .337-.039.453-.105l4.997-2.885-4.997-2.885c-.116-.067-.281-.105-.453-.105-.173 0-.338.038-.454.105l-4.993 2.883 5.065 2.924"/><path d="m20.447 140.49c-.346-.768-.528-2.547.114-2.1.026.018-.086-.29-.08-.318l-1.124-.551c.013.037-.245.018-.209.054.749.763.561 1.983.262 2.407-.055.065-.088.158-.088.275 0 .339.271.747.605.911.335.164.606.022.606-.317.001-.116-.032-.24-.086-.361"/><path d="m18.78 138.66c-.249-.497-.421-1.467.102-1.296.028.009-.076-.247-.072-.272l-.823-.375c.008.032-.186.074-.147.104.604.454.408 1.232.193 1.499-.041.041-.063.1-.063.174 0 .217.196.481.436.593.241.109.437.022.437-.193 0-.077-.023-.157-.063-.234"/><path d="m24.73 172.27c1.453-2.104 2.184-5.321-.573-7.099-.108-.07.593-1.063.565-1.169l5.04-2.24c-.051.11-.354 1.675-.462 1.785-2.85 2.938-1.459 6.642-.199 8.52h-.003c.233.305.371.665.371 1.062.003 1.152-1.139 2.139-2.547 2.204-1.408.066-2.551-.813-2.553-1.966-.001-.396.136-.77.368-1.097h-.002"/><path d="m30.678 166.66c1.051-1.783 1.458-4.142.339-4.371-.096-.02-.383-1.587-.403-1.669l3.36-1.051c-.037.092.858.097.771.185-2.895 2.895-1.799 5.01-.859 6.403h-.002c.174.224.278.5.281.813.011.914-.82 1.786-1.855 1.948-1.035.164-1.882-.445-1.892-1.359-.003-.314.094-.622.263-.899h-.003"/><ellipse cx="26.914" cy="184.16" rx="4.499" ry="1.377"/><ellipse cx="32.23" cy="182.09" rx="2.25" ry=".688"/><ellipse cx="34.23" cy="184.16" rx=".759" ry=".23"/><ellipse cx="21.656" cy="185.77" rx=".759" ry=".232"/><ellipse cx="35.744" cy="182.78" rx=".758" ry=".232"/><path d="m24.15 118.42c-.953-.55-2.512-.55-3.465 0l-18.231 10.525c-.954.55-1.732 1.9-1.732 3v21.05c0 1.101.779 2.452 1.732 3l18.231 10.525c.953.55 2.512.55 3.465 0l18.231-10.525c.953-.55 1.733-1.901 1.733-3v-21.05c0-1.102-.78-2.452-1.733-3l-18.231-10.525m17.964 33.423c0 1.1-.78 2.451-1.733 3l-16.23 9.37c-.953.551-2.512.551-3.465 0l-16.23-9.37c-.953-.551-1.732-1.902-1.732-3v-18.741c0-1.1.78-2.451 1.732-3l16.23-9.37c.953-.551 2.512-.551 3.465 0l16.23 9.37c.953.55 1.733 1.901 1.733 3v18.741"/><text transform="translate(13.811 96.88)" font-family="&apos;Helvetica-Bold&apos;" font-size="5.259">coding</text><path d="m21.882 76.1c.071-.016.145-.04.221-.07v-.199c-.079.042-.153.073-.223.093-.07.02-.137.03-.201.03-.008 0-.017-.001-.024-.001l-.227.13c.073.027.156.042.249.042.066-.001.134-.009.205-.025"/><path d="m22.877 75.72c-.062-.025-.131-.043-.201-.054v.422h.201v-.368"/><path d="m18.13 78.06c-.001-.023-.005-.044-.008-.067l-.287.165h.294v-.098"/><path d="m17.646 78.8c.067 0 .135-.008.206-.024.071-.015.145-.039.221-.07v-.199c-.08.042-.154.072-.223.093-.07.021-.137.03-.201.03-.126 0-.225-.037-.293-.109-.018-.019-.032-.039-.044-.062l-.166.096c.018.026.035.052.057.076.107.112.255.169.443.169"/><path d="m19.07 78.8c.06 0 .118-.008.175-.024.057-.015.112-.039.166-.07v-.208c-.046.045-.098.078-.153.1-.055.021-.118.032-.188.032-.125 0-.221-.041-.289-.123-.068-.082-.102-.198-.102-.349 0-.15.034-.267.102-.347.067-.083.164-.123.289-.123.068 0 .128.011.182.032.053.021.107.055.159.102v-.209c-.056-.032-.113-.055-.168-.071-.056-.015-.113-.023-.172-.023-.057 0-.108.007-.157.017l-.302.175c-.095.111-.144.26-.144.449 0 .201.054.358.16.471.106.112.254.169.442.169"/><path d="m20.06 78.36c0 .148.032.251.093.311.061.061.167.091.317.091h.245v-.16h-.225c-.085 0-.145-.018-.178-.053-.034-.036-.052-.099-.052-.189v-.663h.456v-.155h-.456v-.348h-.2v.348h-.325v.155h.325v.663"/><path d="m21.795 77.55h-.512v.16h.312v.9h-.395v.16h.99v-.16h-.395z"/><path d="m21.595 77.08h.2v.252h-.2z"/><path d="m22.952 78.8c.17 0 .3-.056.389-.165.09-.109.134-.268.134-.477 0-.208-.044-.366-.134-.476s-.22-.165-.389-.165c-.169 0-.298.055-.388.165-.089.109-.133.268-.133.476 0 .208.044.368.133.477.09.109.219.165.388.165m-.23-.992c.052-.079.129-.119.23-.119.103 0 .18.04.231.119.053.079.079.196.079.351 0 .155-.026.272-.079.352-.052.08-.129.119-.231.119-.101 0-.179-.04-.23-.119-.053-.08-.079-.197-.079-.352 0-.156.025-.273.079-.351"/><path d="m24.04 78.08c0-.124.025-.219.076-.286.05-.066.122-.1.216-.1.082 0 .143.026.181.078.039.051.059.131.059.242v.756h.201v-.757c0-.166-.031-.29-.092-.371-.062-.082-.154-.123-.278-.123-.083 0-.156.018-.217.054-.062.035-.11.088-.146.158v-.182h-.2v1.22h.2v-.689"/><path d="m27.13 78.8c.06 0 .118-.008.174-.024.058-.015.113-.039.167-.07v-.208c-.047.045-.099.078-.153.1-.056.021-.118.032-.188.032-.126 0-.222-.041-.29-.123s-.102-.198-.102-.349c0-.077.009-.145.027-.204l-.181-.104c-.037.089-.058.19-.058.308 0 .201.053.358.159.471.108.114.256.171.445.171"/><path d="m16.5 80.38c-.033-.061-.077-.106-.133-.138-.055-.031-.119-.046-.19-.047v.172c.009 0 .017-.002.026-.002.097 0 .169.04.22.119.05.08.076.197.076.352s-.026.271-.076.352c-.051.079-.124.119-.22.119-.009 0-.017-.002-.026-.002v.172c.071-.001.134-.016.188-.047.056-.032.101-.077.134-.138v.154h.2v-1.696h-.2v.63z"/><path d="m17.766 80.23h-.513v.15h.312v.91h-.395v.15h.99v-.15h-.394z"/><path d="m17.565 79.75h.201v.253h-.201z"/><path d="m18.922 81.25l-.353-1.03h-.209l.434 1.22h.256l.436-1.22h-.208z"/><path d="m21.351 80.75c0-.124.026-.219.076-.285.05-.067.123-.1.216-.1.083 0 .143.026.181.078.038.051.058.132.058.241v.756h.201v-.756c0-.165-.03-.289-.092-.371-.062-.082-.154-.123-.278-.123-.084 0-.156.018-.217.054-.061.036-.109.089-.145.159v-.183h-.2v1.22h.2v-.69"/><path d="m22.883 81.45c.08 0 .147-.016.202-.049.055-.034.099-.085.131-.153v.136.007c0 .129-.024.222-.074.28-.049.059-.128.089-.236.089-.049 0-.102-.009-.16-.024-.058-.016-.122-.04-.194-.074v.198c.061.02.121.035.181.044.061.011.118.016.173.016.169 0 .295-.047.382-.142.086-.093.129-.233.129-.416v-1.137h-.2v.157c-.033-.065-.078-.113-.134-.145-.053-.031-.12-.047-.199-.047-.142 0-.255.058-.34.171-.084.113-.127.267-.127.458 0 .191.042.344.127.457.083.117.197.174.339.174m-.179-.971c.05-.079.127-.117.225-.117.093 0 .165.038.213.117.05.078.074.192.074.342s-.024.264-.074.343c-.048.079-.119.118-.211.118-.099 0-.174-.04-.227-.118-.051-.079-.078-.193-.078-.344s.026-.263.078-.341"/><path d="m23.736 80.65h1.154v.184h-1.154z"/><path d="m25.937 80.19c-.054 0-.1.013-.139.038-.038.025-.069.063-.093.116-.021-.051-.051-.09-.086-.115-.037-.025-.083-.038-.138-.038-.047 0-.088.012-.124.035-.035.023-.065.056-.089.099v-.104h-.183v1.22h.183v-.698c0-.167.01-.272.03-.317.021-.045.058-.066.111-.066.053 0 .091.02.111.061.021.041.031.148.031.323v.698h.183v-.698c0-.167.011-.272.032-.317.021-.045.061-.066.12-.066.05 0 .085.021.104.062.02.041.028.148.028.321v.698h.183v-.707c0-.211-.02-.354-.06-.429-.038-.078-.107-.116-.204-.116"/><path d="m26.981 81.47c.17 0 .3-.054.39-.164s.134-.268.134-.477c0-.208-.045-.366-.135-.476-.09-.109-.219-.165-.389-.165-.169 0-.299.055-.388.165-.089.11-.134.268-.134.476 0 .208.045.367.134.477s.219.164.388.164m-.229-.992c.051-.08.128-.119.229-.119.103 0 .18.039.232.119.053.079.079.197.079.352s-.026.272-.079.352-.13.119-.232.119c-.102 0-.179-.04-.229-.119-.054-.079-.079-.197-.079-.352s.025-.273.079-.352"/><path d="m28.588 79.75v.631c-.031-.061-.074-.106-.131-.138-.057-.031-.121-.047-.194-.047-.146 0-.262.057-.347.169-.086.112-.128.269-.128.467 0 .201.042.359.127.473.085.115.201.171.348.171.073 0 .137-.016.192-.047.056-.032.1-.077.133-.138v.154h.179v-1.696h-.179zm-.074 1.438c-.051.079-.125.119-.221.119-.097 0-.17-.04-.22-.119-.05-.079-.073-.196-.073-.352 0-.155.023-.273.073-.352.05-.08.123-.119.22-.119.096 0 .17.04.221.119.05.08.074.197.074.352s-.025.271-.074.352"/><path d="m17.44 83.51c.045.057.067.125.067.205v.218c0 .161.031.268.092.321.061.054.182.081.363.081h.07v-.157h-.076c-.102 0-.167-.015-.199-.047-.031-.031-.047-.099-.047-.203v-.228c0-.124-.026-.209-.078-.257-.053-.048-.149-.08-.291-.097.146-.02.243-.051.293-.095.05-.044.075-.13.075-.258v-.292c0-.104.016-.171.047-.202.031-.031.097-.047.199-.047h.076v-.156h-.07c-.181 0-.302.027-.363.081-.062.053-.092.16-.092.32v.283c0 .096-.021.166-.061.215-.04.049-.112.074-.214.074h-.133v.156h.133c.096-.001.165.027.209.085"/><path d="m19.05 82.992v-.292c0-.104.015-.171.046-.202.031-.031.097-.047.198-.047h.077v-.156h-.07c-.181 0-.302.027-.363.081-.062.053-.093.16-.093.32v.283c0 .096-.019.166-.06.215-.041.049-.112.074-.214.074h-.133v.156h.133c.094 0 .163.028.208.086.044.057.066.125.066.205v.218c0 .161.031.268.093.321s.183.081.363.081h.07v-.157h-.077c-.101 0-.167-.015-.198-.047-.032-.031-.046-.099-.046-.203v-.228c0-.124-.027-.209-.079-.257-.052-.048-.149-.08-.29-.097.145-.02.243-.051.293-.095.05-.045.076-.131.076-.259"/><path d="m20.2 84.15c.072 0 .137-.016.192-.048.056-.031.1-.077.133-.138v.154h.201v-1.695h-.201v.631c-.032-.061-.076-.106-.132-.139-.056-.031-.12-.046-.193-.046-.147 0-.263.056-.348.169-.084.112-.127.268-.127.467 0 .2.042.359.127.474.084.114.201.171.348.171m-.19-.991c.049-.08.123-.12.219-.12.096 0 .17.04.22.12.051.08.076.196.076.351 0 .154-.025.271-.076.351-.049.08-.124.12-.22.12-.097 0-.17-.04-.219-.118-.049-.08-.074-.197-.074-.352 0-.157.025-.275.074-.352"/><path d="m21.492 84.15c.093 0 .171-.017.237-.052.064-.035.118-.088.162-.161v.181h.201v-.696c0-.107-.005-.188-.017-.241s-.031-.098-.059-.134c-.044-.06-.102-.103-.174-.134-.072-.03-.158-.044-.259-.044-.064 0-.129.007-.198.021-.067.014-.139.035-.212.063v.201c.066-.038.134-.066.204-.086.07-.02.138-.03.207-.03.108 0 .185.022.234.066.049.043.073.115.074.211v.032h-.269c-.177 0-.31.035-.401.106-.091.07-.137.173-.137.31 0 .117.038.21.112.28.071.073.171.107.295.107m-.119-.583c.059-.041.146-.062.264-.062h.066.188v.044c-.001.135-.033.241-.096.317-.063.077-.15.114-.261.114-.078 0-.14-.02-.184-.061-.044-.041-.066-.098-.066-.171 0-.079.029-.14.089-.181"/><path d="m22.75 83.72c0 .147.031.251.092.312.062.061.168.09.318.09h.245v-.16h-.225c-.085 0-.144-.019-.179-.054-.034-.035-.051-.097-.051-.188v-.662h.455v-.156h-.455v-.347h-.2v.347h-.326v.156h.326v.662"/><path d="m24.702 83.05c-.044-.06-.103-.103-.174-.134-.072-.03-.158-.044-.259-.044-.064 0-.13.007-.198.021-.068.014-.139.035-.214.063v.201c.067-.038.136-.066.205-.086.069-.02.139-.03.207-.03.106 0 .185.022.232.066.049.043.074.115.075.211v.032h-.27c-.177 0-.311.035-.401.106-.092.07-.138.173-.138.31 0 .117.038.21.111.28.074.071.174.105.298.105.093 0 .171-.017.236-.052s.12-.088.163-.161v.181h.201v-.696c0-.107-.007-.188-.018-.241-.009-.051-.029-.096-.056-.132m-.125.502c-.001.135-.033.241-.097.317-.062.077-.149.114-.261.114-.078 0-.14-.02-.184-.061s-.066-.098-.066-.171c0-.081.029-.142.089-.183.059-.041.147-.062.265-.062h.065.188v.046z"/><path d="m25.392 83.68h.383v.44h-.383z"/><path d="m27.28 82.87c-.054 0-.1.013-.138.037-.038.025-.069.063-.095.116-.021-.051-.049-.09-.085-.116-.036-.024-.082-.037-.138-.037-.047 0-.087.011-.124.034-.034.022-.064.056-.089.1v-.104h-.18v1.22h.182v-.698c0-.167.011-.272.03-.317.021-.045.059-.067.111-.067.054 0 .091.021.111.061.021.041.031.149.031.323v.698h.184v-.698c0-.167.01-.272.031-.317.022-.045.062-.067.12-.067.05 0 .085.021.104.063.02.041.029.148.029.321v.698h.183v-.707c0-.21-.02-.354-.061-.429-.038-.077-.108-.114-.206-.114"/><path d="m28.363 82.87c-.174 0-.314.058-.419.174-.104.116-.156.271-.156.466 0 .2.053.356.16.47.107.114.255.17.444.17.066 0 .135-.008.206-.023.054-.012.109-.03.168-.051v-.194c-.06.029-.118.052-.171.068-.07.021-.137.03-.2.03-.127 0-.225-.035-.294-.108-.07-.073-.102-.191-.097-.359v-.006h.762v-.43c-.012-.018-.022-.035-.035-.05-.09-.105-.212-.157-.368-.157m-.349.481c.007-.08.039-.152.103-.216.062-.064.142-.096.238-.096.099 0 .175.031.227.092.053.061.084.134.093.219l-.661.001"/><path d="m16.231 86.08c.032.096.079.188.136.274-.003-.112-.028-.192-.078-.237-.014-.014-.035-.025-.058-.037"/><path d="m16.256 85.05c-.039.035-.064.092-.079.17v.576c0 .058.01.118.023.179.039-.014.071-.03.092-.049.049-.044.074-.13.074-.258v-.292c0-.103.017-.17.047-.201.031-.033.097-.048.198-.048h.077v-.156h-.068c-.182-.001-.303.026-.364.079"/><path d="m17.643 85.55c-.073 0-.137.015-.192.047-.056.032-.101.078-.134.137v-.155h-.201v1.341l.201.116v-.391c.032.06.076.106.131.137.056.032.121.047.195.047.146 0 .262-.056.346-.169.084-.112.126-.268.126-.466 0-.203-.042-.36-.126-.474-.083-.114-.199-.17-.346-.17m.189.992c-.049.079-.122.119-.219.119-.097 0-.17-.041-.222-.12-.05-.08-.075-.197-.075-.351 0-.155.025-.271.075-.352.051-.079.125-.119.222-.119.097 0 .169.04.219.118.048.081.073.197.073.353s-.025.273-.073.352"/><path d="m19.329 85.73c-.044-.06-.102-.104-.174-.135-.071-.029-.158-.043-.258-.043-.064 0-.13.007-.198.021-.068.015-.14.036-.213.063v.201c.066-.038.134-.067.204-.086.069-.02.138-.03.207-.03.106 0 .184.022.233.066.048.044.073.115.074.211v.033h-.269c-.176 0-.31.034-.401.105-.091.07-.137.173-.137.309 0 .118.037.211.111.282.074.069.174.104.297.104.094 0 .173-.018.237-.051.066-.034.12-.088.162-.161v.181h.202v-.696c0-.107-.005-.187-.018-.24-.012-.053-.031-.099-.059-.134m-.125.501c0 .135-.033.241-.096.318s-.149.115-.26.115c-.079 0-.141-.021-.185-.061-.044-.042-.067-.099-.067-.171 0-.082.03-.143.089-.184s.147-.062.264-.062h.066.187v.045z"/><path d="m20.538 86.04v.756h.202v-.756c0-.166-.031-.29-.092-.371-.061-.082-.154-.122-.278-.122-.084 0-.156.018-.217.053-.061.037-.109.089-.145.159v-.183h-.2v1.22h.2v-.689c0-.124.025-.22.075-.286.051-.067.123-.1.217-.1.082 0 .142.026.181.077.038.052.057.132.057.242"/><path d="m21.647 85.55c-.174 0-.313.058-.418.174-.104.116-.157.271-.157.466 0 .2.054.356.161.47.107.113.254.17.444.17.066 0 .134-.007.205-.023.071-.016.145-.039.221-.07v-.199c-.079.041-.153.072-.223.092-.07.021-.137.031-.201.031-.126 0-.224-.036-.294-.108-.069-.073-.101-.192-.095-.359v-.006h.868v-.098c-.006-.149-.053-.276-.144-.381-.089-.107-.211-.159-.367-.159m-.35.481c.006-.081.04-.152.102-.216.063-.064.142-.096.239-.096.1 0 .175.031.228.092.052.061.083.134.092.218l-.661.002"/><path d="m23.11 86.56c-.033-.045-.05-.114-.05-.204v-1.26h-.522v.157h.322v1.104c0 .141.032.25.099.327.066.077.158.115.278.115h.253v-.169h-.233c-.065-.002-.114-.025-.147-.07"/><path d="m24.05 86.36h.383v.44h-.383z"/><path d="m25.637 85.23h-.201v.346h-.326v.155h.325v.663c0 .148.031.252.093.312.062.06.168.09.318.09h.245v-.16h-.226c-.085 0-.144-.018-.178-.053-.035-.036-.052-.099-.052-.189v-.663h.455v-.155h-.455v-.346z"/><path d="m27.389 85.73c-.045-.06-.103-.104-.175-.135-.071-.029-.157-.043-.259-.043-.063 0-.129.007-.197.021-.066.015-.139.036-.213.063v.201c.066-.038.134-.067.203-.086.07-.02.14-.03.207-.03.107 0 .186.022.234.066.048.044.072.115.073.211v.033h-.27c-.176 0-.31.034-.401.105-.091.07-.136.173-.136.309 0 .118.037.211.111.282.073.069.172.104.297.104.093 0 .172-.018.236-.051.065-.034.119-.088.162-.161v.181h.202v-.696c0-.107-.006-.187-.018-.24-.009-.053-.029-.099-.056-.134m-.126.501c-.001.135-.032.241-.096.318-.062.077-.15.115-.26.115-.079 0-.14-.021-.185-.061-.044-.042-.066-.099-.066-.171 0-.082.029-.143.089-.184.059-.041.147-.062.265-.062h.065.188v.045"/><path d="m28.393 85.55c-.074 0-.139.015-.195.048-.057.031-.101.077-.133.136v-.629h-.2v1.694h.174l.026-.016.077-.044.121-.07c.01-.005.018-.013.025-.018-.062-.016-.111-.052-.148-.11-.051-.08-.075-.197-.075-.351 0-.155.024-.271.075-.352.05-.079.124-.119.221-.119.098 0 .171.04.22.118.049.081.074.197.074.353 0 .013-.002.024-.002.036.07-.14.114-.29.114-.428v-.034c-.01-.015-.018-.032-.028-.045-.084-.113-.2-.169-.346-.169"/><path d="m18.908 87.95l.142.09h.06v-.25h-.202z"/><path d="m20.422 88.83l.169.09.238-.66h-.208z"/><path d="m19.704 88.26l.07.19.256.15-.118-.34z"/><path d="m23.1 88.23c-.189 0-.337.057-.443.17-.106.113-.16.271-.16.471 0 .201.054.357.16.469.106.115.254.171.443.171.059 0 .117-.008.174-.023s.112-.039.167-.071v-.208c-.048.045-.1.078-.154.1-.056.021-.117.031-.187.031-.126 0-.222-.04-.29-.121-.067-.083-.102-.198-.102-.348 0-.151.034-.268.101-.349.068-.081.164-.122.291-.122.066 0 .127.01.182.032.053.021.105.054.159.102v-.21c-.057-.033-.113-.056-.169-.072-.057-.015-.114-.022-.172-.022"/><path d="m23.886 87.93h.324v1.08l.197-.12v-1.12h-.521z"/><path d="m25.2 88.31v.125l.357-.207c-.047.003-.096.008-.145.018-.067.014-.138.036-.212.064"/><path d="m22.473 90.6c-.293 0-.577-.07-.799-.199l-5.429-3.134c-.456-.263-.799-.857-.799-1.384v-6.269c0-.525.343-1.12.799-1.383l5.429-3.134c.445-.257 1.155-.257 1.598 0l5.429 3.134c.455.263.799.858.799 1.383v6.269c0 .526-.344 1.121-.799 1.384l-5.43 3.134c-.221.128-.505.199-.798.199m0-14.572c-.112 0-.196.025-.234.047l-5.429 3.134c-.109.063-.233.278-.233.404v6.269c0 .126.124.341.233.404l5.429 3.134c.037.021.121.047.233.047.111 0 .194-.026.231-.047l5.43-3.134c.109-.063.233-.278.233-.404v-6.269c0-.126-.124-.34-.233-.404l-5.429-3.134c-.037-.021-.121-.047-.231-.047"/><path d="m24.15 61.68c-.953-.549-2.512-.549-3.466 0l-18.23 10.527c-.954.55-1.732 1.9-1.732 3v21.05c0 1.101.779 2.452 1.732 3l18.231 10.526c.953.55 2.512.55 3.465 0l18.232-10.526c.953-.549 1.733-1.9 1.733-3v-21.05c0-1.101-.78-2.452-1.733-3l-18.232-10.527m17.964 33.424c0 1.101-.78 2.451-1.733 3l-16.23 9.37c-.953.551-2.512.551-3.465 0l-16.23-9.37c-.953-.551-1.732-1.901-1.732-3v-18.742c0-1.1.779-2.451 1.732-3l16.23-9.37c.954-.55 2.513-.55 3.466 0l16.23 9.37c.953.55 1.733 1.901 1.733 3v18.742"/><text transform="translate(12.923 40.03)" font-family="&apos;Helvetica-Bold&apos;" font-size="5.259">hosting</text><path d="m22.415 32.785c-.226 0-.44-.052-.604-.146l-5.438-3.14c-.338-.195-.603-.654-.603-1.044v-6.279c0-.391.265-.85.603-1.045l5.438-3.139c.164-.095.377-.146.604-.146.226 0 .439.051.603.146l5.438 3.139c.339.195.603.654.603 1.045v6.279c0 .39-.264.849-.603 1.044l-5.438 3.14c-.163.094-.377.146-.603.146m-5.702-4.675c0 .265.201.613.431.746l4.84 2.794c.11.063.267.1.431.1s.32-.036.43-.1l4.84-2.794c.23-.133.431-.481.431-.746v-1.304l-5.099 2.945c-.163.093-.377.146-.603.146-.226 0-.44-.052-.604-.146l-5.099-2.944v1.303zm0-2.888c0 .265.201.613.431.745l4.84 2.794c.11.064.267.101.431.101s.32-.036.43-.101l4.84-2.794c.23-.132.431-.48.431-.745v-1.303l-5.099 2.943c-.163.095-.377.147-.603.147-.226 0-.44-.052-.604-.147l-5.099-2.943v1.303zm.008-2.795c.039.252.222.536.423.652l4.84 2.794c.11.064.267.1.431.1s.32-.036.43-.1l4.84-2.794c.202-.117.384-.399.423-.652-.039-.253-.221-.537-.423-.652l-4.84-2.795c-.11-.064-.267-.1-.43-.1s-.321.036-.431.1l-4.841 2.795c-.201.116-.384.399-.422.652"/><path d="m17.334 25.04v.335l1.126.645v-.333z"/><path d="m18.795 26.22l1.126.648v-.337l-1.126-.65z"/><path d="m20.257 26.724v.336l1.126.652v-.337z"/><path d="m17.334 27.938v.332l1.126.655v-.338z"/><path d="m18.795 29.12l1.126.648v-.337l-1.126-.65z"/><path d="m20.257 29.625v.337l1.126.65v-.342z"/><path d="m27.324 25.12v.341l-1.124.649v-.337z"/><path d="m25.863 26.305l-1.126.65v-.338l1.126-.65z"/><path d="m24.401 26.811v.339l-1.125.648v-.337z"/><path d="m27.324 28.02v.341l-1.124.649v-.336z"/><path d="m25.863 29.2l-1.126.654v-.336l1.126-.65z"/><path d="m24.401 29.711v.339l-1.125.649v-.337z"/><path d="m24.15 4.872c-.954-.55-2.513-.55-3.466 0l-18.23 10.526c-.954.55-1.733 1.901-1.733 3v21.05c0 1.101.779 2.451 1.733 3l18.231 10.526c.953.549 2.512.549 3.466 0l18.231-10.526c.953-.55 1.732-1.9 1.732-3v-21.05c0-1.101-.779-2.452-1.732-3l-18.232-10.526m17.963 33.423c0 1.1-.779 2.451-1.733 3l-16.229 9.371c-.954.55-2.513.55-3.466 0l-16.23-9.371c-.953-.551-1.732-1.901-1.732-3v-18.741c0-1.099.779-2.451 1.732-3l16.23-9.37c.953-.551 2.512-.551 3.466 0l16.229 9.37c.954.55 1.733 1.902 1.733 3v18.741"/><path d="m23.412 55.39c0-1.104.781-2.458 1.737-3.01l2.812-1.625c.955-.551 1.513-1.391 1.238-1.867-.274-.475-1.281-.413-2.235.139l-2.813 1.624c-.956.551-2.519.551-3.474 0l-2.813-1.624c-.956-.552-1.961-.614-2.236-.139-.274.476.282 1.316 1.238 1.867l2.813 1.625c.954.551 1.737 1.905 1.737 3.01v3.847c0 1.104-.783 2.457-1.737 3.01l-2.813 1.624c-.956.552-1.512 1.392-1.238 1.867.274.475 1.28.413 2.236-.139l2.813-1.624c.955-.552 2.518-.552 3.474 0l2.813 1.624c.954.552 1.961.614 2.235.139.274-.476-.283-1.315-1.238-1.867l-2.812-1.624c-.956-.552-1.737-1.906-1.737-3.01v-3.847"/><path d="m23.412 112.19c0-1.104.781-2.458 1.737-3.01l2.812-1.625c.955-.551 1.513-1.391 1.238-1.866s-1.281-.414-2.235.139l-2.813 1.624c-.956.551-2.519.551-3.474 0l-2.813-1.624c-.956-.553-1.961-.614-2.236-.139-.274.476.282 1.315 1.238 1.866l2.813 1.625c.954.551 1.737 1.905 1.737 3.01v3.848c0 1.103-.783 2.457-1.737 3.01l-2.813 1.624c-.956.552-1.512 1.392-1.238 1.867.274.476 1.28.414 2.236-.139l2.813-1.624c.955-.552 2.518-.552 3.474 0l2.813 1.624c.954.553 1.961.614 2.235.139s-.283-1.315-1.238-1.867l-2.812-1.624c-.956-.552-1.737-1.906-1.737-3.01v-3.848"/></g></svg>